<svg xmlns="http://www.w3.org/2000/svg" xmlns:xlink="http://www.w3.org/1999/xlink" version="1.1" x="0px" y="0px" viewBox="0 0 100 125" style="enable-background:new 0 0 100 100;" xml:space="preserve"><path d="M22.9082031,82.4501953h-3.5c-0.5522461,0-1,0.4472656-1,1s0.4477539,1,1,1h3.5c0.5522461,0,1-0.4472656,1-1  S23.4604492,82.4501953,22.9082031,82.4501953z"/><path d="M32.5219727,82.4501953h-3.5c-0.5522461,0-1,0.4472656-1,1s0.4477539,1,1,1h3.5c0.5522461,0,1-0.4472656,1-1  S33.0742188,82.4501953,32.5219727,82.4501953z"/><path d="M42.1362305,82.4501953h-3.5c-0.5522461,0-1,0.4472656-1,1s0.4477539,1,1,1h3.5c0.5522461,0,1-0.4472656,1-1  S42.6884766,82.4501953,42.1362305,82.4501953z"/><path d="M51.75,82.4501953h-3.5c-0.5522461,0-1,0.4472656-1,1s0.4477539,1,1,1h3.5c0.5522461,0,1-0.4472656,1-1  S52.3022461,82.4501953,51.75,82.4501953z"/><path d="M61.3637695,82.4501953h-3.5c-0.5522461,0-1,0.4472656-1,1s0.4477539,1,1,1h3.5c0.5522461,0,1-0.4472656,1-1  S61.9160156,82.4501953,61.3637695,82.4501953z"/><path d="M70.9780273,82.4501953h-3.5c-0.5522461,0-1,0.4472656-1,1s0.4477539,1,1,1h3.5c0.5522461,0,1-0.4472656,1-1  S71.5302734,82.4501953,70.9780273,82.4501953z"/><path d="M80.5917969,82.4501953h-3.5c-0.5522461,0-1,0.4472656-1,1s0.4477539,1,1,1h3.5c0.5522461,0,1-0.4472656,1-1  S81.144043,82.4501953,80.5917969,82.4501953z"/><path d="M89,10H11c-0.5522461,0-1,0.4472656-1,1v8.8066406c0,0.5527344,0.4477539,1,1,1h1.9770508v10.2490234  c0,0.2714844,0.1103516,0.53125,0.3061523,0.7197266l5.3491211,5.1533203  c0.1865234,0.1796875,0.4350586,0.2802734,0.6938477,0.2802734h7.2036133v2.4666748  c-8.1390381,0.5197144-14.6064453,7.2878418-14.6064453,15.5557861c0,5.4199219,2.7602539,10.3720703,7.3837891,13.2480469  c0.2260742,0.1396484,0.4990234,0.1835938,0.7578125,0.1240234c0.2592773-0.0615234,0.4829102-0.2236328,0.6225586-0.4501953  l2.6191406-4.2617188c0.2880859-0.46875,0.1430664-1.0820312-0.3237305-1.3730469  c-2.559082-1.5908203-4.0869141-4.3310547-4.0869141-7.328125c0-4.7607422,3.8730469-8.6337891,8.6337891-8.6337891  s8.6337891,3.8730469,8.6337891,8.6337891c0,2.9970703-1.527832,5.7363281-4.0869141,7.3291016  c-0.4672852,0.2900391-0.6118164,0.9033203-0.3237305,1.3720703l2.6191406,4.2617188  c0.1396484,0.2265625,0.3632812,0.3886719,0.6225586,0.4501953c0.0756836,0.0175781,0.152832,0.0263672,0.2294922,0.0263672  c0.1850586,0,0.3681641-0.0517578,0.5283203-0.1503906c4.6235352-2.8759766,7.3837891-7.828125,7.3837891-13.2480469  c0-8.2679443-6.4674072-15.0360718-14.6064453-15.5557861v-2.4666748h7.2036133  c0.2587891,0,0.5073242-0.1005859,0.6938477-0.2802734l5.3491211-5.1533203  c0.1958008-0.1884766,0.3061523-0.4482422,0.3061523-0.7197266V20.8066406H89c0.5522461,0,1-0.4472656,1-1V11  C90,10.4472656,89.5522461,10,89,10z M41.1362305,55.2314453c0,4.3886719-2.0771484,8.4257812-5.6054688,10.9873047  l-1.5766602-2.5654297c2.652832-2.0068359,4.2094727-5.1035156,4.2094727-8.4628906  c0-5.8632812-4.7705078-10.6337891-10.6337891-10.6337891s-10.6337891,4.7705078-10.6337891,10.6337891  c0,3.3603516,1.5566406,6.4560547,4.2094727,8.4628906L19.5288086,66.21875  c-3.5283203-2.5615234-5.6054688-6.5986328-5.6054688-10.9873047c0-7.5029297,6.1040039-13.6064453,13.6064453-13.6064453  S41.1362305,47.7285156,41.1362305,55.2314453z M14.9770508,30.6308594v-5.8828125l10.4609375,10.4609375h-5.7084961  L14.9770508,30.6308594z M28.2661133,35.2089844L14.9770508,21.9199219v-1.1132812h6.043457l14.3568115,14.3568115  l-0.0472412,0.0455322H28.2661133z M36.8178101,33.7758179L23.8486328,20.8066406h7.34375l8.8901367,8.8896484v0.9345703  L36.8178101,33.7758179z M40.0825195,26.8682251l-6.0619507-6.0615845h6.0619507V26.8682251z M88,18.8066406H12V12h76V18.8066406z"/><path d="M83.449707,76.8994141h-4.5239258v-3.8769531C78.9257812,70.2529297,76.6728516,68,73.9033203,68h-2.8662109  c-2.7695312,0-5.0224609,2.2529297-5.0224609,5.0224609v3.8769531h-9.559082v-3.8769531  C56.4555664,70.2529297,54.2026367,68,51.4331055,68h-2.8662109c-2.7695312,0-5.0224609,2.2529297-5.0224609,5.0224609v3.8769531  h-9.559082v-3.8769531C33.9853516,70.2529297,31.7324219,68,28.9628906,68h-2.8662109  c-2.7695312,0-5.0224609,2.2529297-5.0224609,5.0224609v3.8769531H16.550293C12.9384766,76.8994141,10,79.8378906,10,83.4501953  C10,87.0615234,12.9384766,90,16.550293,90H83.449707C87.0615234,90,90,87.0615234,90,83.4501953  C90,79.8378906,87.0615234,76.8994141,83.449707,76.8994141z M68.0146484,73.0224609  C68.0146484,71.3554688,69.3706055,70,71.0371094,70h2.8662109c1.6665039,0,3.0224609,1.3554688,3.0224609,3.0224609v3.8769531  h-8.9111328V73.0224609z M45.5444336,73.0224609C45.5444336,71.3554688,46.9003906,70,48.5668945,70h2.8662109  c1.6665039,0,3.0224609,1.3554688,3.0224609,3.0224609v3.8769531h-8.9111328V73.0224609z M23.0742188,73.0224609  C23.0742188,71.3554688,24.4301758,70,26.0966797,70h2.8662109c1.6665039,0,3.0224609,1.3554688,3.0224609,3.0224609v3.8769531  h-8.9111328V73.0224609z M83.449707,88H16.550293C14.0410156,88,12,85.9589844,12,83.4501953  c0-2.5097656,2.0410156-4.5507812,4.550293-4.5507812H83.449707c2.5092773,0,4.550293,2.0410156,4.550293,4.5507812  C88,85.9589844,85.9589844,88,83.449707,88z"/></svg>