<?xml version="1.0" encoding="UTF-8" standalone="no"?>
<svg
   xmlns:dc="http://purl.org/dc/elements/1.1/"
   xmlns:cc="http://creativecommons.org/ns#"
   xmlns:rdf="http://www.w3.org/1999/02/22-rdf-syntax-ns#"
   xmlns:svg="http://www.w3.org/2000/svg"
   xmlns="http://www.w3.org/2000/svg"
   xmlns:sodipodi="http://sodipodi.sourceforge.net/DTD/sodipodi-0.dtd"
   xmlns:inkscape="http://www.inkscape.org/namespaces/inkscape"
   viewBox="0 0 59.99876 55.986557"
   x="0px"
   y="0px"
   version="1.1"
   id="svg2303"
   sodipodi:docname="noun_segment_1.svg"
   width="59.99876"
   height="55.986557"
   inkscape:version="0.92.4 (5da689c313, 2019-01-14)">
  <metadata
     id="metadata2309">
    <rdf:RDF>
      <cc:Work
         rdf:about="">
        <dc:format>image/svg+xml</dc:format>
        <dc:type
           rdf:resource="http://purl.org/dc/dcmitype/StillImage" />
        <dc:title />
      </cc:Work>
    </rdf:RDF>
  </metadata>
  <defs
     id="defs2307" />
  <sodipodi:namedview
     pagecolor="#ffffff"
     bordercolor="#666666"
     borderopacity="1"
     objecttolerance="10"
     gridtolerance="10"
     guidetolerance="10"
     inkscape:pageopacity="0"
     inkscape:pageshadow="2"
     inkscape:window-width="1920"
     inkscape:window-height="1017"
     id="namedview2305"
     showgrid="false"
     fit-margin-top="0"
     fit-margin-left="0"
     fit-margin-right="0"
     fit-margin-bottom="0"
     inkscape:zoom="5.9"
     inkscape:cx="47.346333"
     inkscape:cy="41.28344"
     inkscape:window-x="-8"
     inkscape:window-y="-8"
     inkscape:window-maximized="1"
     inkscape:current-layer="svg2303" />
  <g
     data-name="line expand"
     id="g2301"
     transform="translate(-2.0006208,-4.0011561)"
     style="fill:#2f353a;fill-opacity:1">
    <path
       d="m 23,57 a 1,1 0 0 0 -1,-1 h -3 a 1,1 0 0 0 -0.707,1.707 l 2,2 a 1,1 0 0 0 1.414,-1.414 L 21.414,58 H 22 a 1,1 0 0 0 1,-1 z"
       id="path2259"
       inkscape:connector-curvature="0"
       style="fill:#2f353a;fill-opacity:1" />
    <rect
       x="37"
       y="56"
       width="2"
       height="2"
       id="rect2261"
       style="fill:#2f353a;fill-opacity:1" />
    <rect
       x="33"
       y="56"
       width="2"
       height="2"
       id="rect2263"
       style="fill:#2f353a;fill-opacity:1" />
    <rect
       x="29"
       y="56"
       width="2"
       height="2"
       id="rect2265"
       style="fill:#2f353a;fill-opacity:1" />
    <path
       d="m 7.55,48.17 a 0.568,0.568 0 0 0 -0.17,-0.09 0.609,0.609 0 0 0 -0.191,-0.06 1.025,1.025 0 0 0 -0.9,0.27 1.0040916,1.0040916 0 0 0 1.42,1.42 1.014,1.014 0 0 0 0,-1.42 C 7.66,48.25 7.609,48.21 7.55,48.17 Z"
       id="path2267"
       inkscape:connector-curvature="0"
       style="fill:#2f353a;fill-opacity:1" />
    <path
       d="m 32.71,48.29 a 1.047,1.047 0 0 0 -1.42,0 1.155,1.155 0 0 0 -0.21,0.33 0.943,0.943 0 0 0 0,0.76 1.155,1.155 0 0 0 0.21,0.33 l 0.149,0.12 a 0.782,0.782 0 0 0 0.181,0.09 0.636,0.636 0 0 0 0.18,0.06 1.355,1.355 0 0 0 0.2,0.02 1.052,1.052 0 0 0 0.71,-0.29 1.155,1.155 0 0 0 0.21,-0.33 0.942,0.942 0 0 0 0,-0.76 1.155,1.155 0 0 0 -0.21,-0.33 z"
       id="path2269"
       inkscape:connector-curvature="0"
       style="fill:#2f353a;fill-opacity:1" />
    <rect
       x="25"
       y="56"
       width="2"
       height="2"
       id="rect2271"
       style="fill:#2f353a;fill-opacity:1" />
    <rect
       x="11"
       y="24.000999"
       width="2"
       height="2"
       id="rect2273"
       style="fill:#2f353a;fill-opacity:1" />
    <rect
       x="11"
       y="28.000999"
       width="2"
       height="2"
       id="rect2275"
       style="fill:#2f353a;fill-opacity:1" />
    <rect
       x="31"
       y="24.000999"
       width="2"
       height="2"
       id="rect2277"
       style="fill:#2f353a;fill-opacity:1" />
    <rect
       x="31"
       y="28.000999"
       width="2"
       height="2"
       id="rect2279"
       style="fill:#2f353a;fill-opacity:1" />
    <rect
       x="51"
       y="24.000999"
       width="2"
       height="2"
       id="rect2281"
       style="fill:#2f353a;fill-opacity:1" />
    <rect
       x="51"
       y="28.000999"
       width="2"
       height="2"
       id="rect2283"
       style="fill:#2f353a;fill-opacity:1" />
    <path
       d="m 33.088,21.927 c 0.225,-0.028 0.451,-0.056 0.677,-0.1 0.093,-0.019 0.183,-0.048 0.276,-0.069 0.061,-0.014 0.121,-0.03 0.181,-0.046 q 0.42,-0.106 0.823,-0.25 c 0.055,-0.02 0.11,-0.039 0.165,-0.06 A 8.985,8.985 0 0 0 37.888,6.2 v 0 L 37.876,6.191 C 37.766,6.097 37.655,6.005 37.541,5.916 37.355,5.769 37.174,5.633 36.995,5.516 Q 36.634,5.275 36.252,5.071 A 8.984,8.984 0 0 0 25.2,7.114 v 0 L 25.194,7.121 Q 25.053,7.286 24.918,7.458 C 24.77,7.644 24.632,7.828 24.512,8.007 L 24.505,8.02 a 9.106,9.106 0 0 0 -0.536,0.931 c -0.034,0.067 -0.064,0.135 -0.1,0.2 a 8.608,8.608 0 0 0 -0.371,0.9 c -0.011,0.03 -0.022,0.059 -0.032,0.089 a 8.865,8.865 0 0 0 4.49,10.88 c 0.01,0.006 0.015,0.016 0.025,0.021 0.01,0.005 0.03,0.011 0.044,0.018 0.2,0.1 0.4,0.175 0.6,0.257 0.157,0.064 0.312,0.128 0.472,0.182 0.221,0.076 0.444,0.141 0.67,0.2 0.142,0.036 0.284,0.066 0.427,0.1 0.238,0.048 0.476,0.1 0.717,0.124 0.131,0.016 0.263,0.019 0.394,0.029 0.224,0.017 0.447,0.049 0.672,0.049 a 8.9,8.9 0 0 0 1.079,-0.072 z M 34.056,6.312 a 6.931,6.931 0 0 1 1.826,0.864 v 0 l -0.555,0.832 v 0 L 33.664,6.9 Z m -8.828,4.934 0.007,-0.027 a 6.944,6.944 0 0 1 0.217,-0.678 c 0.008,-0.023 0.016,-0.047 0.025,-0.07 0.078,-0.2 0.17,-0.4 0.267,-0.6 0.018,-0.035 0.032,-0.071 0.05,-0.106 a 6.92,6.92 0 0 1 0.382,-0.648 l 0.832,0.555 -0.555,0.832 a 1,1 0 0 0 0.277,1.387 l 0.832,0.554 -0.554,0.832 -1.93,-1.286 a 6.935,6.935 0 0 1 0.15,-0.745 z m 2.889,7.579 a 6.95,6.95 0 0 1 -2.963,-4.379 l 0.744,0.5 a 2,2 0 0 0 2.774,-0.554 L 29.227,13.56 A 2,2 0 0 0 28.672,10.786 2,2 0 0 0 28.117,8.013 l -0.59,-0.394 a 6.965,6.965 0 0 1 3.1,-1.478 7.08,7.08 0 0 1 1.258,-0.132 1.977,1.977 0 0 0 0.67,2.558 l 1.664,1.11 v 0 a 2,2 0 0 0 2.772,-0.555 l 0.394,-0.591 a 7.005,7.005 0 0 1 0.438,8.357 7.12,7.12 0 0 1 -0.62,0.788 l -1.6,-1.066 0.555,-0.831 A 2,2 0 0 0 35.6,13 L 34.768,12.445 A 2,2 0 0 0 32,13 Z m 1.829,0.862 3.718,-5.577 0.832,0.555 -0.555,0.832 a 2,2 0 0 0 0.555,2.774 l 0.832,0.554 -0.33,0.5 -0.079,0.037 q -0.222,0.1 -0.45,0.187 L 34.3,19.61 q -0.23,0.079 -0.462,0.143 c -0.054,0.015 -0.109,0.028 -0.163,0.041 -0.168,0.041 -0.336,0.078 -0.506,0.106 l -0.085,0.013 a 7.051,7.051 0 0 1 -3.138,-0.226 z"
       id="path2285"
       inkscape:connector-curvature="0"
       style="fill:#2f353a;fill-opacity:1" />
    <rect
       x="29"
       y="40"
       width="2"
       height="2"
       id="rect2287"
       style="fill:#2f353a;fill-opacity:1" />
    <path
       d="m 13.334,21.891 c 0.3,-0.045 0.589,-0.1 0.876,-0.176 0.066,-0.017 0.131,-0.032 0.2,-0.05 a 8.917,8.917 0 0 0 2.056,-0.859 l 0.039,-0.019 c 0.01,-0.006 0.017,-0.015 0.027,-0.021 a 8.895,8.895 0 0 0 4.395,-8.886 v 0 -0.025 a 8.908,8.908 0 0 0 -0.181,-0.972 c -0.009,-0.039 -0.02,-0.079 -0.03,-0.118 A 9.155,9.155 0 0 0 20.441,9.886 l -0.039,-0.1 A 8.886,8.886 0 0 0 19.994,8.874 V 8.866 A 9.038,9.038 0 0 0 18.857,7.179 C 18.809,7.123 18.757,7.072 18.709,7.017 18.544,6.832 18.373,6.654 18.193,6.483 18.113,6.408 18.032,6.335 17.95,6.263 17.785,6.117 17.613,5.978 17.437,5.844 17.348,5.776 17.26,5.707 17.168,5.644 16.954,5.494 16.733,5.355 16.506,5.224 16.459,5.196 16.416,5.162 16.367,5.135 L 16.35,5.128 A 8.987,8.987 0 0 0 3.079,11.872 v 0.005 0.015 c -0.017,0.134 -0.03,0.268 -0.04,0.4 C 3.014,12.542 3,12.778 3,13 c 0,0.3 0.016,0.6 0.045,0.889 0.014,0.137 0.039,0.27 0.059,0.4 0.022,0.153 0.04,0.306 0.07,0.458 0.037,0.185 0.087,0.365 0.135,0.546 0.025,0.1 0.045,0.194 0.074,0.289 0.062,0.206 0.137,0.407 0.213,0.607 0.023,0.06 0.04,0.122 0.064,0.182 l 0.008,0.012 a 9.014,9.014 0 0 0 7.2,5.533 v 0 h 0.015 c 0.133,0.017 0.268,0.03 0.4,0.04 0.247,0.022 0.482,0.036 0.706,0.036 a 9.057,9.057 0 0 0 1.086,-0.072 c 0.094,-0.001 0.176,-0.02 0.259,-0.029 z M 15,8 V 7 h 0.587 l 0.175,0.106 c 0.088,0.057 0.176,0.115 0.261,0.175 0.085,0.06 0.185,0.136 0.276,0.206 0.091,0.07 0.17,0.135 0.253,0.206 0.083,0.071 0.155,0.139 0.231,0.21 0.076,0.071 0.177,0.168 0.261,0.256 0.059,0.061 0.115,0.125 0.171,0.188 0.095,0.106 0.188,0.213 0.276,0.325 0.037,0.047 0.071,0.1 0.107,0.143 0.1,0.133 0.2,0.268 0.286,0.407 0.017,0.027 0.032,0.054 0.049,0.081 A 7.008,7.008 0 0 1 18.7,11 H 12 v -1 h 1 A 2,2 0 0 0 15,8 Z M 6,15 H 5.3 L 5.293,14.975 A 7.089,7.089 0 0 1 5.104,14.125 C 5.093,14.055 5.081,13.984 5.072,13.913 A 6.946,6.946 0 0 1 5,13 h 1 z m 4,4 v 0.7 A 7.02,7.02 0 0 1 6.245,16.97 2,2 0 0 0 8,15 V 13 A 2,2 0 0 0 6,11 H 5.3 A 6.928,6.928 0 0 1 13,6.081 V 8 h -1 a 2,2 0 0 0 -2,2 v 1 a 2,2 0 0 0 2,2 h 7 a 6.971,6.971 0 0 1 -2,4.889 V 17 a 2,2 0 0 0 -2,-2 h -1 a 2,2 0 0 0 -2,2 2,2 0 0 0 -2,2 z m 2.757,0.957 A 6.833,6.833 0 0 1 12,20 v -1 h 1 a 1,1 0 0 0 1,-1 v -1 h 1 v 2.315 l -0.048,0.023 q -0.3,0.139 -0.608,0.25 l -0.1,0.035 c -0.208,0.072 -0.42,0.131 -0.633,0.182 -0.034,0.008 -0.067,0.019 -0.1,0.026 -0.212,0.048 -0.427,0.082 -0.643,0.109 -0.037,0.006 -0.068,0.014 -0.111,0.018 z"
       id="path2289"
       inkscape:connector-curvature="0"
       style="fill:#2f353a;fill-opacity:1" />
    <rect
       x="9"
       y="40"
       width="2"
       height="2"
       id="rect2291"
       style="fill:#2f353a;fill-opacity:1" />
    <path
       d="m 53.748,21.827 c 0.2,-0.038 0.386,-0.09 0.576,-0.141 0.087,-0.024 0.174,-0.041 0.26,-0.067 0.209,-0.063 0.413,-0.139 0.615,-0.216 0.059,-0.023 0.119,-0.039 0.177,-0.062 l 0.012,-0.008 a 9.014,9.014 0 0 0 5.533,-7.2 V 14.128 14.11 c 0.017,-0.134 0.03,-0.269 0.04,-0.4 0.022,-0.247 0.036,-0.482 0.036,-0.7 A 9.027,9.027 0 0 0 60.925,11.925 C 60.914,11.84 60.899,11.755 60.886,11.67 Q 60.82,11.231 60.713,10.805 C 60.695,10.736 60.678,10.667 60.659,10.598 A 8.945,8.945 0 0 0 59.804,8.551 C 59.796,8.537 59.791,8.522 59.783,8.509 59.775,8.496 59.767,8.49 59.761,8.479 A 8.892,8.892 0 0 0 50.878,4.087 h -0.005 c -0.013,0 -0.026,0 -0.039,0.007 a 9.011,9.011 0 0 0 -0.951,0.177 l -0.134,0.035 a 8.683,8.683 0 0 0 -0.861,0.269 l -0.121,0.044 a 9.145,9.145 0 0 0 -0.892,0.4 L 47.849,5.032 A 9.041,9.041 0 0 0 46.17,6.165 c -0.06,0.05 -0.115,0.1 -0.173,0.157 -0.18,0.162 -0.355,0.329 -0.522,0.5 -0.078,0.082 -0.154,0.167 -0.229,0.252 -0.142,0.161 -0.277,0.328 -0.408,0.5 -0.071,0.093 -0.143,0.185 -0.211,0.282 -0.144,0.206 -0.278,0.419 -0.405,0.638 -0.031,0.054 -0.07,0.1 -0.1,0.157 a 0.18,0.18 0 0 0 -0.008,0.021 8.985,8.985 0 0 0 6.754,13.255 v 0 h 0.015 c 0.133,0.017 0.268,0.03 0.4,0.04 0.247,0.022 0.482,0.036 0.706,0.036 0.3,0 0.594,-0.016 0.888,-0.045 0.146,-0.014 0.288,-0.042 0.432,-0.063 0.144,-0.021 0.298,-0.039 0.439,-0.068 z m 4.59,-11.778 q 0.138,0.3 0.247,0.6 c 0.013,0.036 0.027,0.071 0.04,0.108 0.069,0.2 0.128,0.412 0.178,0.622 0.009,0.037 0.02,0.074 0.029,0.111 0.046,0.209 0.08,0.421 0.107,0.634 0.005,0.04 0.014,0.079 0.018,0.12 A 6.8,6.8 0 0 1 59,13 h -1 v -1 a 1,1 0 0 0 -1,-1 h -1 v -1 h 2.315 z M 46,9.414 c 0.035,-0.059 0.07,-0.118 0.107,-0.176 0.056,-0.087 0.114,-0.174 0.173,-0.259 0.059,-0.085 0.137,-0.187 0.208,-0.277 0.071,-0.09 0.134,-0.17 0.2,-0.252 0.066,-0.082 0.14,-0.157 0.212,-0.234 0.072,-0.077 0.165,-0.174 0.252,-0.257 0.063,-0.061 0.13,-0.119 0.2,-0.178 0.1,-0.092 0.208,-0.182 0.316,-0.268 0.051,-0.04 0.1,-0.077 0.156,-0.116 0.129,-0.1 0.259,-0.191 0.394,-0.277 0.031,-0.02 0.063,-0.038 0.095,-0.058 0.159,-0.1 0.32,-0.193 0.486,-0.279 L 48.812,6.777 A 6.99,6.99 0 0 1 50,6.3 V 13 H 49 V 12 A 2,2 0 0 0 47,10 H 46 Z M 50,19 v 0.7 A 6.928,6.928 0 0 1 45.08,12 H 47 v 1 a 2,2 0 0 0 2,2 h 1 a 2,2 0 0 0 2,-2 V 6 a 6.971,6.971 0 0 1 4.889,2 H 56 a 2,2 0 0 0 -2,2 v 1 a 2,2 0 0 0 2,2 2,2 0 0 0 2,2 h 0.7 A 7.02,7.02 0 0 1 55.97,18.755 2,2 0 0 0 54,17 h -2 a 2,2 0 0 0 -2,2 z m 2.913,0.933 A 6.946,6.946 0 0 1 52,20 v 0 -1 h 2 v 0.7 l -0.026,0.007 a 6.86,6.86 0 0 1 -0.85,0.189 c -0.07,0.018 -0.14,0.029 -0.211,0.038 z"
       id="path2293"
       inkscape:connector-curvature="0"
       style="fill:#2f353a;fill-opacity:1" />
    <rect
       x="49"
       y="40"
       width="2"
       height="2"
       id="rect2295"
       style="fill:#2f353a;fill-opacity:1" />
    <path
       d="M 60,45.026 V 32 H 44 V 44 H 40 V 32 H 24 V 44 H 20 V 32 H 4 V 45.026 A 4.983,4.983 0 0 0 7,54 h 50 a 4.983,4.983 0 0 0 3,-8.974 z M 56,34 h 2 v 2 h -2 z m 0,4 h 2 v 6 H 56 Z M 46,34 h 8 v 2 h -8 z m 0,4 h 8 v 6 H 46 Z M 36,34 h 2 v 2 h -2 z m 0,4 h 2 v 6 H 36 Z M 26,34 h 8 v 2 h -8 z m 0,4 h 8 v 6 H 26 Z M 16,34 h 2 v 2 h -2 z m 0,4 h 2 v 6 H 16 Z M 6,34 h 8 v 2 H 6 Z m 0,4 h 8 v 6 H 6 Z m 1,14 a 3,3 0 1 1 3,-3 3,3 0 0 1 -3,3 z m 21.026,0 H 10.974 a 4.9,4.9 0 0 0 0,-6 h 17.052 a 4.9,4.9 0 0 0 0,6 z M 32,52 a 3,3 0 1 1 3,-3 3,3 0 0 1 -3,3 z m 21.026,0 H 35.974 a 4.9,4.9 0 0 0 0,-6 h 17.052 a 4.9,4.9 0 0 0 0,6 z M 57,52 a 3,3 0 1 1 3,-3 3,3 0 0 1 -3,3 z"
       id="path2297"
       inkscape:connector-curvature="0"
       style="fill:#2f353a;fill-opacity:1" />
    <path
       d="M 57.56,48.17 A 0.776,0.776 0 0 0 57.38,48.08 0.646,0.646 0 0 0 57.2,48.02 1.046,1.046 0 0 0 56.29,48.29 0.933,0.933 0 0 0 56.08,48.62 1,1 0 0 0 56,49 a 0.99,0.99 0 0 0 1,1 1.369,1.369 0 0 0 0.2,-0.02 0.646,0.646 0 0 0 0.18,-0.06 0.776,0.776 0 0 0 0.18,-0.09 l 0.15,-0.12 a 1.014,1.014 0 0 0 0,-1.42 1.712,1.712 0 0 0 -0.15,-0.12 z"
       id="path2299"
       inkscape:connector-curvature="0"
       style="fill:#2f353a;fill-opacity:1" />
  </g>
</svg>
