<svg xmlns="http://www.w3.org/2000/svg" xmlns:xlink="http://www.w3.org/1999/xlink" version="1.1" x="0px" y="0px" viewBox="7.5 7.5 50 62.5" enable-background="new 7.5 7.5 50 50" xml:space="preserve"><path d="M50.032,25.276c-1.93,0-3.743,0.751-5.108,2.116C43.679,28.638,42.95,30.26,42.833,32h-3.135  c-0.247-3.584-3.114-6.452-6.698-6.699v-3.134c3.75-0.259,6.724-3.384,6.724-7.199c0-3.983-3.24-7.224-7.224-7.224  s-7.224,3.241-7.224,7.224c0,3.814,2.974,6.94,6.724,7.199V25.3c-1.741,0.119-3.362,0.846-4.608,2.092  c-1.246,1.246-1.973,2.868-2.091,4.608h-3.134c-0.258-3.75-3.384-6.725-7.199-6.725c-3.983,0-7.224,3.241-7.224,7.224  s3.241,7.224,7.224,7.224c3.814,0,6.94-2.974,7.199-6.724h3.134c0.118,1.74,0.845,3.362,2.092,4.608  c1.246,1.245,2.868,1.974,4.608,2.092v3.133c-3.75,0.258-6.725,3.384-6.725,7.199c0,3.983,3.241,7.224,7.224,7.224  s7.224-3.24,7.224-7.224c0-3.814-2.974-6.94-6.723-7.199v-3.134c3.583-0.247,6.45-3.115,6.697-6.699h3.135  c0.118,1.74,0.846,3.362,2.092,4.607c1.364,1.365,3.179,2.116,5.108,2.116c3.982,0,7.223-3.24,7.223-7.224  S54.016,25.276,50.032,25.276z M26.276,14.968c0-3.432,2.792-6.224,6.224-6.224c3.432,0,6.224,2.792,6.224,6.224  s-2.792,6.224-6.224,6.224C29.068,21.192,26.276,18.4,26.276,14.968z M14.968,38.724c-3.432,0-6.224-2.792-6.224-6.224  c0-3.432,2.792-6.224,6.224-6.224s6.224,2.792,6.224,6.224C21.192,35.932,18.4,38.724,14.968,38.724z M38.724,50.032  c0,3.432-2.792,6.224-6.224,6.224c-3.432,0-6.224-2.792-6.224-6.224c0-3.433,2.792-6.225,6.224-6.225  C35.932,43.808,38.724,46.6,38.724,50.032z M32.501,38.725c-1.662,0-3.226-0.647-4.401-1.823c-1.176-1.176-1.824-2.739-1.823-4.401  c0-1.662,0.647-3.225,1.823-4.401c1.176-1.176,2.739-1.824,4.401-1.824c3.432,0,6.224,2.792,6.224,6.225  S35.933,38.725,32.501,38.725z M50.033,38.724c-1.662,0-3.226-0.647-4.401-1.823s-1.823-2.738-1.823-4.4s0.646-3.225,1.822-4.401  s2.739-1.823,4.401-1.823c3.432,0,6.224,2.792,6.224,6.224C56.256,35.932,53.465,38.724,50.033,38.724z"/></svg>