<svg xmlns="http://www.w3.org/2000/svg" xmlns:xlink="http://www.w3.org/1999/xlink" version="1.1" x="0px" y="0px" viewBox="0 0 128 160" style="enable-background:new 0 0 128 128;" xml:space="preserve"><path d="M108.9945984,44C119.4906998,44,128,35.4931984,128,25s-8.5093002-19-19.0054016-19s-19.0048981,8.5067997-19.0048981,19  c0,4.7812996,1.7798004,9.1376991,4.6958008,12.4775009l-8.8735046,8.8701973  c-2.6386948-1.3867989-5.6376953-2.1806984-8.8261948-2.1806984c-8.3418045,0-15.411602,5.3818016-17.9696999,12.8554993  l-14.5390015-4.3614006V39.9238014C54.2700005,39.1571999,61.9818993,30.9862995,61.9818993,21  c0-10.4932003-8.509201-19-19.0052986-19s-19.0053997,8.5067997-19.0053997,19c0,9.6436005,7.1938,17.5898018,16.5049,18.8163986  v14.0371017L29.8467007,64.7519989c-3.0762005-2.1415977-6.8091011-3.4062996-10.841301-3.4062996  C8.5092802,61.3456993,0,69.8525009,0,80.3457031s8.5092802,19,19.0053997,19c10.4960995,0,19.0049-8.5068054,19.0049-19  c0-5.017601-1.9604988-9.5684052-5.1391983-12.9648056l10.5809975-10.8495979l14.671402,4.4002991  c-0.0858994,0.7344017-0.1425018,1.4776001-0.1425018,2.2354012c0,10.4932022,8.5087013,19,19.0048027,19  c1.1381989,0,2.2475967-0.1182022,3.3305969-0.3096008L86.5112,92.6952972  c-3.9912033,3.482399-6.5243988,8.592804-6.5243988,14.3047028c0,10.4932022,8.5093002,19,19.0054016,19  s19.0048981-8.5067978,19.0048981-19s-8.5088043-19-19.0048981-19c-3.3384018,0-6.4717026,0.8662033-9.1983032,2.3778992  l-5.5228958-9.6631012c6.8798981-2.8583984,11.7201996-9.6356964,11.7201996-17.5477982  c0-5.8418007-2.642601-11.0634995-6.7925034-14.5488014L97.6225967,40.1973C100.7963943,42.5741997,104.7240982,44,108.9945984,44z   M112.8305969,14.0781002c0.0077972,0.0038996,0.0166016,0.0049,0.0249023,0.0087996l2.4110947,1.2519999  c0.369606,0.1924,0.6704025,0.6543007,0.6704025,1.0351009v1.1269989L112.8305969,16.2451V14.0781002z M112.8305969,17  l3.1063995,1.2558994v1.3086014l-3.1063995-1.2549V17z M112.8305969,19.0664005l3.1063995,1.2538986V21.6299l-3.1063995-1.2558994  V19.0664005z M112.8305969,21.1317997l3.1063995,1.2549v1.3096008l-3.1063995-1.2559013V21.1317997z M112.8305969,23.1973  l3.1063995,1.2539005v1.3094997l-3.1063995-1.2548008V23.1973z M112.8305969,25.2616997l3.1063995,1.2539005v1.3115005  l-3.1063995-1.2558002V25.2616997z M112.8305969,27.3271008l3.1063995,1.2539997v1.3104992l-3.1063995-1.2558994V27.3271008z   M112.8305969,29.3915997l3.1063995,1.2567997v1.3086014l-3.1063995-1.2558002V29.3915997z M112.8305969,31.4570007  l3.1063995,1.2558975v1.3076019l-3.1063995-1.2538986V31.4570007z M101.9638977,21.3505993  c0-0.3827991,0.2587967-0.8974991,0.5810013-1.1532993l2.7901001-2.1993008  c0.0887985-0.0702991,0.1977005-0.1229992,0.3153992-0.1639996v2.2509995l-3.6865005,2.5586014V21.3505993z M101.9638977,23.5175991  l3.6865005-2.5595989V22.3223l-3.6865005,2.5585995V23.5175991z M101.9638977,25.7549l3.6865005-2.5596008v1.3652  L101.9638977,27.1201V25.7549z M101.9638977,27.9911995l3.6865005-2.5585995v1.3701l-3.6865005,2.7012005V27.9911995z   M101.9638977,30.3964996l3.6865005-2.7012005v1.3447018l-3.6865005,2.7031994V30.3964996z M101.9638977,32.6338005  l3.6865005-2.7012005v1.3437996l-3.6865005,2.7011013V32.6338005z M101.3808975,35.3115005h0.5830002v-0.4393997  l3.6865005-2.7012024v1.2725029l-2.5278015,1.8680992h1.2124023l1.3153992-0.972599v0.972599h0.7763977V17.7949009  c0.0634003,0.0155983,0.1245041,0.0341988,0.180603,0.0605984l1.6509018,0.7539005  c0.3822937,0.1737995,0.6913986,0.625,0.6913986,1.0088005v15.6933002h0.7763977v-18.9375  c0-0.3808002,0.2593002-0.892601,0.5791016-1.1465006l1.3012009-1.0283003  C111.7285004,14.1006002,111.8862,14.0361004,112.0551987,14v21.3115005h0.7753983v-1.7881012l3.1063995,1.2549019v0.5331993  h0.6718979c0.2139053,0,0.3882065,0.1533012,0.3882065,0.3437996c0,0.1903992-0.1743011,0.3446999-0.3882065,0.3446999h-0.6718979  h-6.2108994h-0.7763977h-5.546402h-1.1977005h-0.2416992h-0.5830002c-0.2138977,0-0.3881989-0.1543007-0.3881989-0.3446999  C100.9926987,35.4648018,101.1669998,35.3115005,101.3808975,35.3115005z M22.8412991,69.4237976  c0.0078011,0.0038986,0.0166016,0.0049057,0.0254002,0.0088043l2.4106007,1.2519989  c0.3691998,0.1923981,0.6704998,0.6542969,0.6704998,1.0351028v1.1269989l-3.1065006-1.2559052V69.4237976z M22.8412991,72.3457031  l3.1065006,1.2558975v1.3086014l-3.1065006-1.2549057V72.3457031z M22.8412991,74.4121017l3.1065006,1.2538986v1.3096008  l-3.1065006-1.2558975V74.4121017z M22.8412991,76.4775009l3.1065006,1.2548981v1.3096008l-3.1065006-1.2558975V76.4775009z   M22.8412991,78.5429993l3.1065006,1.2538986v1.3095016l-3.1065006-1.2547989V78.5429993z M22.8412991,80.607399  l3.1065006,1.2538986v1.3115997l-3.1065006-1.2558975V80.607399z M22.8412991,82.6728973l3.1065006,1.2539063v1.3104935  l-3.1065006-1.2558975V82.6728973z M22.8412991,84.7372971l3.1065006,1.2568054v1.3085938l-3.1065006-1.2557983V84.7372971z   M22.8412991,86.8026962l3.1065006,1.2559052v1.3076019l-3.1065006-1.2539063V86.8026962z M11.9750996,76.6962967  c0-0.3827972,0.2588005-0.8974991,0.5801001-1.1532974L15.3462,73.3438034  c0.0888996-0.0704041,0.1973-0.1231003,0.3154001-0.1641006v2.2509995l-3.6865005,2.5586014V76.6962967z M11.9750996,78.8632965  l3.6865005-2.5595932v1.364296l-3.6865005,2.5586014V78.8632965z M11.9750996,81.1006012l3.6865005-2.5596008v1.365303  l-3.6865005,2.559494V81.1006012z M11.9750996,83.3368988l3.6865005-2.5586014v1.3701019l-3.6865005,2.7012024V83.3368988z   M11.9750996,85.7422028l3.6865005-2.7012024v1.344696l-3.6865005,2.7032013V85.7422028z M11.9750996,87.9794998  l3.6865005-2.7012024v1.3438034l-3.6865005,2.7010956V87.9794998z M26.6196003,91.3457031h-0.6718006h-6.2110004h-0.7763996  h-5.5462999H12.2163h-0.2412004h-0.5834999c-0.2138996,0-0.3886995-0.1543045-0.3886995-0.3447037  c0-0.1904984,0.1747999-0.3437958,0.3886995-0.3437958h0.5834999v-0.4394073l3.6865005-2.7011948v1.2724991l-2.5283003,1.868103  h1.2124004l1.3158998-0.9726028v0.9726028h0.7754002V73.1406021c0.0634995,0.0157013,0.125,0.0341949,0.1807003,0.0606003  l1.6508999,0.7538986c0.3827991,0.1737976,0.6917992,0.625,0.6917992,1.0087967v15.693306h0.7763996v-18.9375  c0-0.380806,0.2588005-0.892601,0.5791016-1.1465073l1.3013-1.0282974c0.1220989-0.0986023,0.2792988-0.1631012,0.4481983-0.1991959  v21.3115005h0.7758999v-1.7881012l3.1065006,1.2548981v0.5332031h0.6718006c0.2138996,0,0.3876991,0.1532974,0.3876991,0.3437958  C27.0072994,91.1913986,26.8334999,91.3457031,26.6196003,91.3457031z M46.8125,10.0781002  c0.0078011,0.0038996,0.0166016,0.0049,0.0248985,0.0087996l2.4111023,1.2519999  c0.3696976,0.1924,0.6703987,0.6543007,0.6703987,1.0351v1.1270008L46.8125,12.2451V10.0781002z M46.8125,13l3.1063995,1.2559004  v1.3085995l-3.1063995-1.2549V13z M46.8125,15.0663996l3.1063995,1.2538996V17.6299L46.8125,16.3740005V15.0663996z   M46.8125,17.1317997l3.1063995,1.2549v1.3096008L46.8125,18.4403992V17.1317997z M46.8125,19.1973l3.1063995,1.2539005v1.3094997  L46.8125,20.5058994V19.1973z M46.8125,21.2616997l3.1063995,1.2539005v1.3115005L46.8125,22.5713005V21.2616997z   M46.8125,23.3271008l3.1063995,1.2539997v1.3104992L46.8125,24.6357002V23.3271008z M46.8125,25.3915997l3.1063995,1.2567997  v1.3086014L46.8125,26.7012005V25.3915997z M46.8125,27.4570007l3.1063995,1.2558994v1.3076L46.8125,28.7665997V27.4570007z   M35.9458008,17.3505993c0-0.3827991,0.2588005-0.8974991,0.5811005-1.1532993l2.7899971-2.1992998  c0.0889015-0.0703001,0.1977005-0.1230001,0.315403-0.1640005v2.2509995l-3.6865005,2.5586014V17.3505993z M35.9458008,19.5175991  l3.6865005-2.5595989V18.3223l-3.6865005,2.5585995V19.5175991z M35.9458008,21.7549l3.6865005-2.5596008v1.3652L35.9458008,23.1201  V21.7549z M35.9458008,23.9911995L39.6323013,21.4326v1.3701l-3.6865005,2.7012005V23.9911995z M35.9458008,26.3964996  l3.6865005-2.7012005v1.3447018l-3.6865005,2.7031994V26.3964996z M35.9458008,28.6338005L39.6323013,25.9326v1.3437996  l-3.6865005,2.7011013V28.6338005z M42.9315987,32h-5.546299H36.1875h-0.2416992h-0.5830002  c-0.2139015,0-0.3881989-0.1543007-0.3881989-0.3446999c0-0.1905003,0.1742973-0.3437996,0.3881989-0.3437996h0.5830002v-0.4393997  l3.6865005-2.7012005v1.2724991l-2.5278015,1.8681011h1.2123985l1.315403-0.9726009v0.9726009h0.7763977V13.7948999  c0.0634995,0.0156002,0.1245003,0.0341997,0.1807022,0.0606003L42.2402,14.6093998  c0.3824005,0.1738005,0.6913986,0.625,0.6913986,1.0088005v15.6933002h0.7764015v-18.9375  c0-0.3807993,0.2593002-0.8926001,0.5791016-1.1464996l1.3013-1.0283003c0.1219978-0.0985994,0.2797966-0.1630993,0.4487-0.1991997  v21.3115005H46.8125v-1.7881012l3.1063995,1.2549v0.5332012h0.671402c0.2143974,0,0.3886986,0.1532993,0.3886986,0.3437996  C50.9790001,31.8456993,50.8046989,32,50.5903015,32h-0.671402h-6.2108994H42.9315987z M102.8280945,96.0781021  c0.0078049,0.0038986,0.0166016,0.0048981,0.0249023,0.0087967l2.4106979,1.2519989  c0.369606,0.1924057,0.6709061,0.6543045,0.6709061,1.0351028v1.1269989l-3.1065063-1.2558975V96.0781021z M102.8280945,99  l3.1065063,1.2558975v1.3086014l-3.1065063-1.2548981V99z M102.8280945,101.0663986l3.1065063,1.2538986v1.3096008  l-3.1065063-1.2558975V101.0663986z M102.8280945,103.1317978l3.1065063,1.2549057v1.3095932l-3.1065063-1.2558975V103.1317978z   M102.8280945,105.1973038l3.1065063,1.2538986v1.309494l-3.1065063-1.2547989V105.1973038z M102.8280945,107.2617035  l3.1065063,1.2538986v1.3115005l-3.1065063-1.255806V107.2617035z M102.8280945,109.3271027l3.1065063,1.2539978v1.3105011  l-3.1065063-1.2559052V109.3271027z M102.8280945,111.3916016l3.1065063,1.2567978v1.3086014l-3.1065063-1.2557983V111.3916016z   M102.8280945,113.4570007l3.1065063,1.2558975v1.3076019l-3.1065063-1.2538986V113.4570007z M91.9614029,103.3506012  c0-0.3828049,0.2587967-0.8974991,0.5805969-1.1532974l2.7904968-2.1993027  c0.0889053-0.0703049,0.1977997-0.1230011,0.3154068-0.1640015v2.2509995l-3.6865005,2.5586014V103.3506012z M91.9614029,105.517601  l3.6865005-2.5596008v1.3643036l-3.6865005,2.5585938V105.517601z M91.9614029,107.7548981l3.6865005-2.5596008v1.3652039  l-3.6865005,2.5596008V107.7548981z M91.9614029,109.9912033l3.6865005-2.5586014v1.3700943l-3.6865005,2.7012024V109.9912033z   M91.9614029,112.3964996l3.6865005-2.7012024v1.3447037l-3.6865005,2.7032013V112.3964996z M91.9614029,114.6337967  l3.6865005-2.7011948v1.3437958l-3.6865005,2.7011032V114.6337967z M91.3778992,117.3115005h0.5835037v-0.4393997  l3.6865005-2.7012024v1.2724991l-2.5283051,1.868103h1.2124023l1.3159027-0.9726028v0.9726028h0.7758942V99.794899  c0.0634995,0.0156021,0.1245041,0.0342026,0.1807022,0.0606003l1.6509018,0.7538986  c0.3823013,0.1738052,0.6919022,0.625,0.6919022,1.0088043v15.6932983h0.775795v-18.9375  c0-0.3807983,0.2593002-0.892601,0.5791016-1.1464996l1.3013-1.0282974c0.1221008-0.0986023,0.2798004-0.1631012,0.4487-0.1992035  v21.3115005h0.7758942v-1.7881012l3.1065063,1.2548981v0.5332031h0.671402c0.2137909,0,0.388092,0.1532974,0.388092,0.3437958  c0,0.1904068-0.1743011,0.3447037-0.388092,0.3447037h-0.671402h-6.2115021h-0.775795h-5.546402h-1.1977997h-0.2416992h-0.5835037  c-0.2137985,0-0.3881989-0.1542969-0.3881989-0.3447037C90.9897003,117.464798,91.1641006,117.3115005,91.3778992,117.3115005z   M80.8218002,52.2450981c0.0077972,0.0039024,0.0166016,0.0049019,0.0253983,0.0088005l2.4111023,1.2520027  c0.3691025,0.1922989,0.669899,0.6542969,0.669899,1.035099v1.1269989l-3.1063995-1.2558975V52.2450981z M80.8218002,55.1669998  l3.1063995,1.2559013v1.3084984l-3.1063995-1.2547989V55.1669998z M80.8218002,57.2333984l3.1063995,1.2539024v1.3096008  l-3.1063995-1.2559013V57.2333984z M80.8218002,59.2988014l3.1063995,1.2548981v1.3096008l-3.1063995-1.2559013V59.2988014z   M80.8218002,61.3642998l3.1063995,1.2538986V63.9277l-3.1063995-1.2547989V61.3642998z M80.8218002,63.4286995l3.1063995,1.2539024  v1.3115005l-3.1063995-1.255806V63.4286995z M80.8218002,65.4941025l3.1063995,1.2538986v1.3106003l-3.1063995-1.2559052V65.4941025  z M80.8218002,67.5586014l3.1063995,1.2567978v1.3086014l-3.1063995-1.2557983V67.5586014z M80.8218002,69.6240005  l3.1063995,1.2558975V72.1875l-3.1063995-1.2538986V69.6240005z M69.9555969,59.517601  c0-0.3828011,0.2588043-0.8975029,0.5805054-1.1533012l2.790596-2.1992989  c0.0887985-0.0703011,0.1972046-0.1230011,0.3153992-0.1640015v2.2509995l-3.6865005,2.5585022V59.517601z M69.9555969,61.6846008  L73.6420975,59.125v1.3642998l-3.6865005,2.5586014V61.6846008z M69.9555969,63.9219017l3.6865005-2.5596008v1.3652  l-3.6865005,2.5596008V63.9219017z M69.9555969,66.1582031l3.6865005-2.5586014v1.3701019l-3.6865005,2.7011948V66.1582031z   M69.9555969,68.5634995l3.6865005-2.7012024v1.3447037l-3.6865005,2.7032013V68.5634995z M69.9555969,70.8007965  l3.6865005-2.7011948v1.3437958l-3.6865005,2.7011032V70.8007965z M84.6006012,74.1669998h-0.6724014h-6.2104034h-0.7768936  h-5.546402h-1.1977005h-0.2412033h-0.5830002c-0.2138977,0-0.3886948-0.1542969-0.3886948-0.344696  c0-0.190506,0.1747971-0.3438034,0.3886948-0.3438034h0.5830002v-0.4393997l3.6865005-2.7012024v1.2724991l-2.5277939,1.868103  h1.2123947l1.3153992-0.9726028v0.9726028h0.7759018V55.9618988c0.0634003,0.0156021,0.125,0.0342026,0.180603,0.0606003  l1.6508942,0.7539024c0.3828049,0.1737976,0.6914063,0.625,0.6914063,1.0087967v15.6933022h0.7768936v-18.9375  c0-0.3808022,0.2588043-0.892601,0.5791016-1.1464996l1.3012009-1.0283012  c0.1221008-0.0985985,0.2793045-0.1631012,0.4483032-0.1991997v21.3115005h0.7753983v-1.7881012l3.1063995,1.2548981v0.5332031  h0.6724014c0.2138977,0,0.3876953,0.1532974,0.3876953,0.3438034  C84.9882965,74.0127029,84.8144989,74.1669998,84.6006012,74.1669998z"/></svg>