<?xml version="1.0" encoding="UTF-8" standalone="no"?>
<!-- Created with Inkscape (http://www.inkscape.org/) -->

<svg
   xmlns:dc="http://purl.org/dc/elements/1.1/"
   xmlns:cc="http://creativecommons.org/ns#"
   xmlns:rdf="http://www.w3.org/1999/02/22-rdf-syntax-ns#"
   xmlns:svg="http://www.w3.org/2000/svg"
   xmlns="http://www.w3.org/2000/svg"
   xmlns:sodipodi="http://sodipodi.sourceforge.net/DTD/sodipodi-0.dtd"
   xmlns:inkscape="http://www.inkscape.org/namespaces/inkscape"
   version="1.1"
   id="svg10"
   width="1200"
   height="293.33334"
   viewBox="0 0 1200 293.33334"
   sodipodi:docname="eng-logo.svg"
   inkscape:version="0.92.4 (5da689c313, 2019-01-14)">
  <metadata
     id="metadata16">
    <rdf:RDF>
      <cc:Work
         rdf:about="">
        <dc:format>image/svg+xml</dc:format>
        <dc:type
           rdf:resource="http://purl.org/dc/dcmitype/StillImage" />
        <dc:title></dc:title>
      </cc:Work>
    </rdf:RDF>
  </metadata>
  <defs
     id="defs14" />
  <sodipodi:namedview
     pagecolor="#ffffff"
     bordercolor="#666666"
     borderopacity="1"
     objecttolerance="10"
     gridtolerance="10"
     guidetolerance="10"
     inkscape:pageopacity="0"
     inkscape:pageshadow="2"
     inkscape:window-width="1920"
     inkscape:window-height="1017"
     id="namedview12"
     showgrid="false"
     inkscape:snap-page="true"
     inkscape:zoom="1.4708333"
     inkscape:cx="600"
     inkscape:cy="146.66667"
     inkscape:window-x="-8"
     inkscape:window-y="-8"
     inkscape:window-maximized="1"
     inkscape:current-layer="svg10" />
  <g
     id="g20"
     transform="translate(-1.0764872e-7,12.917843)">
    <path
       style="fill:#9ca0a2;stroke-width:1.33333337"
       d="m 555.15295,267.95941 c -9.29542,-2.86779 -16.9235,-9.55067 -21.76119,-19.06478 -4.23473,-8.32828 -4.62849,-10.09202 -4.61385,-20.66666 0.0133,-9.54997 0.60576,-12.83709 3.40593,-18.89463 7.31277,-15.81951 17.72937,-22.82524 35.3102,-23.74799 13.40229,-0.70344 22.55373,1.99557 30.22919,8.91543 5.58982,5.03954 10.19729,13.35716 10.24749,18.49922 0.0283,2.90114 -0.38516,3 -12.5466,3 -12.41592,0 -12.61164,-0.0503 -15.38847,-3.94992 -5.7475,-8.07162 -16.78484,-6.29825 -20.81369,3.34414 -2.80767,6.71971 -2.44396,20.34537 0.67983,25.46833 3.54485,5.81347 10.26268,7.94018 16.65054,5.27116 5.94702,-2.48482 6.12584,-4.50174 0.44767,-5.04922 -4.3056,-0.41514 -4.33595,-0.46876 -4.74204,-8.38059 -0.54733,-10.66367 0.56033,-11.37557 17.66355,-11.35236 21.20528,0.0288 19.41182,-2.12648 19.41182,23.32799 0,24.30925 0.42918,23.32048 -10.12209,23.32048 -4.14001,0 -6.54884,-0.75312 -8.06224,-2.52064 -2.11297,-2.46778 -2.25603,-2.46295 -6.82049,0.23016 -5.31758,3.13744 -22.10306,4.43186 -29.17556,2.24988 z M 1148,268.15295 c -16.3901,-5.33041 -25.4062,-16.6056 -27.3829,-34.24405 -2.4145,-21.54542 8.8758,-41.35199 26.5667,-46.6056 8.7981,-2.61278 22.7912,-2.49808 30.8651,0.25297 9.1785,3.12743 18.1717,12.45751 20.0442,20.79508 0.7845,3.49324 1.1345,6.64324 0.7778,7 -0.3568,0.35676 -5.8151,0.64865 -12.1295,0.64865 -11.0414,0 -11.6129,-0.1504 -14.9283,-3.92869 -4.211,-4.79899 -9.2576,-6.23441 -14.4121,-4.09933 -6.0356,2.50002 -8.4254,9.03461 -7.8597,21.49119 0.4196,9.24114 0.8988,10.91629 4.0131,14.0306 2.6691,2.6691 4.8689,3.53654 8.9687,3.53654 8.202,0 13.1827,-5.09344 5.8102,-5.94174 -3.5254,-0.40564 -3.6821,-0.751 -4.0691,-8.96715 -0.2795,-5.93419 0.1279,-8.88168 1.3333,-9.64625 1.9979,-1.26722 29.1296,-1.54658 32.2934,-0.33251 1.8038,0.69215 2.1091,3.95304 2.1091,22.52401 0,24.15208 0.3318,23.33334 -9.4554,23.33334 -3.504,0 -5.9586,-0.84234 -7.4165,-2.54508 -2.1401,-2.49943 -2.2774,-2.49375 -7.6536,0.31725 -5.8839,3.07636 -21.2432,4.40731 -27.4745,2.38077 z M 67.202812,266.67067 C 57.864259,265.30138 51.518284,263.13063 41.188237,257.77194 31.298048,252.64142 22.0031,244.81903 23.301199,242.71867 24.604815,240.60938 140.28455,240.81789 142.4,242.93334 c 0.96375,0.96375 1.6,5.62963 1.6,11.73333 0,6.10371 -0.63625,10.76959 -1.6,11.73334 -1.80813,1.80813 -63.204503,2.02912 -75.197188,0.27066 z m 119.074118,0.23158 c -1.25232,-0.23711 -2.30057,-0.53711 -2.32945,-0.66667 -0.0289,-0.1296 -0.39173,-4.5076 -0.80632,-9.72896 -1.31917,-16.61377 -7.03056,-15.17328 60.1604,-15.17328 43.12095,0 58.12296,0.40219 58.84948,1.57771 2.75345,4.4552 -21.98643,19.30454 -37.48437,22.49884 -7.16715,1.47722 -71.95514,2.71064 -78.38974,1.49236 z m 181.38974,-0.30416 c -2.13419,-1.278 -2.33334,-4.6121 -2.33334,-39.06434 0,-27.51884 0.43107,-38.09815 1.6,-39.26708 1.15074,-1.15073 10.12291,-1.6 31.9531,-1.6 34.37213,0 33.11357,-0.41773 33.11357,10.99084 0,9.77083 -0.91495,10.24236 -20.66667,10.65076 L 394,208.66667 V 212 c 0,3.32367 0.0444,3.33527 15.33333,4 l 15.33334,0.66667 v 10 10 L 409.33333,237.33334 394,238.00001 v 4 4 l 18,0.35744 c 20.56949,0.40845 21.34681,0.8059 21.31292,10.8974 -0.0351,10.42309 1.18357,10.03786 -32.92915,10.40949 -19.40369,0.21137 -31.22698,-0.17395 -32.7171,-1.06625 z m 77.31365,0.47902 c -2.19196,-0.57156 -2.32885,-3.32184 -2,-40.17866 l 0.35301,-39.56511 9.9843,-0.39816 c 5.49137,-0.21899 11.28872,-0.0708 12.883,0.32937 1.90242,0.47748 6.71964,6.67581 14.0157,18.03405 6.11435,9.51859 11.4878,17.32038 11.94102,17.3373 0.4532,0.0169 0.52428,-6.7612 0.15794,-15.06251 -0.90744,-20.56299 -0.68605,-20.90672 13.46495,-20.90672 6.79315,0 11.63344,0.61368 12.61976,1.6 1.16897,1.16897 1.6,11.75253 1.6,39.28643 0,43.23279 0.88524,40.46109 -12.91235,40.42871 -12.8994,-0.0303 -13.09029,-0.17336 -25.5972,-19.18339 L 470,231.33334 l -0.35943,16.66667 c -0.29634,13.74133 -0.75062,16.9592 -2.58817,18.33333 -2.13624,1.59748 -16.89124,2.09469 -22.07208,0.74377 z M 625,267.08111 c -2.15531,-0.56324 -2.33333,-3.5925 -2.33333,-39.70268 0,-34.41763 0.25222,-39.18969 2.10905,-39.90223 3.87615,-1.48741 22.62307,-0.8772 24.29095,0.79068 1.16897,1.16898 1.6,11.75254 1.6,39.28643 0,35.89486 -0.12254,37.75203 -2.57902,39.06667 -2.52337,1.35047 -18.46602,1.66889 -23.08765,0.46113 z m 41.47017,0.0264 c -1.20808,-0.32088 -2.54989,-1.90128 -2.9818,-3.512 -1.40846,-5.25257 -0.91,-71.60559 0.55854,-74.34957 1.19418,-2.23135 2.8568,-2.57627 12.33333,-2.5586 6.0242,0.0107 11.61021,0.46122 12.41335,1 0.80314,0.53877 6.65314,8.77601 13,18.305 6.34686,9.52897 11.57381,16.72897 11.61546,16 0.0416,-0.72899 0.009,-8.12482 -0.0721,-16.4352 -0.0961,-9.83024 0.40028,-15.77027 1.42088,-17 2.01772,-2.43122 22.59544,-2.67032 24.97555,-0.29022 1.16897,1.16898 1.6,11.75254 1.6,39.28643 0,35.89486 -0.12254,37.75203 -2.57902,39.06667 -3.21882,1.72265 -19.44992,1.81536 -22.60077,0.12907 -1.2858,-0.68814 -7.39635,-8.8906 -13.57901,-18.22768 l -11.2412,-16.97654 -0.35943,16.56103 c -0.29609,13.6424 -0.75221,16.85473 -2.58817,18.22768 -2.11136,1.57888 -16.91655,2.10171 -21.91556,0.77392 z m 88.9584,-1.20249 c -1.80401,-1.80427 -2.09524,-7.23431 -2.09524,-39.06692 0,-26.97778 0.4325,-37.40392 1.6,-38.57143 2.26975,-2.26975 61.19692,-2.26975 63.46667,0 1.65951,1.65951 2.20983,13.92605 0.79068,17.62428 C 818.50844,207.66886 815.5776,208 800.52401,208 h -17.85734 v 4 4 h 14.61976 c 16.58034,0 17.38024,0.49092 17.38024,10.66667 0,10.17575 -0.7999,10.66667 -17.38024,10.66667 h -14.61976 v 4.63005 4.63007 l 19,0.36993 19,0.36995 0.40472,8.63236 c 0.32734,6.98224 -0.04,8.95751 -1.92151,10.33333 -1.72089,1.25835 -10.04176,1.70098 -31.97615,1.70098 -25.17669,0 -29.96602,-0.31611 -31.74516,-2.09524 z m 79.0416,1.20249 c -1.20808,-0.32088 -2.54989,-1.90128 -2.9818,-3.512 -1.40846,-5.25257 -0.91,-71.60559 0.55854,-74.34957 1.30277,-2.43424 3.0899,-2.57902 31.83674,-2.57902 24.60924,0 30.75662,0.36163 32.01974,1.88359 0.94016,1.13283 1.40381,5.25147 1.16325,10.33333 l -0.39997,8.4495 -18.33334,0.37096 L 860,208.07526 V 212.03763 216 h 14.4 c 9.42223,0 14.95308,0.55308 16,1.6 0.88,0.88 1.6,4.96001 1.6,9.06667 0,4.10667 -0.72,8.18667 -1.6,9.06667 -1.04807,1.04807 -6.59655,1.6 -16.08448,1.6 h -14.48448 l 0.41781,4.33333 0.41782,4.33334 18.66666,0.66666 18.66667,0.66667 0.40472,8.63236 c 0.32735,6.98224 -0.04,8.95751 -1.92151,10.33333 -1.7323,1.2667 -9.6652,1.66148 -31.07138,1.54631 -15.80984,-0.0851 -29.73359,-0.4172 -30.94166,-0.73808 z m 75.98927,-0.003 c -1.21399,-0.32202 -2.49053,-1.90242 -2.83679,-3.512 -1.39898,-6.50327 -0.26817,-74.14767 1.26516,-75.68101 1.08392,-1.08392 9.08524,-1.39084 27.3225,-1.04808 24.33646,0.45739 26.16145,0.6721 32.38706,3.8103 8.16831,4.11748 11.49248,8.54992 12.39108,16.52226 0.8262,7.33011 -2.45301,17.14347 -6.72958,20.1389 l -2.85222,1.99812 3.10419,2.17425 c 4.52039,3.16622 6.82249,9.87111 6.82249,19.87058 0,4.83844 0.60763,9.9325 1.35028,11.32017 1.9511,3.64564 -1.95628,5.30167 -12.50916,5.30167 -14.15754,0 -14.97057,-0.65282 -15.88588,-12.75522 -0.4704,-6.21981 -1.5345,-11.06214 -2.68336,-12.211 -1.0471,-1.0471 -4.83664,-2.00806 -8.42118,-2.13546 l -6.51736,-0.23166 -0.36911,12 c -0.28713,9.33482 -0.86197,12.37016 -2.58817,13.66667 -2.1097,1.58452 -18.1755,2.11788 -23.24995,0.77185 z m 42.11199,-49.20043 c 4.9848,-4.9848 -0.63062,-10.33646 -10.12919,-9.65342 -5.76637,0.41466 -5.77623,0.42435 -6.18557,6.08199 l -0.41,5.66667 h 7.31476 c 4.87201,0 8.01446,-0.69971 9.41,-2.09524 z m 43.23208,49.20249 c -1.20808,-0.32088 -2.5499,-1.90128 -2.9818,-3.512 -1.40847,-5.25257 -0.91,-71.60559 0.55853,-74.34957 1.20344,-2.24866 2.87725,-2.57902 13.06666,-2.57902 7.3117,0 12.2854,0.59895 13.2864,1.6 1.169,1.16898 1.6,11.75254 1.6,39.28643 0,35.89486 -0.1225,37.75203 -2.579,39.06667 -2.4947,1.33512 -18.4811,1.67469 -22.95079,0.48749 z m 41.52979,-0.0788 c -1.1,-0.41873 -2.4408,-1.42136 -2.9796,-2.22806 -1.5593,-2.33483 -1.2247,-72.59363 0.3599,-75.55441 1.1963,-2.23532 2.8716,-2.57901 12.5714,-2.57901 8.0159,0 11.7416,0.55041 13.1311,1.93991 1.067,1.06696 6.6598,9.2445 12.4286,18.17233 l 10.4886,16.23242 0.3764,-16.4209 c 0.2135,-9.31524 1.0054,-17.17877 1.8299,-18.17233 0.9878,-1.19023 5.0177,-1.75143 12.5767,-1.75143 9.6326,0 11.3082,0.34561 12.5035,2.57901 1.7522,3.27419 1.8381,73.29901 0.093,76.05838 -1.6034,2.53561 -19.7873,3.64196 -23.8779,1.45277 -1.5596,-0.83468 -7.7855,-9.13665 -13.8354,-18.44884 L 1062,231.37675 l -0.3594,16.64496 c -0.2963,13.721 -0.751,16.93774 -2.5882,18.31163 -2.2362,1.67227 -17.84,2.17144 -21.7191,0.69481 z M 14.042933,233.85246 c -2.683669,-2.68367 -8.7095997,-14.44467 -8.7095997,-16.99882 0,-1.04592 0.9490726,-2.26586 2.10905,-2.71098 3.8077117,-1.46116 131.1959367,-0.91832 133.9786067,0.57092 2.10113,1.12449 2.57901,2.83372 2.57901,9.22429 0,13.3154 6.72384,12.06214 -64.71408,12.06214 -56.233655,0 -63.328995,-0.23355 -65.242987,-2.14755 z m 170.845957,1.25865 C 184.4,234.62223 184,229.82223 184,224.44445 v -9.77778 h 68.66667 c 77.23717,0 71.23285,-0.97548 65.3579,10.61818 -5.76596,11.37858 -1.38453,10.71516 -70.76569,10.71516 -33.8146,0 -61.88111,-0.4 -62.36999,-0.8889 z M 2.0773597,206.79184 c -0.4186608,-0.67741 -1.14887481,-4.9407 -1.62269781,-9.474 -0.66242256,-6.33772 -0.42935906,-8.51594 1.00858761,-9.42634 1.0285461,-0.6512 32.8466175,-1.19319 70.7068235,-1.20442 57.688797,-0.0171 69.089897,0.28463 70.399977,1.86318 0.94016,1.13282 1.40382,5.25146 1.16326,10.33333 l -0.39998,8.44975 -70.247382,0.34508 C 31.152867,207.8844 2.5317472,207.52706 2.0773597,206.79184 Z M 184.04691,205.42099 c -1.73954,-3.25035 -1.77922,-10.86468 -0.0799,-15.33419 l 1.30029,-3.42013 h 69.95431 c 52.67271,0 70.19675,0.39225 70.93564,1.58783 1.26785,2.05142 0.73497,12.31189 -0.85687,16.49874 L 324.066,208 h -69.31943 c -67.16946,0 -69.36222,-0.08 -70.69966,-2.57901 z M 0.90819615,180.33334 C -0.55049297,177.82922 4.2730524,157.86627 8.0207689,150.89691 10.25776,146.73695 23.534251,128.63334 37.524083,110.66667 51.513913,92.700002 72.644108,65.442013 84.480069,50.093361 106.59835,21.410784 113.39524,14.747887 128.19838,7.2368696 c 5.3603,-2.719783 22.49145,-7.23252017 27.46829,-7.23577845 1.2996,-8.5083954e-4 1.66666,9.66641775 1.66666,43.89491885 v 43.896009 l -13.68802,17.770661 c -7.52842,9.77386 -23.81434,30.82066 -36.19094,46.77066 l -22.502913,29 H 43.221085 c -22.951705,0 -41.9925051,-0.45 -42.31288885,-1 z m 239.52637385,-2 c -3.11137,-3.46102 -65.4422,-84.013719 -68.83889,-88.963346 -2.00929,-2.927931 -2.26007,-7.924059 -2.24193,-44.666668 0.0107,-22.753496 0.50532,-42.1340221 1.09796,-43.0678358 1.5858,-2.49869221 18.66444,1.3256411 29.54829,6.6166021 11.65231,5.6645267 25.42219,19.7547777 47.31377,48.4145757 9.52258,12.466667 28.90294,37.596509 43.06746,55.844092 14.16452,18.24758 27.14562,35.94759 28.8469,39.33334 3.9057,7.77278 8.18006,24.30036 7.04771,27.2512 -0.77831,2.02825 -4.71533,2.23804 -42.00157,2.23804 -40.97859,0 -41.15352,-0.012 -43.8397,-3 z"
       id="path32"
       inkscape:connector-curvature="0" />
    <path
       style="fill:#d95f8d;stroke-width:1.33333337"
       d="m 554,265.70905 c -8.79639,-3.01947 -18.15831,-12.32954 -21.1104,-20.99347 -2.91084,-8.54284 -2.90491,-24.90571 0.012,-33.46674 3.32021,-9.74426 13.84561,-19.7559 23.81732,-22.65476 18.63575,-5.41756 37.26153,0.35535 45.61429,14.13776 6.79428,11.21087 6.38304,11.93483 -6.7796,11.93483 -10.64853,0 -11.26078,-0.16593 -14.65076,-3.9706 -4.1758,-4.68663 -8.85862,-6.14361 -14.52382,-4.51885 -6.86387,1.96853 -9.63255,7.16473 -10.17434,19.09491 -0.58314,12.84128 1.98507,19.44097 8.64879,22.22525 5.65147,2.36133 7.74104,2.3116 13.27823,-0.31596 6.04114,-2.86671 6.14934,-6.85679 0.2015,-7.43027 -4.31298,-0.41585 -4.33333,-0.45224 -4.33333,-7.75114 v -7.33334 l 17,-0.37317 17,-0.37316 v 20.56384 c 1.2e-4,22.66177 0.18861,22.18249 -8.72365,22.18249 -2.91624,0 -5.46343,-1.02802 -7.22068,-2.91421 l -2.715,-2.91421 -5.52598,3.10576 c -7.3626,4.13802 -20.61584,4.92261 -29.81457,1.76504 z m 592.6258,0.32341 c -7.5682,-2.43373 -16.5501,-10.01683 -20.0951,-16.96559 -5.836,-11.43961 -5.8026,-30.75967 0.073,-42.27715 6.8794,-13.4848 21.7228,-20.97553 39.2903,-19.8279 10.7246,0.7006 17.8692,3.80448 24.3716,10.58801 3.9341,4.1042 8.4009,12.47356 8.4009,15.74068 0,0.83677 -4.3899,1.37616 -11.2,1.37616 -11.0222,0 -11.2741,-0.0741 -15.8667,-4.66667 -3.491,-3.49106 -5.8011,-4.66666 -9.17,-4.66666 -9.6069,0 -14.883,7.73206 -15.0122,22 -0.1096,12.10691 2.9429,17.81657 11.0373,20.64579 5.2592,1.83818 6.0131,1.79072 10.5879,-0.66667 6.6137,-3.55256 7.2377,-6.99197 1.3707,-7.55532 -4.3812,-0.42069 -4.4166,-0.48012 -4.8135,-8.09047 l -0.3999,-7.66666 H 1182.6002 1200 v 21.33333 21.33333 h -6.6147 c -5.085,0 -7.2426,-0.67394 -9.3297,-2.91421 l -2.715,-2.91421 -5.526,3.10576 c -6.9562,3.90961 -20.5097,4.87937 -29.1887,2.08845 z M 184.88889,265.77778 C 184.4,265.2889 184,259.95309 184,253.92043 c 0,-8.77181 0.42237,-11.13053 2.10905,-11.77777 3.7396,-1.43503 113.05891,-0.88037 115.22428,0.58461 4.74758,3.21198 -19.04197,18.17402 -34.80414,21.88948 -6.48732,1.52919 -17.17411,2.01523 -44.6403,2.03022 -19.86112,0.0107 -36.51112,-0.3803 -37,-0.86919 z M 59.0194,263.27789 C 46.537811,259.91645 26.666667,248.43725 26.666667,244.5883 c 0,-1.68647 7.709865,-1.90324 57,-1.60261 l 57.000003,0.34765 0.38725,11 0.38725,11 -37.72058,-0.0877 C 75.684873,265.18041 64.207711,264.67517 59.0194,263.2779 Z m 308.53616,1.16656 c -0.48889,-0.48888 -0.88889,-17.21542 -0.88889,-37.17007 0,-29.17504 0.35944,-36.5795 1.83517,-37.80424 1.28303,-1.06483 10.6098,-1.41482 31,-1.16327 l 29.16483,0.3598 V 197.33334 206 l -18,0.66667 -18,0.66667 V 212 216.66667 L 408,217.33334 423.33333,218 v 8.66667 8.66667 L 408,236.00001 l -15.33333,0.66666 v 5.33334 5.33333 l 19,0.36995 19,0.36993 v 8.63007 8.63005 h -31.11111 c -17.11112,0 -31.51112,-0.4 -32,-0.88889 z m 76.75724,-37.39223 0.35387,-38.38555 8.62553,-0.40455 c 4.74404,-0.22249 10.00533,-0.0583 11.69176,0.36504 2.11727,0.5314 6.81443,6.53692 15.17707,19.40455 6.66094,10.24923 12.63317,18.63496 13.27161,18.63496 0.63845,0 1.32728,-8.55 1.53075,-19 l 0.36994,-19 10.12662,-0.38569 c 7.46525,-0.28434 10.53706,0.1088 11.68841,1.49614 1.12945,1.36091 1.46349,11.98675 1.20671,38.3857 L 518,264.66667 H 506 494 L 482,246.3525 c -6.6,-10.07279 -12.53032,-18.14601 -13.17849,-17.94049 -0.64818,0.20552 -1.24818,8.44689 -1.33334,18.31416 l -0.15484,17.9405 -11.6872,0.38555 -11.6872,0.38553 z M 624,227.52602 c 0,-33.33659 0.25431,-38.00496 2.10905,-38.7167 4.21652,-1.61802 20.1814,-0.8692 21.74943,1.02016 1.07383,1.29388 1.41439,12.51646 1.16325,38.33334 l -0.35506,36.50385 -12.33334,0.38338 L 624,265.43341 Z m 41.64613,-0.4738 0.35387,-38.38555 8.62553,-0.40455 c 4.74404,-0.22249 9.91831,-0.08 11.49839,0.31651 1.86172,0.46727 7.19447,7.29699 15.15133,19.40455 6.75318,10.27592 12.86831,18.68349 13.5892,18.68349 0.83972,0 0.97268,-6.21844 0.36999,-17.30536 -0.71337,-13.12292 -0.53396,-17.79548 0.74235,-19.33333 2.25816,-2.72091 20.32296,-2.87995 22.54836,-0.1985 1.07382,1.29388 1.41438,12.51646 1.16325,38.33334 l -0.35507,36.50385 h -12 -12 l -12.08309,-18 c -6.64571,-9.9 -12.63335,-18 -13.30588,-18 -0.67975,0 -1.23497,7.99379 -1.25024,18 l -0.0275,18 -11.6872,0.38555 -11.6872,0.38553 0.35387,-38.38553 z m 89.83898,36.19584 c -0.45015,-1.17305 -0.81844,-17.86375 -0.81844,-37.09044 0,-25.41148 0.43692,-35.39454 1.6,-36.55762 2.26666,-2.26666 58.53333,-2.26666 60.8,0 1.67392,1.67392 2.18416,11.32628 0.79068,14.95762 -0.68196,1.77717 -3.60518,2.10905 -18.57682,2.10905 -16.59649,0 -17.82328,0.17575 -18.61386,2.66667 -0.46551,1.46666 -0.47164,3.84733 -0.0136,5.29037 0.75288,2.37211 2.26394,2.6598 15.75652,3 L 811.33333,218 v 8.66667 8.66667 l -14.98552,0.37687 c -14.55857,0.36613 -15.00836,0.46785 -15.78706,3.57044 -0.44084,1.75646 -0.41208,4.42061 0.0639,5.92033 0.81062,2.55399 2.0644,2.75017 19.78707,3.09623 l 18.92165,0.36946 v 8 8 l -31.51489,0.35711 c -27.86589,0.31576 -31.60965,0.11013 -32.33333,-1.77572 z m 78.1611,-36.24805 0.35379,-38.33334 28,-0.37731 c 15.4,-0.20752 29.37815,-0.0391 31.06256,0.37444 2.84261,0.69776 3.03412,1.34724 2.66667,9.04398 L 895.33333,206 877,206.37096 l -18.33333,0.37096 v 5.29571 5.29571 h 14.4 c 9.42222,0 14.95308,0.55308 16,1.6 0.88,0.88 1.6,4.36 1.6,7.73333 0,3.37334 -0.72,6.85334 -1.6,7.73334 -1.04796,1.04796 -6.59482,1.6 -16.07667,1.6 h -14.47667 l 0.41,5.66666 0.41,5.66667 18.66667,0.66667 18.66667,0.66666 0.39696,8.33334 0.39694,8.33333 h -32.08406 -32.08407 z m 75.99992,0.0503 0.35387,-38.3836 16.55347,-0.37613 c 20.80033,-0.47264 37.16386,1.27713 43.72054,4.67509 10.56122,5.47329 12.69824,22.03779 4.10574,31.82412 l -4.10667,4.67723 4.23195,4.36627 c 3.34808,3.45433 4.36384,5.80741 4.86346,11.2665 0.34732,3.79514 0.90587,9.92243 1.24119,13.6162 l 0.60968,6.71595 -12.27635,-0.38261 -12.27634,-0.38262 -0.73427,-10.35332 c -0.92952,-13.10629 -2.48511,-14.90216 -12.94713,-14.94713 l -7.65194,-0.0329 -0.66666,12.66667 -0.66667,12.66666 -12.35387,0.38364 -12.35385,0.38364 0.35385,-38.38364 z m 44.25863,-7.81221 c 3.12863,-3.12863 2.59703,-8.18118 -1.11683,-10.61458 -2.17482,-1.425 -5.51162,-1.97312 -10.33333,-1.6974 l -7.12127,0.40726 -0.40301,7 -0.40301,7 h 8.6411 c 6.07778,0 9.26266,-0.62153 10.73635,-2.09524 z m 41.07471,7.81225 0.35386,-38.38364 10.79477,-0.38393 c 8.032,-0.28568 11.1941,0.0972 12.355,1.49613 1.1276,1.35867 1.4619,12.00401 1.2053,38.38395 l -0.3551,36.50385 -12.3538,0.38364 -12.35389,0.38364 z m 41.33333,0.001 0.3539,-38.38498 8.6255,-0.40455 c 4.744,-0.22249 9.9298,-0.0772 11.524,0.32294 1.9066,0.47853 7.065,7.1385 15.0744,19.46266 6.6968,10.30436 12.7403,18.38641 13.4301,17.96011 0.7468,-0.46156 0.9259,-7.63636 0.4428,-17.73669 -0.9858,-20.60802 -1.0123,-20.56752 13.1132,-19.99871 l 9.79,0.39424 0.3538,38.33334 0.3537,38.33333 -11.6871,-0.0341 -11.6871,-0.0341 -12.4249,-18.76317 c -6.8337,-10.31975 -12.8337,-18.35259 -13.3334,-17.85076 -0.4996,0.50184 -0.9084,8.81061 -0.9084,18.46396 v 17.55153 l -11.6872,0.38555 -11.6872,0.38553 0.3539,-38.38553 z m -850.03569,8.03653 c -2.06396,-0.55216 -2.33647,-1.94159 -2,-10.19733 l 0.38956,-9.55751 67.25418,-0.34582 c 37.91772,-0.19496 67.77055,0.17055 68.43794,0.83794 0.68941,0.68941 -0.2075,3.89613 -2.14784,7.67913 -6.09835,11.8897 0.54585,10.76599 -68.21095,11.53628 -33.73333,0.37792 -62.40863,0.39947 -63.72289,0.0479 z M 17.148947,233.77626 C 15.305827,233.28595 6.6666667,219.30568 6.6666667,216.81336 6.6666667,216.36602 36.926235,216 73.910149,216 c 62.891501,0 67.287821,0.15102 67.928681,2.33334 0.92048,3.13461 0.28673,12.63945 -0.97935,14.68803 -0.78449,1.26933 -14.78589,1.60996 -61.271503,1.49064 -33.140054,-0.0851 -61.237617,-0.41616 -62.43903,-0.73575 z M 184.88889,207.11111 c -1.7036,-1.7036 -1.00053,-19.102 0.77778,-19.24712 7.90678,-0.64529 138.87146,-0.35545 139.94773,0.30972 1.88817,1.16696 0.67623,15.06625 -1.54732,17.74547 -1.52372,1.83597 -9.76155,2.08082 -70.00812,2.08082 -37.55465,0 -68.68119,-0.4 -69.17007,-0.88889 z M 2.8670915,204.33334 C 2.1923889,203.05 1.2142424,198.84467 0.69343251,194.98815 l -0.94692704,-7.01185 70.46008153,0.34518 70.460083,0.34519 0.39425,9 0.39425,9 H 72.774499 c -64.0539519,0 -68.7633153,-0.15719 -69.9074075,-2.33333 z M 241.66667,178.99144 c -1.28334,-1.28805 -17.93334,-22.43805 -37,-47 L 170,87.333335 v -42.88889 c 0,-23.588889 0.30676,-43.1956499 0.68169,-43.57057929 0.37492,-0.37492943 4.87492,0.17934449 10,1.23171989 12.00858,2.4658264 26.59606,9.6389004 35.03859,17.2294694 8.57308,7.707936 96.84471,121.412005 102.55103,132.097575 5.44168,10.19005 9.19889,25.32595 6.95718,28.02703 -1.27214,1.53284 -8.80162,1.87368 -41.39174,1.87368 -36.22075,0 -40.04855,-0.21258 -42.17008,-2.3419 z M 1.3333333,177.40216 c 0,-3.50245 6.171466,-22.37108 9.0335537,-27.61916 4.158849,-7.62589 91.389813,-119.614258 99.034173,-127.141501 4.11014,-4.047177 11.02633,-9.242304 15.3693,-11.544729 8.90096,-4.71884 23.42827,-9.7634366 28.11652,-9.7634366 H 156 V 43.92939 86.525449 l -6.36589,8.403942 c -3.50126,4.62217 -19.7493,25.653949 -36.10677,46.737279 L 83.786473,180 H 42.559904 C 2.5863193,180 1.3333333,179.921 1.3333333,177.40216 Z"
       id="path30"
       inkscape:connector-curvature="0" />
    <path
       style="fill:#c3044c;stroke-width:1.33333337"
       d="m 554,265.70905 c -8.79639,-3.01947 -18.15831,-12.32954 -21.1104,-20.99347 -2.91084,-8.54284 -2.90491,-24.90571 0.012,-33.46674 3.32021,-9.74426 13.84561,-19.7559 23.81732,-22.65476 18.63575,-5.41756 37.26153,0.35535 45.61429,14.13776 6.79428,11.21087 6.38304,11.93483 -6.7796,11.93483 -10.64853,0 -11.26078,-0.16593 -14.65076,-3.9706 -4.1758,-4.68663 -8.85862,-6.14361 -14.52382,-4.51885 -6.86387,1.96853 -9.63255,7.16473 -10.17434,19.09491 -0.58314,12.84128 1.98507,19.44097 8.64879,22.22525 5.65147,2.36133 7.74104,2.3116 13.27823,-0.31596 6.04114,-2.86671 6.14934,-6.85679 0.2015,-7.43027 -4.31298,-0.41585 -4.33333,-0.45224 -4.33333,-7.75114 v -7.33334 l 17,-0.37317 17,-0.37316 v 20.56384 c 1.2e-4,22.66177 0.18861,22.18249 -8.72365,22.18249 -2.91624,0 -5.46343,-1.02802 -7.22068,-2.91421 l -2.715,-2.91421 -5.52598,3.10576 c -7.3626,4.13802 -20.61584,4.92261 -29.81457,1.76504 z m 592.6258,0.32341 c -7.5682,-2.43373 -16.5501,-10.01683 -20.0951,-16.96559 -5.836,-11.43961 -5.8026,-30.75967 0.073,-42.27715 6.8794,-13.4848 21.7228,-20.97553 39.2903,-19.8279 10.7246,0.7006 17.8692,3.80448 24.3716,10.58801 3.9341,4.1042 8.4009,12.47356 8.4009,15.74068 0,0.83677 -4.3899,1.37616 -11.2,1.37616 -11.0222,0 -11.2741,-0.0741 -15.8667,-4.66667 -3.491,-3.49106 -5.8011,-4.66666 -9.17,-4.66666 -9.6069,0 -14.883,7.73206 -15.0122,22 -0.1096,12.10691 2.9429,17.81657 11.0373,20.64579 5.2592,1.83818 6.0131,1.79072 10.5879,-0.66667 6.6137,-3.55256 7.2377,-6.99197 1.3707,-7.55532 -4.3812,-0.42069 -4.4166,-0.48012 -4.8135,-8.09047 l -0.3999,-7.66666 H 1182.6002 1200 v 21.33333 21.33333 h -6.6147 c -5.085,0 -7.2426,-0.67394 -9.3297,-2.91421 l -2.715,-2.91421 -5.526,3.10576 c -6.9562,3.90961 -20.5097,4.87937 -29.1887,2.08845 z M 59.0194,263.27789 C 46.537811,259.91645 26.666667,248.43725 26.666667,244.5883 c 0,-1.68647 7.709865,-1.90324 57,-1.60261 l 57.000003,0.34765 0.38725,11 0.38725,11 -37.72058,-0.0877 C 75.684873,265.18041 64.207711,264.67517 59.0194,263.2779 Z m 127.9148,0.91568 c -1.21647,-0.77163 -1.61359,-3.84324 -1.33333,-10.31292 L 186,244.66667 l 56.33333,-0.3478 c 38.079,-0.2351 56.33334,0.0984 56.33334,1.02908 0,2.03338 -15.19411,11.49227 -23.38039,14.55515 -3.90641,1.46157 -12.07816,3.28129 -18.15944,4.04383 -13.07637,1.63964 -67.69404,1.83154 -70.19264,0.24664 z m 180.62136,0.25088 c -0.48889,-0.48888 -0.88889,-17.21542 -0.88889,-37.17007 0,-29.17504 0.35944,-36.5795 1.83517,-37.80424 1.28303,-1.06483 10.6098,-1.41482 31,-1.16327 l 29.16483,0.3598 V 197.33334 206 l -18,0.66667 -18,0.66667 V 212 216.66667 L 408,217.33334 423.33333,218 v 8.66667 8.66667 L 408,236.00001 l -15.33333,0.66666 v 5.33334 5.33333 l 19,0.36995 19,0.36993 v 8.63007 8.63005 h -31.11111 c -17.11112,0 -31.51112,-0.4 -32,-0.88889 z m 76.75724,-37.39223 0.35387,-38.38555 8.62553,-0.40455 c 4.74404,-0.22249 10.00533,-0.0583 11.69176,0.36504 2.11727,0.5314 6.81443,6.53692 15.17707,19.40455 6.66094,10.24923 12.63317,18.63496 13.27161,18.63496 0.63845,0 1.32728,-8.55 1.53075,-19 l 0.36994,-19 10.12662,-0.38569 c 7.46525,-0.28434 10.53706,0.1088 11.68841,1.49614 1.12945,1.36091 1.46349,11.98675 1.20671,38.3857 L 518,264.66667 H 506 494 L 482,246.3525 c -6.6,-10.07279 -12.53032,-18.14601 -13.17849,-17.94049 -0.64818,0.20552 -1.24818,8.44689 -1.33334,18.31416 l -0.15484,17.9405 -11.6872,0.38555 -11.6872,0.38553 z M 624,227.52602 c 0,-33.33659 0.25431,-38.00496 2.10905,-38.7167 4.21652,-1.61802 20.1814,-0.8692 21.74943,1.02016 1.07383,1.29388 1.41439,12.51646 1.16325,38.33334 l -0.35506,36.50385 -12.33334,0.38338 L 624,265.43341 Z m 41.64613,-0.4738 0.35387,-38.38555 8.62553,-0.40455 c 4.74404,-0.22249 9.91831,-0.08 11.49839,0.31651 1.86172,0.46727 7.19447,7.29699 15.15133,19.40455 6.75318,10.27592 12.86831,18.68349 13.5892,18.68349 0.83972,0 0.97268,-6.21844 0.36999,-17.30536 -0.71337,-13.12292 -0.53396,-17.79548 0.74235,-19.33333 2.25816,-2.72091 20.32296,-2.87995 22.54836,-0.1985 1.07382,1.29388 1.41438,12.51646 1.16325,38.33334 l -0.35507,36.50385 h -12 -12 l -12.08309,-18 c -6.64571,-9.9 -12.63335,-18 -13.30588,-18 -0.67975,0 -1.23497,7.99379 -1.25024,18 l -0.0275,18 -11.6872,0.38555 -11.6872,0.38553 0.35387,-38.38553 z m 89.83898,36.19584 c -0.45015,-1.17305 -0.81844,-17.86375 -0.81844,-37.09044 0,-25.41148 0.43692,-35.39454 1.6,-36.55762 2.26666,-2.26666 58.53333,-2.26666 60.8,0 1.67392,1.67392 2.18416,11.32628 0.79068,14.95762 -0.68196,1.77717 -3.60518,2.10905 -18.57682,2.10905 -16.59649,0 -17.82328,0.17575 -18.61386,2.66667 -0.46551,1.46666 -0.47164,3.84733 -0.0136,5.29037 0.75288,2.37211 2.26394,2.6598 15.75652,3 L 811.33333,218 v 8.66667 8.66667 l -14.98552,0.37687 c -14.55857,0.36613 -15.00836,0.46785 -15.78706,3.57044 -0.44084,1.75646 -0.41208,4.42061 0.0639,5.92033 0.81062,2.55399 2.0644,2.75017 19.78707,3.09623 l 18.92165,0.36946 v 8 8 l -31.51489,0.35711 c -27.86589,0.31576 -31.60965,0.11013 -32.33333,-1.77572 z m 78.1611,-36.24805 0.35379,-38.33334 28,-0.37731 c 15.4,-0.20752 29.37815,-0.0391 31.06256,0.37444 2.84261,0.69776 3.03412,1.34724 2.66667,9.04398 L 895.33333,206 877,206.37096 l -18.33333,0.37096 v 5.29571 5.29571 h 14.4 c 9.42222,0 14.95308,0.55308 16,1.6 0.88,0.88 1.6,4.36 1.6,7.73333 0,3.37334 -0.72,6.85334 -1.6,7.73334 -1.04796,1.04796 -6.59482,1.6 -16.07667,1.6 h -14.47667 l 0.41,5.66666 0.41,5.66667 18.66667,0.66667 18.66667,0.66666 0.39696,8.33334 0.39694,8.33333 h -32.08406 -32.08407 z m 75.99992,0.0503 0.35387,-38.3836 16.55347,-0.37613 c 20.80033,-0.47264 37.16386,1.27713 43.72054,4.67509 10.56122,5.47329 12.69824,22.03779 4.10574,31.82412 l -4.10667,4.67723 4.23195,4.36627 c 3.34808,3.45433 4.36384,5.80741 4.86346,11.2665 0.34732,3.79514 0.90587,9.92243 1.24119,13.6162 l 0.60968,6.71595 -12.27635,-0.38261 -12.27634,-0.38262 -0.73427,-10.35332 c -0.92952,-13.10629 -2.48511,-14.90216 -12.94713,-14.94713 l -7.65194,-0.0329 -0.66666,12.66667 -0.66667,12.66666 -12.35387,0.38364 -12.35385,0.38364 0.35385,-38.38364 z m 44.25863,-7.81221 c 3.12863,-3.12863 2.59703,-8.18118 -1.11683,-10.61458 -2.17482,-1.425 -5.51162,-1.97312 -10.33333,-1.6974 l -7.12127,0.40726 -0.40301,7 -0.40301,7 h 8.6411 c 6.07778,0 9.26266,-0.62153 10.73635,-2.09524 z m 41.07471,7.81225 0.35386,-38.38364 10.79477,-0.38393 c 8.032,-0.28568 11.1941,0.0972 12.355,1.49613 1.1276,1.35867 1.4619,12.00401 1.2053,38.38395 l -0.3551,36.50385 -12.3538,0.38364 -12.35389,0.38364 z m 41.33333,0.001 0.3539,-38.38498 8.6255,-0.40455 c 4.744,-0.22249 9.9298,-0.0772 11.524,0.32294 1.9066,0.47853 7.065,7.1385 15.0744,19.46266 6.6968,10.30436 12.7403,18.38641 13.4301,17.96011 0.7468,-0.46156 0.9259,-7.63636 0.4428,-17.73669 -0.9858,-20.60802 -1.0123,-20.56752 13.1132,-19.99871 l 9.79,0.39424 0.3538,38.33334 0.3537,38.33333 -11.6871,-0.0341 -11.6871,-0.0341 -12.4249,-18.76317 c -6.8337,-10.31975 -12.8337,-18.35259 -13.3334,-17.85076 -0.4996,0.50184 -0.9084,8.81061 -0.9084,18.46396 v 17.55153 l -11.6872,0.38555 -11.6872,0.38553 0.3539,-38.38553 z M 17.148947,233.77626 C 15.305827,233.28595 6.6666667,219.30568 6.6666667,216.81336 6.6666667,216.36602 36.926235,216 73.910149,216 c 62.891501,0 67.287821,0.15102 67.928681,2.33334 0.92048,3.13461 0.28673,12.63945 -0.97935,14.68803 -0.78449,1.26933 -14.78589,1.60996 -61.271503,1.49064 -33.140054,-0.0851 -61.237617,-0.41616 -62.43903,-0.73575 z m 169.073283,-1.33181 c -1.52754,-1.52752 -0.97014,-13.16321 0.7111,-14.84445 2.02994,-2.02993 129.78867,-2.3345 131.0384,-0.3124 0.43768,0.70819 -0.40716,3.64559 -1.87744,6.52757 -5.22677,10.24532 -0.0344,9.51817 -67.9673,9.51817 -33.55874,0 -61.41588,-0.4 -61.90476,-0.88889 z M 2.8670915,204.33334 C 2.1923889,203.05 1.2142424,198.84467 0.69343251,194.98815 l -0.94692704,-7.01185 70.46008153,0.34518 70.460083,0.34519 0.39425,9 0.39425,9 H 72.774499 c -64.0539519,0 -68.7633153,-0.15719 -69.9074075,-2.33333 z M 185.87404,203.48587 c -0.38992,-1.01609 -0.52109,-4.46609 -0.29149,-7.66667 L 186,190 h 69.33333 69.33334 l -0.46986,6.66667 c -0.25841,3.66667 -0.74382,7.11667 -1.07869,7.66667 -0.33485,0.55 -31.19225,1 -68.57199,1 -56.68772,0 -68.08077,-0.30651 -68.67209,-1.84747 z M 1.3333333,177.40216 c 0,-3.50245 6.171466,-22.37108 9.0335537,-27.61916 4.158849,-7.62589 91.389813,-119.614258 99.034173,-127.141501 4.11014,-4.047177 11.02633,-9.242304 15.3693,-11.544729 8.90096,-4.71884 23.42827,-9.7634366 28.11652,-9.7634366 H 156 V 43.92939 86.525449 l -6.36589,8.403942 c -3.50126,4.62217 -19.7493,25.653949 -36.10677,46.737279 L 83.786473,180 H 42.559904 C 2.5863193,180 1.3333333,179.92104 1.3333333,177.40216 Z M 224,153.72086 c -10.63333,-13.71543 -26.53333,-34.24447 -35.33333,-45.62007 l -16,-20.682912 L 172,44.374488 c -0.62701,-40.4832891 -0.52681,-43.0433229 1.68476,-43.042272 1.29328,6.146e-4 3.39328,0.5578154 4.66667,1.2382239 1.27338,0.6804086 5.61524,2.2328081 9.64857,3.4497768 17.62591,5.3182263 28.00903,13.9473633 47.83539,39.7547713 7.98238,10.390424 28.7254,37.191681 46.09561,59.558352 17.3702,22.36666 32.99752,43.4095 34.72739,46.76186 3.07205,5.95346 7.34161,20.16122 7.34161,24.43059 0,1.91853 -4.18901,2.14043 -40.33333,2.13656 l -40.33334,-0.004 L 224,153.72119 Z"
       id="path28"
       inkscape:connector-curvature="0" />
    <path
       style="fill:#595a5a;stroke-width:1.33333337"
       d="m 554,265.70905 c -8.79639,-3.01947 -18.15831,-12.32954 -21.1104,-20.99347 -2.91084,-8.54284 -2.90491,-24.90571 0.012,-33.46674 3.32021,-9.74426 13.84561,-19.7559 23.81732,-22.65476 18.63575,-5.41756 37.26153,0.35535 45.61429,14.13776 6.79428,11.21087 6.38304,11.93483 -6.7796,11.93483 -10.64853,0 -11.26078,-0.16593 -14.65076,-3.9706 -4.1758,-4.68663 -8.85862,-6.14361 -14.52382,-4.51885 -6.86387,1.96853 -9.63255,7.16473 -10.17434,19.09491 -0.58314,12.84128 1.98507,19.44097 8.64879,22.22525 5.65147,2.36133 7.74104,2.3116 13.27823,-0.31596 6.04114,-2.86671 6.14934,-6.85679 0.2015,-7.43027 -4.31298,-0.41585 -4.33333,-0.45224 -4.33333,-7.75114 v -7.33334 l 17,-0.37317 17,-0.37316 v 20.56384 c 1.2e-4,22.66177 0.18861,22.18249 -8.72365,22.18249 -2.91624,0 -5.46343,-1.02802 -7.22068,-2.91421 l -2.715,-2.91421 -5.52598,3.10576 c -7.3626,4.13802 -20.61584,4.92261 -29.81457,1.76504 z m 592.6258,0.32341 c -7.5682,-2.43373 -16.5501,-10.01683 -20.0951,-16.96559 -5.836,-11.43961 -5.8026,-30.75967 0.073,-42.27715 6.8794,-13.4848 21.7228,-20.97553 39.2903,-19.8279 10.7246,0.7006 17.8692,3.80448 24.3716,10.58801 3.9341,4.1042 8.4009,12.47356 8.4009,15.74068 0,0.83677 -4.3899,1.37616 -11.2,1.37616 -11.0222,0 -11.2741,-0.0741 -15.8667,-4.66667 -3.491,-3.49106 -5.8011,-4.66666 -9.17,-4.66666 -9.6069,0 -14.883,7.73206 -15.0122,22 -0.1096,12.10691 2.9429,17.81657 11.0373,20.64579 5.2592,1.83818 6.0131,1.79072 10.5879,-0.66667 6.6137,-3.55256 7.2377,-6.99197 1.3707,-7.55532 -4.3812,-0.42069 -4.4166,-0.48012 -4.8135,-8.09047 l -0.3999,-7.66666 H 1182.6002 1200 v 21.33333 21.33333 h -6.6147 c -5.085,0 -7.2426,-0.67394 -9.3297,-2.91421 l -2.715,-2.91421 -5.526,3.10576 c -6.9562,3.90961 -20.5097,4.87937 -29.1887,2.08845 z M 59.0194,263.27789 C 46.537811,259.91645 26.666667,248.43725 26.666667,244.5883 c 0,-1.68647 7.709865,-1.90324 57,-1.60261 l 57.000003,0.34765 0.38725,11 0.38725,11 -37.72058,-0.0877 C 75.684873,265.18041 64.207711,264.67517 59.0194,263.2779 Z m 308.53616,1.16656 c -0.48889,-0.48888 -0.88889,-17.21542 -0.88889,-37.17007 0,-29.17504 0.35944,-36.5795 1.83517,-37.80424 1.28303,-1.06483 10.6098,-1.41482 31,-1.16327 l 29.16483,0.3598 V 197.33334 206 l -18,0.66667 -18,0.66667 V 212 216.66667 L 408,217.33334 423.33333,218 v 8.66667 8.66667 L 408,236.00001 l -15.33333,0.66666 v 5.33334 5.33333 l 19,0.36995 19,0.36993 v 8.63007 8.63005 h -31.11111 c -17.11112,0 -31.51112,-0.4 -32,-0.88889 z m 76.75724,-37.39223 0.35387,-38.38555 8.62553,-0.40455 c 4.74404,-0.22249 10.00533,-0.0583 11.69176,0.36504 2.11727,0.5314 6.81443,6.53692 15.17707,19.40455 6.66094,10.24923 12.63317,18.63496 13.27161,18.63496 0.63845,0 1.32728,-8.55 1.53075,-19 l 0.36994,-19 10.12662,-0.38569 c 7.46525,-0.28434 10.53706,0.1088 11.68841,1.49614 1.12945,1.36091 1.46349,11.98675 1.20671,38.3857 L 518,264.66667 H 506 494 L 482,246.3525 c -6.6,-10.07279 -12.53032,-18.14601 -13.17849,-17.94049 -0.64818,0.20552 -1.24818,8.44689 -1.33334,18.31416 l -0.15484,17.9405 -11.6872,0.38555 -11.6872,0.38553 z M 624,227.52602 c 0,-33.33659 0.25431,-38.00496 2.10905,-38.7167 4.21652,-1.61802 20.1814,-0.8692 21.74943,1.02016 1.07383,1.29388 1.41439,12.51646 1.16325,38.33334 l -0.35506,36.50385 -12.33334,0.38338 L 624,265.43341 Z m 41.64613,-0.4738 0.35387,-38.38555 8.62553,-0.40455 c 4.74404,-0.22249 9.91831,-0.08 11.49839,0.31651 1.86172,0.46727 7.19447,7.29699 15.15133,19.40455 6.75318,10.27592 12.86831,18.68349 13.5892,18.68349 0.83972,0 0.97268,-6.21844 0.36999,-17.30536 -0.71337,-13.12292 -0.53396,-17.79548 0.74235,-19.33333 2.25816,-2.72091 20.32296,-2.87995 22.54836,-0.1985 1.07382,1.29388 1.41438,12.51646 1.16325,38.33334 l -0.35507,36.50385 h -12 -12 l -12.08309,-18 c -6.64571,-9.9 -12.63335,-18 -13.30588,-18 -0.67975,0 -1.23497,7.99379 -1.25024,18 l -0.0275,18 -11.6872,0.38555 -11.6872,0.38553 0.35387,-38.38553 z m 89.83898,36.19584 c -0.45015,-1.17305 -0.81844,-17.86375 -0.81844,-37.09044 0,-25.41148 0.43692,-35.39454 1.6,-36.55762 2.26666,-2.26666 58.53333,-2.26666 60.8,0 1.67392,1.67392 2.18416,11.32628 0.79068,14.95762 -0.68196,1.77717 -3.60518,2.10905 -18.57682,2.10905 -16.59649,0 -17.82328,0.17575 -18.61386,2.66667 -0.46551,1.46666 -0.47164,3.84733 -0.0136,5.29037 0.75288,2.37211 2.26394,2.6598 15.75652,3 L 811.33333,218 v 8.66667 8.66667 l -14.98552,0.37687 c -14.55857,0.36613 -15.00836,0.46785 -15.78706,3.57044 -0.44084,1.75646 -0.41208,4.42061 0.0639,5.92033 0.81062,2.55399 2.0644,2.75017 19.78707,3.09623 l 18.92165,0.36946 v 8 8 l -31.51489,0.35711 c -27.86589,0.31576 -31.60965,0.11013 -32.33333,-1.77572 z m 78.1611,-36.24805 0.35379,-38.33334 28,-0.37731 c 15.4,-0.20752 29.37815,-0.0391 31.06256,0.37444 2.84261,0.69776 3.03412,1.34724 2.66667,9.04398 L 895.33333,206 877,206.37096 l -18.33333,0.37096 v 5.29571 5.29571 h 14.4 c 9.42222,0 14.95308,0.55308 16,1.6 0.88,0.88 1.6,4.36 1.6,7.73333 0,3.37334 -0.72,6.85334 -1.6,7.73334 -1.04796,1.04796 -6.59482,1.6 -16.07667,1.6 h -14.47667 l 0.41,5.66666 0.41,5.66667 18.66667,0.66667 18.66667,0.66666 0.39696,8.33334 0.39694,8.33333 h -32.08406 -32.08407 z m 75.99992,0.0503 0.35387,-38.3836 16.55347,-0.37613 c 20.80033,-0.47264 37.16386,1.27713 43.72054,4.67509 10.56122,5.47329 12.69824,22.03779 4.10574,31.82412 l -4.10667,4.67723 4.23195,4.36627 c 3.34808,3.45433 4.36384,5.80741 4.86346,11.2665 0.34732,3.79514 0.90587,9.92243 1.24119,13.6162 l 0.60968,6.71595 -12.27635,-0.38261 -12.27634,-0.38262 -0.73427,-10.35332 c -0.92952,-13.10629 -2.48511,-14.90216 -12.94713,-14.94713 l -7.65194,-0.0329 -0.66666,12.66667 -0.66667,12.66666 -12.35387,0.38364 -12.35385,0.38364 0.35385,-38.38364 z m 44.25863,-7.81221 c 3.12863,-3.12863 2.59703,-8.18118 -1.11683,-10.61458 -2.17482,-1.425 -5.51162,-1.97312 -10.33333,-1.6974 l -7.12127,0.40726 -0.40301,7 -0.40301,7 h 8.6411 c 6.07778,0 9.26266,-0.62153 10.73635,-2.09524 z m 41.07471,7.81225 0.35386,-38.38364 10.79477,-0.38393 c 8.032,-0.28568 11.1941,0.0972 12.355,1.49613 1.1276,1.35867 1.4619,12.00401 1.2053,38.38395 l -0.3551,36.50385 -12.3538,0.38364 -12.35389,0.38364 z m 41.33333,0.001 0.3539,-38.38498 8.6255,-0.40455 c 4.744,-0.22249 9.9298,-0.0772 11.524,0.32294 1.9066,0.47853 7.065,7.1385 15.0744,19.46266 6.6968,10.30436 12.7403,18.38641 13.4301,17.96011 0.7468,-0.46156 0.9259,-7.63636 0.4428,-17.73669 -0.9858,-20.60802 -1.0123,-20.56752 13.1132,-19.99871 l 9.79,0.39424 0.3538,38.33334 0.3537,38.33333 -11.6871,-0.0341 -11.6871,-0.0341 -12.4249,-18.76317 c -6.8337,-10.31975 -12.8337,-18.35259 -13.3334,-17.85076 -0.4996,0.50184 -0.9084,8.81061 -0.9084,18.46396 v 17.55153 l -11.6872,0.38555 -11.6872,0.38553 0.3539,-38.38553 z M 17.148947,233.77626 C 15.305827,233.28595 6.6666667,219.30568 6.6666667,216.81336 6.6666667,216.36602 36.926235,216 73.910149,216 c 62.891501,0 67.287821,0.15102 67.928681,2.33334 0.92048,3.13461 0.28673,12.63945 -0.97935,14.68803 -0.78449,1.26933 -14.78589,1.60996 -61.271503,1.49064 -33.140054,-0.0851 -61.237617,-0.41616 -62.43903,-0.73575 z M 2.8670915,204.33334 C 2.1923889,203.05 1.2142424,198.84467 0.69343251,194.98815 l -0.94692704,-7.01185 70.46008153,0.34518 70.460083,0.34519 0.39425,9 0.39425,9 H 72.774499 c -64.0539519,0 -68.7633153,-0.15719 -69.9074075,-2.33333 z M 1.3333333,177.40216 c 0,-3.50245 6.171466,-22.37108 9.0335537,-27.61916 4.158849,-7.62589 91.389813,-119.614258 99.034173,-127.141501 4.11014,-4.047177 11.02633,-9.242304 15.3693,-11.544729 8.90096,-4.71884 23.42827,-9.7634366 28.11652,-9.7634366 H 156 V 43.92939 86.525449 l -6.36589,8.403942 c -3.50126,4.62217 -19.7493,25.653949 -36.10677,46.737279 L 83.786473,180 H 42.559904 C 2.5863193,180 1.3333333,179.921 1.3333333,177.40216 Z"
       id="path26"
       inkscape:connector-curvature="0" />
    <path
       style="fill:#002e52;stroke-width:1.33333337"
       d="m 556.48628,265.29426 c -8.08215,-2.4964 -16.87921,-9.6436 -20.43041,-16.59876 -2.9973,-5.87027 -3.38812,-8.26004 -3.37984,-20.66667 0.008,-12.58791 0.37144,-14.71357 3.53468,-20.69549 4.1343,-7.81828 7.58756,-11.211 15.78929,-15.51252 5.08127,-2.66494 7.93955,-3.14678 18.66667,-3.14678 13.96554,0 19.98442,2.1381 26.84778,9.53719 3.63022,3.91357 7.81888,11.26491 7.81888,13.72256 0,0.86003 -4.09385,1.39955 -10.61976,1.39955 -9.23673,0 -10.80465,-0.34548 -12.03952,-2.65287 C 580.828,207.2311 574.49459,204 569.57936,204 c -4.92404,0 -10.69948,4.49739 -13.07427,10.18104 -2.88122,6.89577 -2.39254,22.89377 0.86242,28.23254 5.2738,8.65005 17.92992,10.41021 24.87994,3.46019 4.15728,-4.15728 3.43782,-6.36055 -2.35344,-7.2071 -4.38541,-0.64105 -4.57629,-0.91005 -4.96706,-7 l -0.40639,-6.33333 h 16.07305 16.07306 v 19.24348 c 0,17.78761 -0.19318,19.3048 -2.55328,20.05387 -3.67664,1.16692 -9.82714,-0.65895 -11.86158,-3.5213 -1.67624,-2.35837 -1.99582,-2.31445 -7.76642,1.06735 -6.69396,3.92292 -20.43743,5.45316 -27.99911,3.11752 z m 590.47612,-0.58721 c -17.0921,-5.33727 -26.2897,-23.21202 -22.8911,-44.48682 1.7466,-10.9332 5.1005,-17.39955 12.1578,-23.44033 13.6106,-11.65014 40.8603,-11.53306 52.1208,0.22394 4.0167,4.19371 10.7788,16.31192 9.7028,17.38796 -0.3957,0.39562 -0.718,0.16931 -0.7162,-0.5029 0,-0.67447 -4.736,-1.02868 -10.5714,-0.79036 -9.9448,0.40616 -10.7004,0.23976 -12.6885,-2.7945 -6.166,-9.41049 -19.7935,-7.83164 -25.363,2.93852 -4.7157,9.11917 -3.5817,25.40313 2.204,31.65023 6.0329,6.51403 16.2171,7.26264 22.2565,1.63603 4.1075,-3.82665 3.1692,-7.09575 -2.185,-7.61329 -4.2342,-0.40928 -4.3224,-0.55216 -4.3224,-7 v -6.58219 h 14.5576 c 8.0067,0 15.5067,-0.36419 16.6666,-0.80932 1.8677,-0.71668 2.1091,1.57241 2.1091,20 v 20.80932 h -6.5555 c -5.6071,0 -6.9399,-0.52781 -9.2132,-3.64861 -2.53,-3.47303 -2.7791,-3.53888 -5.1775,-1.36844 -6.4808,5.86506 -21.0058,7.85238 -32.0914,4.39076 z m -1087.943,-2.7625 c -11.617553,-3.12874 -29.686067,-13.28052 -29.686067,-16.67906 0,-0.77803 21.252172,-1.26548 55.173079,-1.26548 h 55.173078 l 0.62818,8.33333 c 0.34549,4.58333 0.35341,9.08333 0.0176,10 -0.92366,2.52128 -71.758007,2.18256 -81.30587,-0.38879 z M 368.31224,227.00001 368.66667,190 H 398 427.33333 l 0.39987,7.66667 0.39988,7.66667 h -18.04113 c -17.92787,0 -18.04619,0.0201 -18.84372,3.19772 -0.44142,1.75874 -0.60284,4.60874 -0.35874,6.33333 0.43014,3.03875 0.91751,3.15621 15.77718,3.80228 L 422,219.33334 v 7.33333 7.33334 l -15.33333,0.66666 -15.33334,0.66667 -0.41937,5.09305 c -0.69217,8.40618 0.46504,8.90695 20.58263,8.90695 h 17.83674 v 7.33333 7.33334 h -30.68776 -30.68776 z m 77.33333,0 L 446,190 l 9.63033,-0.39101 c 11.31079,-0.45924 9.14722,-2.30803 25.35632,21.66711 6.42402,9.50184 12.28002,17.30184 13.01335,17.33333 0.80101,0.0344 1.59949,-7.66141 2,-19.27609 L 496.66667,190 h 10 10 l 0.35442,37.00001 0.35443,37 h -11.14535 -11.14534 l -12.8808,-19.33334 c -7.08443,-10.63333 -13.47852,-19.33333 -14.20908,-19.33333 -1.65954,0 -1.6412,-0.28629 -1.34484,21 l 0.24596,17.66667 h -10.80246 -10.80246 z m 180,0 L 626,190 h 10.66667 10.66666 l 0.35443,37.00001 0.35443,37 h -11.37552 -11.37552 z m 41.33334,0 0.35442,-37.00001 9.51606,-0.3887 c 6.88665,-0.28131 10.04222,0.13745 11.42029,1.51553 1.04732,1.04732 7.18777,10.09801 13.64543,20.11265 6.45766,10.01463 12.41853,17.9745 13.24638,17.68859 1.04874,-0.3622 1.36663,-5.95958 1.04832,-18.45817 -0.54734,-21.49128 -0.57636,-21.4435 12.67018,-20.86688 L 738,190 v 36.66667 36.66667 l -10.98284,0.38697 -10.98284,0.38699 -12.71024,-19.48929 c -7.30225,-11.19694 -13.40815,-19.2541 -14.35049,-18.93652 -1.22711,0.41352 -1.51384,5.30898 -1.13838,19.43564 l 0.50188,18.88288 h -10.8563 -10.85631 z m 89.90998,36.1111 c -1.27676,-1.27676 -1.06045,-70.10981 0.2267,-72.13777 0.82709,-1.30314 7.81209,-1.61038 30.31292,-1.33334 l 29.23816,0.36 v 7.33334 7.33333 l -17.24694,0.37501 c -9.92734,0.21586 -17.99093,0.99248 -19,1.82992 -2.19212,1.81931 -2.28585,8.06228 -0.15306,10.19507 1.04782,1.04783 6.59256,1.6 16.06653,1.6 h 14.46655 l -0.39988,7.66667 -0.39987,7.66667 -14.61764,0.38132 c -9.63647,0.25138 -14.96815,0.93292 -15.64625,2 -1.65575,2.60557 -1.22199,9.83222 0.68516,11.41501 1.02092,0.84729 9.24433,1.61245 19.66666,1.82992 L 818,250.00001 l 0.40301,7 0.40302,7 h -30.51412 c -16.78278,0 -30.91414,-0.4 -31.40302,-0.8889 z M 834.97891,227.00001 835.33333,190 H 864.66667 894 v 7.33334 7.33333 L 876,205.33334 858,206 v 6 6 l 15.33333,0.66667 15.33334,0.66667 v 7.33333 7.33334 L 873.33333,234.66667 858,235.33334 v 6.66667 6.66666 l 19,0.36995 19,0.36993 v 7.29674 7.29672 h -30.68776 -30.68776 z m 75.9999,0.0543 0.35452,-37.05427 24,0.1188 c 24.82856,0.12294 30.96534,1.11031 37.15351,5.97794 7.97793,6.27544 7.90877,20.80082 -0.13625,28.61405 l -4.81404,4.67534 4.79066,4.38808 c 5.09307,4.66506 5.88018,7.23892 6.71024,21.94241 l 0.47327,8.38331 -10.75536,-0.38331 L 958,263.33334 957.24413,253.6145 c -0.5687,-7.31229 -1.42818,-10.39113 -3.47101,-12.43396 -2.964,-2.964 -11.6502,-4.66911 -16.97605,-3.3324 -3.25559,0.81709 -3.37636,1.24139 -3.7472,13.16476 l -0.3832,12.32044 -11.02119,0.3876 -11.02119,0.3876 z m 44.21587,-6.93918 c 3.3894,-2.81297 2.66727,-8.83906 -1.44705,-12.07538 -2.92371,-2.2998 -5.07759,-2.74844 -11.66667,-2.43011 L 934,206 l -0.40041,7.68482 c -0.35422,6.79811 -0.0752,7.80515 2.4184,8.72757 3.82826,1.41616 16.53662,-0.10626 19.17669,-2.2973 z m 41.11747,6.93918 L 996.66667,190 H 1007.3333 1018 v 36.66667 36.66667 l -11.0212,0.3876 -11.02117,0.3876 z m 41.33335,0.003 L 1038,190 l 9.3333,-0.34289 c 5.1334,-0.18859 9.9774,0.11147 10.7646,0.66667 0.7872,0.55525 7.0209,9.58165 13.8527,20.05866 6.8318,10.47701 13.0877,18.82287 13.9021,18.54637 0.9935,-0.33736 1.4806,-6.82342 1.4806,-19.71578 V 190 h 10 10 l 0.3545,37.00001 0.3544,37 h -10.7371 -10.7371 l -12.6919,-19.4196 c -7.0126,-10.72988 -13.4043,-19.17854 -14.284,-18.88087 -1.1318,0.38296 -1.5921,5.90103 -1.5921,19.08625 v 18.54755 l -10.3545,0.3898 -10.3546,0.3898 0.3546,-37.05647 z M 15.707253,231.01365 c -1.134772,-1.29058 -3.348185,-4.90212 -4.918695,-8.02564 L 7.9330835,217.3084 74.299875,217.6542 140.66667,218 v 7.33334 7.33333 l -61.448099,0.34651 c -57.236636,0.32276 -61.589503,0.18568 -63.511318,-2 z M 3.1372889,203.48587 c -1.7625856,-2.01229 -2.96601669,-13.32073 -1.4706222,-13.8192 0.55,-0.18333 31.9000003,-0.33333 69.6666663,-0.33333 H 140 v 8 8 l -67.666667,-0.0507 c -54.056868,-0.0406 -67.9742701,-0.40195 -69.1960441,-1.7968 z m -1.6986924,-25.8192 c -0.057895,-1.65 0.3527464,-3 0.9125358,-3 0.5597894,0 1.7461969,-3.06639 2.636461,-6.81419 0.890264,-3.7478 3.0392472,-9.8978 4.7755179,-13.66666 C 12.929242,147.3132 97.910651,36.438725 108.38673,25.512473 118.04751,15.436551 133.03545,6.7607254 144.49543,4.61082 c 2.66085,-0.4991776 4.8379,-1.4408211 4.8379,-2.0925411 0,-0.6517201 1.35,-1.1854483 3,-1.1860629 l 3,-0.00112 -0.66666,43.001121 L 154,87.333335 118.66667,133.01786 83.333333,178.70238 42.999192,178.35119 c -25.962763,-0.22605 -40.5338864,0.12389 -40.8947371,0.98215 -0.3083274,0.73333 -0.6079637,-0.0167 -0.6658584,-1.66667 z"
       id="path24"
       inkscape:connector-curvature="0" />
    <path
       style="fill:#050505;stroke-width:1.33333337"
       d="m 557.25172,264.92426 c -17.11916,-4.83467 -26.29327,-19.59132 -24.96205,-40.15175 1.49268,-23.05408 14.93468,-35.90084 37.71033,-36.04045 15.61196,-0.0957 26.10757,5.02461 31.34564,15.29206 4.40305,8.63071 3.92597,9.30922 -6.54564,9.30922 -8.73651,0 -9.43511,-0.23511 -13.86667,-4.66667 -5.2471,-5.24711 -11.46997,-6.18137 -18.15308,-2.7254 -10.5609,5.46125 -12.33134,30.9082 -2.78662,40.05263 5.46172,5.23267 13.79693,5.95651 20.00637,1.7374 2.66773,-1.81264 4.66667,-4.29035 4.66667,-5.7844 0,-1.97105 -1.14724,-2.77745 -4.66667,-3.28023 -4.54321,-0.64902 -4.66667,-0.8254 -4.66667,-6.66666 v -6 L 591,225.62435 l 15.66667,-0.37564 v 19.37564 19.37566 H 600 c -4.91568,0 -6.66667,-0.50463 -6.66667,-1.92131 0,-3.65615 -2.9238,-3.69589 -9.47769,-0.1288 -7.83375,4.26367 -18.01005,5.4014 -26.60392,2.97437 z m 591.80468,-0.0537 c -9.1244,-2.56262 -16.1578,-8.01571 -20.5413,-15.92583 -3.5571,-6.41895 -3.8484,-8.00459 -3.8484,-20.94469 0,-13.05989 0.2686,-14.48554 4,-21.23053 4.7447,-8.57674 11.7836,-14.05066 21.819,-16.96805 15.6388,-4.54632 34.3566,1.12677 41.647,12.62263 6.1757,9.73804 5.5793,10.90928 -5.5556,10.90928 -9.0417,0 -9.6008,-0.18874 -13.8241,-4.66667 -3.8192,-4.04952 -5.2315,-4.66667 -10.6797,-4.66667 -5.1138,0 -6.9781,0.69963 -10.0502,3.77174 -9.9414,9.94149 -8.4123,35.17771 2.4726,40.80651 7.5384,3.89825 18.2219,1.5549 21.5883,-4.73519 1.8129,-3.38743 0.5455,-4.82993 -4.7507,-5.40712 -3.7537,-0.40909 -4.025,-0.82579 -4.4064,-6.76927 l -0.4063,-6.33333 h 14.6306 c 8.0469,0 15.5798,-0.36419 16.7397,-0.80932 1.8672,-0.71648 2.1091,1.55516 2.1091,19.80428 v 20.61359 l -7,-0.65639 c -6.492,-0.60877 -8.1247,-1.46245 -9.471,-4.95216 -0.283,-0.73333 -3.5031,0.30089 -7.1559,2.29828 -8.0798,4.41812 -18.6537,5.67184 -27.3167,3.23884 z m -780.45472,-2.55902 c -0.35637,-0.9287 -0.48755,-17.2787 -0.29149,-36.33333 l 0.35648,-34.64484 29.73724,-0.35903 29.73724,-0.35904 -0.40391,7.02571 -0.40391,7.02569 -18,0.66667 -18,0.66666 -0.43052,5.28016 c -0.60918,7.47143 1.52395,8.6212 14.36198,7.74127 5.74608,-0.39384 12.01217,-0.32335 13.92464,0.15665 3.16521,0.79442 3.47724,1.46867 3.47724,7.51399 v 6.64127 h -13.74516 c -16.77636,0 -18.61223,0.95621 -18.0121,9.38168 l 0.42392,5.95165 18.66667,0.66667 18.66667,0.66667 0.40301,7 0.40301,7 h -30.11153 c -23.06744,0 -30.26309,-0.39502 -30.75948,-1.68856 z m 76.73165,-34.92209 V 190.6667 h 10.69347 10.69348 L 479.49148,210 c 7.02417,10.63334 13.61211,19.33334 14.63987,19.33334 1.51698,0 1.86865,-3.64899 1.86865,-19.38942 V 190.5545 l 10.33333,0.38942 10.33334,0.38942 v 36 36 H 506 495.33333 l -12.49709,-18.66667 c -7.08573,-10.58381 -13.52987,-18.84446 -14.88219,-19.07729 -2.20737,-0.38004 -2.36902,1.01079 -2.16957,18.66667 L 466,263.33334 l -10.33333,0.38941 -10.33334,0.38943 z m 180,-0.0561 v -36.77451 l 11,0.38725 11,0.38725 v 36.00001 36 l -11,0.38725 -11,0.38725 z m 41.33334,0.0561 V 190.6667 h 10.68449 10.68449 L 700.64419,210 c 7.15617,10.97295 13.49084,19.33334 14.64884,19.33334 1.7377,0 2.0403,-2.86729 2.0403,-19.33334 v -19.33333 h 10 10 v 36.66667 36.66667 h -10.50781 -10.50781 l -12.49219,-19.33035 c -16.61249,-25.70611 -17.45209,-25.72282 -16.90308,-0.33632 l 0.41089,19 -10.33333,0.38941 -10.33333,0.38943 z m 90.66666,-0.0311 v -36.69169 h 29.40302 29.40301 l -0.40301,7 -0.40302,7 -18,0.66666 -18,0.66667 v 6 c 0,5.90671 0.0725,6.00503 4.66667,6.32312 2.56667,0.17771 9.61667,0.68157 15.66667,1.11969 l 11,0.79658 v 6.54697 6.54698 H 798.0868 c -6.91893,0 -14.15189,0.59768 -16.07327,1.32818 -3.18573,1.21122 -3.45758,1.88642 -3.0868,7.66667 l 0.4066,6.33849 18.98376,0.36984 c 18.68107,0.36395 18.99631,0.41984 19.77078,3.50556 0.43286,1.72466 0.59017,4.85822 0.34957,6.9635 L 818,263.33334 l -30.33333,0.35836 -30.33334,0.35837 v -36.6917 z m 77.33334,-0.0255 v -36.71721 l 29.66666,0.35884 29.66667,0.35884 0.41983,5.86786 c 0.2713,3.7919 -0.20042,6.26116 -1.33334,6.97958 -0.96424,0.61146 -9.39173,1.12092 -18.72776,1.13215 l -16.9746,0.0204 -0.83661,3.33333 c -2.40083,9.56565 1.81965,11.92412 19.93123,11.13788 l 10.85458,-0.47121 0.39887,6.88029 0.39885,6.8803 -14.78305,0.45304 c -11.3272,0.34713 -15.07808,0.92058 -16.04511,2.45304 -1.85076,2.93292 -1.5758,10.11365 0.45171,11.79633 1.02092,0.84729 9.24433,1.61245 19.66667,1.82992 l 17.91206,0.37375 v 6.66666 6.66667 L 865,263.6917 l -30.33333,0.35837 v -36.71721 z m 76,4.8e-4 V 190.6667 h 23.758 c 33.47361,0 40.17376,2.35205 42.82464,15.0334 1.48676,7.11236 -0.54762,14.48739 -5.12432,18.57667 -4.917,4.39333 -5.19208,6.70156 -1.06206,8.91189 5.05275,2.70413 6.6025,6.76401 7.30848,19.14592 l 0.67192,11.7844 -10.52166,-0.3928 L 958,263.33334 l -0.75396,-9.33333 c -0.41468,-5.13334 -1.19769,-10.30207 -1.74001,-11.48607 -1.47559,-3.22147 -6.84122,-5.1806 -14.18852,-5.1806 -8.32618,0 -9.31751,1.69299 -9.31751,15.91235 v 10.75432 h -10.66667 -10.66666 v -36.66667 z m 44.0985,-6.75582 c 1.54347,-1.39684 2.56816,-4.07356 2.56816,-6.70859 0,-6.31642 -3.84992,-8.53562 -14.80782,-8.53562 -7.75406,0 -8.96948,0.33777 -9.57715,2.66149 -0.98881,3.78119 0.50815,13.80362 2.25149,15.07426 2.52768,1.84229 16.78232,0.0271 19.56532,-2.49156 z M 996,227.33334 v -36.66667 h 10.6667 10.6666 v 36.66667 36.66667 H 1006.6667 996 Z m 41.3333,0 v -36.66667 h 10.5354 10.5353 L 1071.1752,210 c 7.1401,10.80891 13.6648,19.33334 14.798,19.33334 1.7203,0 2.0268,-2.9234 2.0268,-19.33334 v -19.33333 h 10 10 v 36.66667 36.66667 h -10.4914 -10.4915 l -12.5085,-19 c -6.8922,-10.46895 -13.5563,-19.19356 -14.8419,-19.4311 -2.1352,-0.39449 -2.3334,1.21886 -2.3334,19 v 19.4311 h -10 -10 z"
       id="path22"
       inkscape:connector-curvature="0" />
  </g>
</svg>
