<svg xmlns="http://www.w3.org/2000/svg" xmlns:xlink="http://www.w3.org/1999/xlink" version="1.1" x="0px" y="0px" viewBox="0 0 100 125" enable-background="new 0 0 100 100" xml:space="preserve"><path d="M69.5,19c3,0,5.5,2.5,5.5,5.5S72.5,30,69.5,30c-1.5,0-2.9-0.6-3.9-1.7l-1.1-1.2l-0.3-1.6C64,25.3,64,24.9,64,24.5  C64,21.5,66.5,19,69.5,19 M28,38c2.9,0,5.7,1.1,7.8,3.2l1.5,1.5l0.8,2c0.6,1.3,0.8,2.8,0.8,4.2c0,1.2-0.2,2.4-0.6,3.6l-0.7,2.1  l-1.5,1.6C34.1,58.7,31.1,60,28,60c-6.1,0-11-4.9-11-11S21.9,38,28,38 M75.5,66c4.1,0,7.5,3.4,7.5,7.5S79.6,81,75.5,81  S68,77.6,68,73.5c0-0.5,0-1,0.1-1.5l0.4-1.8l1.2-1.4C71.1,67,73.2,66,75.5,66 M69.5,12C62.6,12,57,17.6,57,24.5  c0,0.9,0.1,1.7,0.3,2.6l-16.5,9.2C37.5,33,33,31,28,31c-9.9,0-18,8.1-18,18c0,9.9,8.1,18,18,18c5.3,0,10.1-2.3,13.4-6l19.8,9.7  c-0.2,0.9-0.3,1.9-0.3,2.8c0,8,6.5,14.5,14.5,14.5S90,81.5,90,73.5S83.5,59,75.5,59c-4.5,0-8.6,2.1-11.2,5.3L45,54.9  c0.6-1.9,1-3.8,1-5.9c0-2.4-0.5-4.8-1.4-6.9l15.9-8.9c2.3,2.3,5.4,3.8,8.9,3.8C76.4,37,82,31.4,82,24.5S76.4,12,69.5,12L69.5,12z"/></svg>