<svg xmlns="http://www.w3.org/2000/svg" xmlns:xlink="http://www.w3.org/1999/xlink" version="1.1" x="0px" y="0px" viewBox="0 0 100 125" enable-background="new 0 0 100 100" xml:space="preserve"><path d="M82.379,65.432v-8.574c0-0.828-0.672-1.5-1.5-1.5H51.5V48.3c8.713-0.313,17.068-3.348,17.068-8.882V15.157  c0-5.851-9.341-8.912-18.568-8.912s-18.568,3.062-18.568,8.912v24.261c0,5.534,8.356,8.569,17.068,8.882v7.058H19.121  c-0.828,0-1.5,0.672-1.5,1.5v8.574C11.887,65.756,6.52,67.928,6.52,71.808v15.524c0,4.217,6.34,6.423,12.602,6.423  s12.602-2.206,12.602-6.423V71.808c0-3.879-5.367-6.052-11.102-6.375v-7.074H48.5v7.074c-5.734,0.324-11.102,2.496-11.102,6.375  v15.524c0,4.217,6.34,6.423,12.602,6.423s12.602-2.206,12.602-6.423V71.808c0-3.879-5.367-6.052-11.102-6.375v-7.074h27.879v7.074  c-5.734,0.324-11.102,2.496-11.102,6.375v15.524c0,4.217,6.34,6.423,12.602,6.423s12.602-2.206,12.602-6.423V71.808  C93.48,67.928,88.113,65.756,82.379,65.432z M64.568,25.229c-2.128,2.12-7.521,3.959-14.568,3.959s-12.44-1.84-14.568-3.959v-6.301  c2.688,2.36,8.07,3.902,14.568,3.902s11.881-1.542,14.568-3.902V25.229z M35.432,27.812c3.103,2.068,8.36,3.376,14.568,3.376  s11.465-1.309,14.568-3.376v5.441c-2.128,2.12-7.521,3.959-14.568,3.959s-12.44-1.84-14.568-3.959V27.812z M50,9.417  c8.464,0,14.418,3.061,14.418,5.542c0,3.083-5.921,5.872-14.418,5.872s-14.418-2.663-14.418-5.872  C35.582,12.728,41.536,9.417,50,9.417z M35.432,39.418v-3.582c3.103,2.068,8.36,3.376,14.568,3.376s11.465-1.309,14.568-3.376v3.582  c0,1.956-5.811,4.913-14.568,4.913S35.432,41.374,35.432,39.418z M10.52,80.717c2.257,1.122,5.482,1.709,8.602,1.709  s6.345-0.587,8.602-1.709v2.825c-1.467,1.063-4.482,2.018-8.602,2.018s-7.135-0.956-8.602-2.018V80.717z M27.723,78.407  c-1.467,1.063-4.482,2.018-8.602,2.018s-7.135-0.956-8.602-2.018v-3.244c2.116,1.254,5.415,1.914,8.602,1.914  c3.187,0,6.486-0.66,8.602-1.914V78.407z M19.121,89.755c-5.266,0-8.417-1.713-8.602-2.423V85.85  c2.257,1.122,5.482,1.709,8.602,1.709s6.345-0.587,8.602-1.709v1.464C27.526,88.048,24.377,89.755,19.121,89.755z M27.723,71.808  V72.6c-0.89,1.171-4.047,2.477-8.602,2.477c-4.553,0-7.711-1.305-8.602-2.476v-0.777c0.177-0.66,2.754-2.105,7.102-2.387v2.525  c0,0.828,0.672,1.5,1.5,1.5s1.5-0.672,1.5-1.5v-2.525C24.977,69.719,27.556,71.168,27.723,71.808z M41.398,80.717  c2.257,1.122,5.482,1.709,8.602,1.709s6.345-0.587,8.602-1.709v2.825C57.135,84.604,54.119,85.56,50,85.56s-7.135-0.956-8.602-2.018  V80.717z M58.602,78.407c-1.467,1.063-4.482,2.018-8.602,2.018s-7.135-0.956-8.602-2.018v-3.245  c2.116,1.254,5.415,1.914,8.602,1.914s6.486-0.66,8.602-1.914V78.407z M50,89.755c-5.266,0-8.417-1.713-8.602-2.423V85.85  C43.655,86.972,46.88,87.56,50,87.56s6.345-0.587,8.602-1.709v1.465C58.405,88.048,55.256,89.755,50,89.755z M58.602,71.808V72.6  c-0.89,1.171-4.047,2.477-8.602,2.477s-7.712-1.306-8.602-2.477v-0.776c0.177-0.66,2.754-2.105,7.102-2.387v2.371  c0,0.828,0.672,1.5,1.5,1.5s1.5-0.672,1.5-1.5v-2.371C55.856,69.719,58.435,71.168,58.602,71.808z M89.48,78.407  c-1.467,1.063-4.482,2.018-8.602,2.018s-7.135-0.956-8.602-2.018v-3.245c2.116,1.254,5.415,1.914,8.602,1.914  c3.186,0,6.485-0.66,8.602-1.914V78.407z M72.277,80.717c2.257,1.122,5.482,1.709,8.602,1.709s6.345-0.587,8.602-1.709v2.825  c-1.467,1.063-4.482,2.018-8.602,2.018s-7.135-0.956-8.602-2.018V80.717z M79.379,69.437v2.371c0,0.828,0.672,1.5,1.5,1.5  s1.5-0.672,1.5-1.5v-2.371c4.356,0.282,6.935,1.731,7.102,2.371v0.794c-0.891,1.171-4.049,2.476-8.602,2.476  c-4.554,0-7.712-1.306-8.602-2.477v-0.775C72.454,71.164,75.032,69.719,79.379,69.437z M80.879,89.755  c-5.265,0-8.417-1.713-8.602-2.423V85.85c2.257,1.122,5.482,1.709,8.602,1.709s6.345-0.587,8.602-1.709v1.465  C89.284,88.048,86.135,89.755,80.879,89.755z"/></svg>