<svg xmlns="http://www.w3.org/2000/svg" xmlns:xlink="http://www.w3.org/1999/xlink" version="1.1" x="0px" y="0px" viewBox="0 0 48 60" style="enable-background:new 0 0 48 48;" xml:space="preserve"><path d="M19.6660156,42.3339844c-0.2558594,0-0.5117188-0.0976562-0.7070312-0.2929688l-13-13  c-0.390625-0.390625-0.390625-1.0234375,0-1.4140625L27.6269531,5.9589844c0.1875-0.1875,0.4414062-0.2929688,0.7070312-0.2929688  h13c0.5527344,0,1,0.4477539,1,1v13c0,0.2651367-0.1054688,0.5195312-0.2929688,0.7070312L20.3730469,42.0410156  C20.1777344,42.2363281,19.921875,42.3339844,19.6660156,42.3339844z M8.0800781,28.3339844l11.5859375,11.5859375  l20.6679688-20.6679688V7.6660156H28.7480469L8.0800781,28.3339844z M34.8330078,16.3339844  c-1.7460938,0-3.1669922-1.4208984-3.1669922-3.1669922S33.0869141,10,34.8330078,10S38,11.4208984,38,13.1669922  S36.5791016,16.3339844,34.8330078,16.3339844z M34.8330078,12c-0.6435547,0-1.1669922,0.5234375-1.1669922,1.1669922  s0.5234375,1.1669922,1.1669922,1.1669922S36,13.8105469,36,13.1669922S35.4765625,12,34.8330078,12z"/></svg>