<svg xmlns="http://www.w3.org/2000/svg" xmlns:xlink="http://www.w3.org/1999/xlink" version="1.1" x="0px" y="0px" viewBox="0 0 100 125" enable-background="new 0 0 100 100" xml:space="preserve"><path d="M69.563,16.742l-0.01,6.128c-0.109,3.697-8.816,6.684-19.553,6.684c-10.804,0-19.563-3.023-19.563-6.753v-7.273  c0,3.73,8.759,6.753,19.563,6.753c9.809,0,17.908-2.495,19.321-5.745l0-0.037l0.012,0.012c0.136-0.322,0.23-0.648,0.23-0.983V16.742  z M50,19.142c10.804,0,19.563-3.023,19.563-6.753c0-3.729-8.759-6.753-19.563-6.753S30.437,8.66,30.437,12.389  C30.437,16.119,39.196,19.142,50,19.142z M50,32.567c-10.804,0-19.563-3.024-19.563-6.753v7.273c0,3.729,8.759,6.753,19.563,6.753  c10.804,0,19.563-3.024,19.563-6.753v-7.273C69.563,29.543,60.804,32.567,50,32.567z M81.54,89.751  c-6.854,0-12.41-1.918-12.41-4.284v4.614c0,2.366,5.556,4.284,12.41,4.284c6.854,0,12.41-1.918,12.41-4.284v-4.614  C93.95,87.833,88.394,89.751,81.54,89.751z M81.54,74.709c6.854,0,12.41-1.918,12.41-4.284c0-2.174-4.696-3.966-10.775-4.243v-8.31  c0-0.848-0.688-1.537-1.537-1.537H51.537v-6.234c10.085-0.271,18.026-3.179,18.026-6.73v-7.273c0,3.73-8.759,6.753-19.563,6.753  c-10.804,0-19.563-3.024-19.563-6.753v7.273c0,3.551,7.941,6.459,18.026,6.73v6.234H18.362c-0.848,0-1.537,0.688-1.537,1.537v8.31  C10.745,66.46,6.05,68.251,6.05,70.425c0,2.366,5.556,4.284,12.41,4.284s12.41-1.918,12.41-4.284c0-2.198-4.797-4.006-10.972-4.253  V59.41h28.565v6.768c-6.127,0.262-10.874,2.062-10.874,4.248c0,2.366,5.556,4.284,12.41,4.284s12.41-1.918,12.41-4.284  c0-2.186-4.746-3.986-10.874-4.248V59.41h28.565v6.762c-6.175,0.247-10.972,2.055-10.972,4.253  C69.129,72.792,74.686,74.709,81.54,74.709z M93.797,73.033l0,0.024c-0.897,2.062-6.035,3.644-12.257,3.644  c-6.854,0-12.41-1.918-12.41-4.284v4.614c0,2.366,5.556,4.284,12.41,4.284c6.811,0,12.335-1.895,12.404-4.24l0.006-3.888v-0.77  c0,0.212-0.06,0.419-0.146,0.624L93.797,73.033z M81.54,83.226c-6.854,0-12.41-1.918-12.41-4.284v4.614  c0,2.366,5.556,4.284,12.41,4.284c6.854,0,12.41-1.918,12.41-4.284v-4.614C93.95,81.308,88.394,83.226,81.54,83.226z M50,89.751  c-6.854,0-12.41-1.918-12.41-4.284v4.614c0,2.366,5.556,4.284,12.41,4.284c6.854,0,12.41-1.918,12.41-4.284v-4.614  C62.41,87.833,56.854,89.751,50,89.751z M62.257,73.033l0,0.024C61.36,75.118,56.222,76.701,50,76.701  c-6.854,0-12.41-1.918-12.41-4.284v4.614c0,2.366,5.556,4.284,12.41,4.284c6.811,0,12.335-1.895,12.404-4.24l0.006-3.888v-0.77  c0,0.212-0.06,0.419-0.146,0.624L62.257,73.033z M50,83.226c-6.854,0-12.41-1.918-12.41-4.284v4.614  c0,2.366,5.556,4.284,12.41,4.284c6.854,0,12.41-1.918,12.41-4.284v-4.614C62.41,81.308,56.854,83.226,50,83.226z M18.46,89.751  c-6.854,0-12.41-1.918-12.41-4.284v4.614c0,2.366,5.556,4.284,12.41,4.284c6.854,0,12.41-1.918,12.41-4.284v-4.614  C30.871,87.833,25.314,89.751,18.46,89.751z M30.717,73.033l0,0.024c-0.897,2.062-6.035,3.644-12.257,3.644  c-6.854,0-12.41-1.918-12.41-4.284v4.614c0,2.366,5.556,4.284,12.41,4.284c6.811,0,12.335-1.895,12.404-4.24l0.006-3.888v-0.77  c0,0.212-0.06,0.419-0.146,0.624L30.717,73.033z M18.46,83.226c-6.854,0-12.41-1.918-12.41-4.284v4.614  c0,2.366,5.556,4.284,12.41,4.284c6.854,0,12.41-1.918,12.41-4.284v-4.614C30.871,81.308,25.314,83.226,18.46,83.226z"/></svg>