<svg xmlns="http://www.w3.org/2000/svg" xmlns:xlink="http://www.w3.org/1999/xlink" version="1.1" x="0px" y="0px" viewBox="0 0 32 40" enable-background="new 0 0 32 32" xml:space="preserve"><g><path d="M10.2,18.3L10.2,18.3c1.4-0.9,2.3-2.2,2.7-3.7c0.1-0.5,0.2-1,0.2-1.6C13.2,9.7,10.4,7,7,7s-6.1,2.8-6.1,6.1   c0,2.1,1.1,4.1,2.9,5.2C5.7,19.6,8.3,19.6,10.2,18.3z"/><polygon points="24.4,1.7 24.4,7.2 29.9,7.2  "/><path d="M9.8,20.4c-0.2,0.1-0.4,0.2-0.7,0.2c0,0-0.1,0-0.1,0c-0.3,0.1-0.5,0.1-0.8,0.2c-0.1,0-0.2,0-0.4,0c-0.2,0-0.4,0-0.6,0   c-0.1,0-0.2,0-0.3,0c-0.1,0-0.2,0-0.3,0c-0.2,0-0.4,0-0.6,0c-0.1,0-0.2,0-0.4-0.1c-0.3,0-0.5-0.1-0.8-0.2c0,0-0.1,0-0.1,0   c-0.2-0.1-0.4-0.1-0.6-0.2v7l2.2-2.2c0,0,0,0,0,0c0.1-0.1,0.1-0.1,0.2-0.2c0,0,0,0,0,0c0,0,0,0,0,0c0.1,0,0.2,0,0.2,0c0,0,0,0,0,0   c0,0,0,0,0.1,0c0.1,0,0.1,0,0.2,0c0,0,0.1,0,0.1,0c0.1,0,0.2,0.1,0.2,0.2l2.2,2.2V20.4z"/><path d="M22.7,8.1V0.5H8.8c-0.5,0-1,0.4-1,1v3.9c0.2,0,0.5,0.1,0.7,0.1c0,0,0,0,0,0c0.2,0,0.5,0.1,0.7,0.2c0.1,0,0.2,0.1,0.2,0.1   C9.7,5.8,9.9,5.8,10,5.9c0.1,0,0.2,0.1,0.3,0.1c0.1,0.1,0.3,0.1,0.4,0.2c0.1,0,0.2,0.1,0.3,0.2c0.1,0.1,0.2,0.1,0.4,0.2   c0.1,0.1,0.2,0.1,0.3,0.2c0.1,0.1,0.2,0.2,0.3,0.2c0.1,0.1,0.2,0.1,0.2,0.2c0.1,0.1,0.2,0.2,0.3,0.3c0.1,0.1,0.2,0.2,0.2,0.2   c0.1,0.1,0.2,0.2,0.3,0.3c0.1,0.1,0.1,0.2,0.2,0.3c0.1,0.1,0.2,0.2,0.2,0.3c0.1,0.1,0.1,0.2,0.2,0.3c0.1,0.1,0.1,0.2,0.2,0.3   c0.1,0.1,0.1,0.2,0.2,0.3c0.1,0.1,0.1,0.2,0.2,0.4c0,0.1,0.1,0.2,0.1,0.3c0.1,0.1,0.1,0.3,0.1,0.4c0,0.1,0.1,0.2,0.1,0.3   c0,0.1,0.1,0.3,0.1,0.4c0,0.1,0.1,0.2,0.1,0.3c0,0.2,0.1,0.3,0.1,0.5c0,0.1,0,0.2,0,0.3c0,0.3,0,0.5,0,0.8c0,0.3,0,0.7-0.1,1   c0,0.1,0,0.2-0.1,0.3c0,0.2-0.1,0.4-0.1,0.6c0,0.1-0.1,0.2-0.1,0.4c-0.1,0.2-0.1,0.4-0.2,0.5c0,0.1-0.1,0.3-0.2,0.4   c-0.1,0.2-0.1,0.3-0.2,0.5c-0.1,0.1-0.1,0.2-0.2,0.4c-0.1,0.2-0.2,0.3-0.3,0.4c-0.1,0.1-0.2,0.2-0.3,0.3c-0.1,0.1-0.2,0.3-0.3,0.4   c-0.1,0.1-0.2,0.2-0.3,0.3c-0.1,0.1-0.3,0.2-0.4,0.4c-0.1,0.1-0.2,0.2-0.4,0.3c-0.1,0.1-0.1,0.1-0.2,0.2v9.9c0,0.3-0.2,0.6-0.5,0.8   c-0.1,0-0.2,0.1-0.3,0.1c0,0,0,0,0,0c0,0,0,0-0.1,0c-0.1,0-0.1,0-0.2,0c0,0-0.1,0-0.1,0c-0.1,0-0.2-0.1-0.2-0.2l-2.2-2.2v2.7   c0,0.5,0.4,1,1,1h21.3c0.5,0,1-0.4,1-1V8.9h-7.6C23.1,8.9,22.7,8.5,22.7,8.1z"/></g></svg>