<svg xmlns="http://www.w3.org/2000/svg" xmlns:xlink="http://www.w3.org/1999/xlink" version="1.1" x="0px" y="0px" viewBox="0 0 64 80" enable-background="new 0 0 64 64" xml:space="preserve"><g><g><path d="M38.857,25.389l5.407-5.27c0.272-0.266,0.37-0.663,0.253-1.025c-0.118-0.362-0.431-0.626-0.808-0.681l-7.472-1.085    l-3.342-6.771c-0.336-0.683-1.457-0.683-1.793,0l-3.342,6.771l-7.472,1.085c-0.377,0.055-0.689,0.319-0.808,0.681    c-0.117,0.362-0.02,0.759,0.253,1.025l5.407,5.27l-1.276,7.442c-0.064,0.375,0.09,0.754,0.397,0.978    c0.311,0.224,0.718,0.253,1.053,0.076L32,30.372l6.684,3.513C38.829,33.962,38.989,34,39.148,34c0.207,0,0.414-0.064,0.588-0.191    c0.308-0.224,0.462-0.603,0.397-0.978L38.857,25.389z M36.798,25.209l1.022,5.963l-5.355-2.815    C32.319,28.28,32.16,28.242,32,28.242s-0.319,0.038-0.465,0.115l-5.355,2.815l1.022-5.963c0.056-0.324-0.052-0.655-0.287-0.885    l-4.332-4.222l5.986-0.87c0.326-0.047,0.607-0.252,0.753-0.547L32,13.26l2.678,5.425c0.146,0.295,0.427,0.5,0.753,0.547    l5.986,0.87l-4.332,4.222C36.85,24.554,36.742,24.885,36.798,25.209z"/><path d="M51.953,54.699l-5.964-18.886C49.09,32.43,51,27.939,51,23c0-10.477-8.523-19-19-19s-19,8.523-19,19    c0,4.939,1.91,9.43,5.011,12.813l-5.964,18.886c-0.115,0.365-0.013,0.764,0.265,1.027s0.681,0.344,1.04,0.211l7.281-2.73    l4.554,6.375C25.376,59.847,25.681,60,26,60c0.058,0,0.116-0.005,0.174-0.015c0.379-0.067,0.687-0.346,0.79-0.717l4.8-17.279    C31.844,41.989,31.92,42,32,42s0.156-0.011,0.236-0.012l4.8,17.279c0.104,0.371,0.411,0.65,0.79,0.717    C37.885,59.995,37.942,60,38,60c0.319,0,0.624-0.153,0.813-0.419l4.554-6.375l7.281,2.73c0.359,0.134,0.762,0.053,1.04-0.211    C51.966,55.462,52.068,55.063,51.953,54.699z M25.597,56.715l-3.783-5.296c-0.263-0.37-0.74-0.515-1.165-0.355l-6.076,2.279    l5.041-15.966c2.788,2.405,6.272,4.013,10.112,4.474L25.597,56.715z M15,23c0-9.374,7.626-17,17-17s17,7.626,17,17    s-7.626,17-17,17S15,32.374,15,23z M43.352,51.063c-0.426-0.159-0.903-0.014-1.165,0.355l-3.783,5.296l-4.129-14.865    c3.84-0.461,7.324-2.069,10.112-4.474l5.041,15.966L43.352,51.063z"/></g></g></svg>