<svg xmlns="http://www.w3.org/2000/svg" xmlns:xlink="http://www.w3.org/1999/xlink" version="1.1" x="0px" y="0px" viewBox="0 0 67 83.75" enable-background="new 0 0 67 67" xml:space="preserve"><g><path d="M20.65356,3.93018V9.7085h-5.49365v4.87305H7.81519V28.8999h2V16.58154c0.1024,0.00001,30.28582,0.00225,30.00635,0.00195   v2.82715H23.40161v2h16.41992v4.03711h8.70703v-2h-6.70703v-2.03711h7.70703v-4.8291c1.44765-0.00001,9.6188-0.00004,9.47266,0   v3.49512h-6.96387v27.50098h6.96387v3.49512c-1.30993-0.00006-31.42522-0.0015-40.90234-0.00195v-4.75684h28.43359v-4.07617h-2   v2.07617H16.09888v6.75684H9.81519V38.75439h-2v14.31836h1.10205v5.23242h2.00244v5.76465h2v-5.76465h1.45264v5.76465h2v-5.76465   h1.45313v5.76465h2v-5.76465h1.45264v5.76465h2v-5.76465h2.00244v-5.23242h17.76367v3.2959H32.22485v2h23.63867v-2H45.04419   v-3.2959h15.95703v-2.92969h3.99902v-2h-3.99902v-0.56543h0.00781v-1.26367h3.99121v-2h-3.99121v-1.8291h3.99121v-2h-3.99121   v-1.8291h3.99121v-2h-3.99121v-1.8291h3.99121v-2h-3.99121v-1.82813h3.99121v-2h-3.99121v-1.8291h3.99121v-2h-3.99121v-1.8291   h3.99121v-2h-3.99121v-1.26367h-0.00781v-0.56543h3.99902v-2h-3.99902v-2.92969H56.6145v-3.91406h-1.78809V8.48779   c0-3.06445-2.49316-5.55762-5.55859-5.55762H33.5564v2h6.26514V9.7085h-5.93311v4.87305h-4.8623V9.7085h-6.37256V3.93018H20.65356z    M23.28052,56.30518H10.91724v-3.23242h12.36328V56.30518z M54.03735,45.57764V22.07666h4.96387v23.50098H54.03735z    M41.82153,19.41064V16.5835h5.70703v2.82715H41.82153z M53.03833,14.58154v-1.91406h1.57617v1.91406H53.03833z M41.82153,4.93018   h7.44629c1.96191,0,3.55859,1.5957,3.55859,3.55762v2.17969h-1.78809v3.91406h-3.28418V9.7085h-5.93262V4.93018z M35.88843,11.7085   h9.86572v2.87305h-9.86572V11.7085z M27.02612,14.58154h-9.86621V11.7085h9.86621V14.58154z"/><rect x="43.74829" y="59.68701" width="2.18555" height="2"/><rect x="39.06421" y="59.68701" width="2.18506" height="2"/><rect x="48.43286" y="59.68701" width="2.18457" height="2"/><rect x="53.11743" y="59.68701" width="2.18457" height="2"/><rect x="34.37964" y="59.68701" width="2.18506" height="2"/><polygon points="44.53247,26.6333 44.53247,28.81689 42.3479,28.81689 42.3479,30.81689 44.53247,30.81689 44.53247,33.00049    46.53247,33.00049 46.53247,30.81689 48.71606,30.81689 48.71606,28.81689 46.53247,28.81689 46.53247,26.6333  "/><rect x="42.3479" y="38.80518" width="6.36816" height="2"/><rect x="11.78979" y="19.41064" width="1.99805" height="2"/><rect x="15.53589" y="19.41064" width="1.99756" height="2"/><rect x="19.28149" y="19.41064" width="1.99756" height="2"/><rect x="55.52271" y="24.65381" width="2" height="1.43555"/><rect x="55.52271" y="28.88232" width="2" height="1.43457"/><rect x="55.52271" y="33.10986" width="2" height="1.43457"/><rect x="55.52271" y="37.3374" width="2" height="1.43457"/><rect x="55.52271" y="41.56494" width="2" height="1.43555"/><path d="M31.42798,38.13232l10.06152-2.24805v-4.11426L31.42554,29.521l-1.06006,1.29297L1.99976,30.81494v6.03418h28.36768   L31.42798,38.13232z M3.99976,32.81494l27.31201-0.00098l0.87939-1.07227l7.29834,1.62988v0.91113l-7.30078,1.63086   l-0.87891-1.06445H3.99976V32.81494z"/><rect x="20.28003" y="39.76904" width="2.78418" height="2"/><rect x="25.24243" y="39.76904" width="2.78369" height="2"/><rect x="30.20435" y="39.76904" width="2.78369" height="2"/></g></svg>