<?xml version="1.0" encoding="UTF-8" standalone="no"?>
<svg
   xmlns:dc="http://purl.org/dc/elements/1.1/"
   xmlns:cc="http://creativecommons.org/ns#"
   xmlns:rdf="http://www.w3.org/1999/02/22-rdf-syntax-ns#"
   xmlns:svg="http://www.w3.org/2000/svg"
   xmlns="http://www.w3.org/2000/svg"
   xmlns:sodipodi="http://sodipodi.sourceforge.net/DTD/sodipodi-0.dtd"
   xmlns:inkscape="http://www.inkscape.org/namespaces/inkscape"
   viewBox="0 0 68 68"
   x="0px"
   y="0px"
   version="1.1"
   id="svg2199"
   sodipodi:docname="noun_bicycle_chain.svg"
   width="68"
   height="68"
   inkscape:version="0.92.4 (5da689c313, 2019-01-14)">
  <metadata
     id="metadata2205">
    <rdf:RDF>
      <cc:Work
         rdf:about="">
        <dc:format>image/svg+xml</dc:format>
        <dc:type
           rdf:resource="http://purl.org/dc/dcmitype/StillImage" />
        <dc:title />
      </cc:Work>
    </rdf:RDF>
  </metadata>
  <defs
     id="defs2203" />
  <sodipodi:namedview
     pagecolor="#ffffff"
     bordercolor="#666666"
     borderopacity="1"
     objecttolerance="10"
     gridtolerance="10"
     guidetolerance="10"
     inkscape:pageopacity="0"
     inkscape:pageshadow="2"
     inkscape:window-width="1920"
     inkscape:window-height="1017"
     id="namedview2201"
     showgrid="false"
     fit-margin-top="0"
     fit-margin-left="0"
     fit-margin-right="0"
     fit-margin-bottom="0"
     inkscape:zoom="8"
     inkscape:cx="43.989073"
     inkscape:cy="31.454755"
     inkscape:window-x="-8"
     inkscape:window-y="-8"
     inkscape:window-maximized="1"
     inkscape:current-layer="svg2199" />
  <g
     id="g2197"
     style="fill:#2f353a;fill-rule:evenodd;fill-opacity:1">
    <path
       d="m 22.544279,27.967552 12.737763,4.899139 c 1.030945,0.396518 2.188132,-0.117788 2.584649,-1.148733 0.396518,-1.030945 -0.117788,-2.188132 -1.148733,-2.584649 L 26.126751,25.059768 C 28.533913,22.398943 30,18.870683 30,15 30,14.299179 29.95194,13.609583 29.858931,12.934329 l 14.493737,4.958014 c 1.045112,0.357511 2.182163,-0.199899 2.539675,-1.245011 0.357511,-1.045112 -0.199899,-2.182163 -1.245011,-2.539675 L 28.372905,8.1984252 C 25.893153,3.3325684 20.835758,0 15,0 6.7157287,0 0,6.7157287 0,15 c 0,8.284271 6.7157287,15 15,15 2.750451,0 5.328002,-0.740274 7.544279,-2.032448 z M 4,15 C 4,8.9248678 8.9248678,4 15,4 21.075132,4 26,8.9248678 26,15 26,21.075132 21.075132,26 15,26 8.9248678,26 4,21.075132 4,15 Z"
       id="path2189"
       inkscape:connector-curvature="0"
       style="fill:#2f353a;fill-opacity:1" />
    <path
       d="M 38.795934,31.833935 28.312213,41.51397 c -0.811535,0.749323 -2.076861,0.698889 -2.826183,-0.112646 -0.749323,-0.811535 -0.69889,-2.07686 0.112646,-2.826183 L 38.000502,27.124043 C 38.000168,27.082735 38,27.041387 38,27 c 0,-8.284271 6.715729,-15 15,-15 8.284271,0 15,6.715729 15,15 0,8.284271 -6.715729,15 -15,15 -0.392536,0 -0.781551,-0.01508 -1.166496,-0.04469 L 38.360902,54.465587 c -0.809421,0.751606 -2.074884,0.704737 -2.826489,-0.104685 -0.751606,-0.809421 -0.704737,-2.074884 0.104685,-2.826489 L 47.171669,40.825597 c -3.923175,-1.65588 -6.994855,-4.932869 -8.375735,-8.991662 z M 53,38 c 6.075132,0 11,-4.924868 11,-11 0,-6.075132 -4.924868,-11 -11,-11 -6.075132,0 -11,4.924868 -11,11 0,6.075132 4.924868,11 11,11 z"
       id="path2191"
       inkscape:connector-curvature="0"
       style="fill:#2f353a;fill-opacity:1" />
    <path
       d="M 39,53 C 39,44.715729 32.284271,38 24,38 15.715729,38 9,44.715729 9,53 c 0,8.284271 6.715729,15 15,15 8.284271,0 15,-6.715729 15,-15 z m -26,0 c 0,-6.075132 4.924868,-11 11,-11 6.075132,0 11,4.924868 11,11 0,6.075132 -4.924868,11 -11,11 -6.075132,0 -11,-4.924868 -11,-11 z"
       id="path2193"
       inkscape:connector-curvature="0"
       style="fill:#2f353a;fill-opacity:1" />
    <path
       d="m 31,53 c 0,-3.865993 -3.134007,-7 -7,-7 -3.865993,0 -7,3.134007 -7,7 0,3.865993 3.134007,7 7,7 3.865993,0 7,-3.134007 7,-7 z m -10,0 c 0,-1.656854 1.343146,-3 3,-3 1.656854,0 3,1.343146 3,3 0,1.656854 -1.343146,3 -3,3 -1.656854,0 -3,-1.343146 -3,-3 z M 60,27 c 0,-3.865993 -3.134007,-7 -7,-7 -3.865993,0 -7,3.134007 -7,7 0,3.865993 3.134007,7 7,7 3.865993,0 7,-3.134007 7,-7 z m -10,0 c 0,-1.656854 1.343146,-3 3,-3 1.656854,0 3,1.343146 3,3 0,1.656854 -1.343146,3 -3,3 -1.656854,0 -3,-1.343146 -3,-3 z M 22,15 c 0,-3.865993 -3.134007,-7 -7,-7 -3.865993,0 -7,3.134007 -7,7 0,3.865993 3.134007,7 7,7 3.865993,0 7,-3.134007 7,-7 z m -10,0 c 0,-1.656854 1.343146,-3 3,-3 1.656854,0 3,1.343146 3,3 0,1.656854 -1.343146,3 -3,3 -1.656854,0 -3,-1.343146 -3,-3 z"
       id="path2195"
       inkscape:connector-curvature="0"
       style="fill:#2f353a;fill-opacity:1" />
  </g>
</svg>
