<svg xmlns="http://www.w3.org/2000/svg" data-name="Layer 1" viewBox="0 0 64 80" x="0px" y="0px"><title>machinery-machine-industrial-engine-production</title><path d="M30,27v3.26221a7.93933,7.93933,0,0,0-2.05762.85174l-2.30633-2.30633-2.82843,2.82843L25.114,33.94238A7.93933,7.93933,0,0,0,24.26221,36H21v4h3.26221a7.93933,7.93933,0,0,0,.85174,2.05762L22.80762,44.364l2.82843,2.82843,2.30633-2.30633A7.93933,7.93933,0,0,0,30,45.73779V49h4V45.73779a7.93933,7.93933,0,0,0,2.05762-.85174L38.364,47.19238,41.19238,44.364l-2.30633-2.30633A7.93933,7.93933,0,0,0,39.73779,40H43V36H39.73779a7.93933,7.93933,0,0,0-.85174-2.05762l2.30633-2.30633L38.364,28.80762,36.05762,31.114A7.93933,7.93933,0,0,0,34,30.26221V27Zm6,11a4,4,0,1,1-4-4A4,4,0,0,1,36,38Z"/><path d="M3,58a4,4,0,0,0,4,4H57a4,4,0,0,0,0-8H7A4,4,0,0,0,3,58Zm52-1h2v2H55Zm-6,0h2v2H49Zm-6,0h2v2H43Zm-6,0h2v2H37Zm-6,0h2v2H31Zm-6,0h2v2H25Zm-6,0h2v2H19Zm-6,0h2v2H13ZM7,57H9v2H7Z"/><rect x="50" y="46" width="6" height="6"/><rect x="8" y="46" width="6" height="6"/><rect x="6" y="6" width="21" height="2"/><rect x="2" y="6" width="2" height="2"/><rect x="60" y="6" width="2" height="2"/><rect x="37" y="6" width="21" height="2"/><path d="M2,4H31V5.18427a2.982,2.982,0,0,0,0,5.6314V12H30a.99974.99974,0,0,0-1,1v4H28v6h8V17H35V13a.99974.99974,0,0,0-1-1H33V10.81573a2.98208,2.98208,0,0,0,0-5.63146V4H62V2H2ZM33,16H31V14h2ZM32,7a1,1,0,1,1-1,1A1.001,1.001,0,0,1,32,7Z"/><polygon points="52 32 47 21 38 19 38 23 45 27 47 32 47 40 52 32"/><polygon points="17 32 19 26 26 23 26 19 17 21 12 32 17 40 17 32"/></svg>