<?xml version="1.0" encoding="UTF-8" standalone="no"?>
<svg
   xmlns:dc="http://purl.org/dc/elements/1.1/"
   xmlns:cc="http://creativecommons.org/ns#"
   xmlns:rdf="http://www.w3.org/1999/02/22-rdf-syntax-ns#"
   xmlns:svg="http://www.w3.org/2000/svg"
   xmlns="http://www.w3.org/2000/svg"
   xmlns:sodipodi="http://sodipodi.sourceforge.net/DTD/sodipodi-0.dtd"
   xmlns:inkscape="http://www.inkscape.org/namespaces/inkscape"
   version="1.1"
   x="0px"
   y="0px"
   viewBox="0 0 128.00011 124"
   xml:space="preserve"
   id="svg698"
   sodipodi:docname="noun_companies.svg"
   inkscape:version="0.92.4 (5da689c313, 2019-01-14)"
   width="33.866665mm"
   height="32.808334mm"><metadata
     id="metadata704"><rdf:RDF><cc:Work
         rdf:about=""><dc:format>image/svg+xml</dc:format><dc:type
           rdf:resource="http://purl.org/dc/dcmitype/StillImage" /><dc:title /></cc:Work></rdf:RDF></metadata><defs
     id="defs702"><clipPath
       clipPathUnits="userSpaceOnUse"
       id="clipPath1042"><rect
         style="fill:#818085;fill-opacity:0.91764706"
         id="rect1044"
         width="128.47771"
         height="124.64256"
         x="-0.23969379"
         y="1.56014" /></clipPath><clipPath
       clipPathUnits="userSpaceOnUse"
       id="clipPath1046"><rect
         style="fill:#818085;fill-opacity:0.91764706"
         id="rect1048"
         width="128.47771"
         height="124.64256"
         x="-0.23969379"
         y="1.56014" /></clipPath><clipPath
       clipPathUnits="userSpaceOnUse"
       id="clipPath1050"><rect
         style="fill:#818085;fill-opacity:0.91764706"
         id="rect1052"
         width="128.47771"
         height="124.64256"
         x="-0.23969379"
         y="1.56014" /></clipPath><clipPath
       clipPathUnits="userSpaceOnUse"
       id="clipPath1054"><rect
         style="fill:#818085;fill-opacity:0.91764706"
         id="rect1056"
         width="128.47771"
         height="124.64256"
         x="-0.23969379"
         y="1.56014" /></clipPath><clipPath
       clipPathUnits="userSpaceOnUse"
       id="clipPath1058"><rect
         style="fill:#818085;fill-opacity:0.91764706"
         id="rect1060"
         width="128.47771"
         height="124.64256"
         x="-0.23969379"
         y="1.56014" /></clipPath><clipPath
       clipPathUnits="userSpaceOnUse"
       id="clipPath1062"><rect
         style="fill:#818085;fill-opacity:0.91764706"
         id="rect1064"
         width="128.47771"
         height="124.64256"
         x="-0.23969379"
         y="1.56014" /></clipPath><clipPath
       clipPathUnits="userSpaceOnUse"
       id="clipPath1066"><rect
         style="fill:#818085;fill-opacity:0.91764706"
         id="rect1068"
         width="128.47771"
         height="124.64256"
         x="-0.23969379"
         y="1.56014" /></clipPath><clipPath
       clipPathUnits="userSpaceOnUse"
       id="clipPath1070"><rect
         style="fill:#818085;fill-opacity:0.91764706"
         id="rect1072"
         width="128.47771"
         height="124.64256"
         x="-0.23969379"
         y="1.56014" /></clipPath><clipPath
       clipPathUnits="userSpaceOnUse"
       id="clipPath1074"><rect
         style="fill:#818085;fill-opacity:0.91764706"
         id="rect1076"
         width="128.47771"
         height="124.64256"
         x="-0.23969379"
         y="1.56014" /></clipPath><clipPath
       clipPathUnits="userSpaceOnUse"
       id="clipPath1078"><rect
         style="fill:#818085;fill-opacity:0.91764706"
         id="rect1080"
         width="128.47771"
         height="124.64256"
         x="-0.23969379"
         y="1.56014" /></clipPath><clipPath
       clipPathUnits="userSpaceOnUse"
       id="clipPath1082"><rect
         style="fill:#818085;fill-opacity:0.91764706"
         id="rect1084"
         width="128.47771"
         height="124.64256"
         x="-0.23969379"
         y="1.56014" /></clipPath><clipPath
       clipPathUnits="userSpaceOnUse"
       id="clipPath1086"><rect
         style="fill:#818085;fill-opacity:0.91764706"
         id="rect1088"
         width="128.47771"
         height="124.64256"
         x="-0.23969379"
         y="1.56014" /></clipPath><clipPath
       clipPathUnits="userSpaceOnUse"
       id="clipPath1090"><rect
         style="fill:#818085;fill-opacity:0.91764706"
         id="rect1092"
         width="128.47771"
         height="124.64256"
         x="-0.23969379"
         y="1.56014" /></clipPath><clipPath
       clipPathUnits="userSpaceOnUse"
       id="clipPath1094"><rect
         style="fill:#818085;fill-opacity:0.91764706"
         id="rect1096"
         width="128.47771"
         height="124.64256"
         x="-0.23969379"
         y="1.56014" /></clipPath><clipPath
       clipPathUnits="userSpaceOnUse"
       id="clipPath1098"><rect
         style="fill:#818085;fill-opacity:0.91764706"
         id="rect1100"
         width="128.47771"
         height="124.64256"
         x="-0.23969379"
         y="1.56014" /></clipPath><clipPath
       clipPathUnits="userSpaceOnUse"
       id="clipPath1102"><rect
         style="fill:#818085;fill-opacity:0.91764706"
         id="rect1104"
         width="128.47771"
         height="124.64256"
         x="-0.23969379"
         y="1.56014" /></clipPath><clipPath
       clipPathUnits="userSpaceOnUse"
       id="clipPath1106"><rect
         style="fill:#818085;fill-opacity:0.91764706"
         id="rect1108"
         width="128.47771"
         height="124.64256"
         x="-0.23969379"
         y="1.56014" /></clipPath><clipPath
       clipPathUnits="userSpaceOnUse"
       id="clipPath1110"><rect
         style="fill:#818085;fill-opacity:0.91764706"
         id="rect1112"
         width="128.47771"
         height="124.64256"
         x="-0.23969379"
         y="1.56014" /></clipPath><clipPath
       clipPathUnits="userSpaceOnUse"
       id="clipPath1114"><rect
         style="fill:#818085;fill-opacity:0.91764706"
         id="rect1116"
         width="128.47771"
         height="124.64256"
         x="-0.23969379"
         y="1.56014" /></clipPath><clipPath
       clipPathUnits="userSpaceOnUse"
       id="clipPath1118"><rect
         style="fill:#818085;fill-opacity:0.91764706"
         id="rect1120"
         width="128.47771"
         height="124.64256"
         x="-0.23969379"
         y="1.56014" /></clipPath><clipPath
       clipPathUnits="userSpaceOnUse"
       id="clipPath1122"><rect
         style="fill:#818085;fill-opacity:0.91764706"
         id="rect1124"
         width="128.47771"
         height="124.64256"
         x="-0.23969379"
         y="1.56014" /></clipPath><clipPath
       clipPathUnits="userSpaceOnUse"
       id="clipPath1126"><rect
         style="fill:#818085;fill-opacity:0.91764706"
         id="rect1128"
         width="128.47771"
         height="124.64256"
         x="-0.23969379"
         y="1.56014" /></clipPath><clipPath
       clipPathUnits="userSpaceOnUse"
       id="clipPath1130"><rect
         style="fill:#818085;fill-opacity:0.91764706"
         id="rect1132"
         width="128.47771"
         height="124.64256"
         x="-0.23969379"
         y="1.56014" /></clipPath><clipPath
       clipPathUnits="userSpaceOnUse"
       id="clipPath1134"><rect
         style="fill:#818085;fill-opacity:0.91764706"
         id="rect1136"
         width="128.47771"
         height="124.64256"
         x="-0.23969379"
         y="1.56014" /></clipPath><clipPath
       clipPathUnits="userSpaceOnUse"
       id="clipPath1138"><rect
         style="fill:#818085;fill-opacity:0.91764706"
         id="rect1140"
         width="128.47771"
         height="124.64256"
         x="-0.23969379"
         y="1.56014" /></clipPath><clipPath
       clipPathUnits="userSpaceOnUse"
       id="clipPath1142"><rect
         style="fill:#818085;fill-opacity:0.91764706"
         id="rect1144"
         width="128.47771"
         height="124.64256"
         x="-0.23969379"
         y="1.56014" /></clipPath><clipPath
       clipPathUnits="userSpaceOnUse"
       id="clipPath1146"><rect
         style="fill:#818085;fill-opacity:0.91764706"
         id="rect1148"
         width="128.47771"
         height="124.64256"
         x="-0.23969379"
         y="1.56014" /></clipPath><clipPath
       clipPathUnits="userSpaceOnUse"
       id="clipPath1150"><rect
         style="fill:#818085;fill-opacity:0.91764706"
         id="rect1152"
         width="128.47771"
         height="124.64256"
         x="-0.23969379"
         y="1.56014" /></clipPath><clipPath
       clipPathUnits="userSpaceOnUse"
       id="clipPath1154"><rect
         style="fill:#818085;fill-opacity:0.91764706"
         id="rect1156"
         width="128.47771"
         height="124.64256"
         x="-0.23969379"
         y="1.56014" /></clipPath><clipPath
       clipPathUnits="userSpaceOnUse"
       id="clipPath1158"><rect
         style="fill:#818085;fill-opacity:0.91764706"
         id="rect1160"
         width="128.47771"
         height="124.64256"
         x="-0.23969379"
         y="1.56014" /></clipPath><clipPath
       clipPathUnits="userSpaceOnUse"
       id="clipPath1162"><rect
         style="fill:#818085;fill-opacity:0.91764706"
         id="rect1164"
         width="128.47771"
         height="124.64256"
         x="-0.23969379"
         y="1.56014" /></clipPath><clipPath
       clipPathUnits="userSpaceOnUse"
       id="clipPath1166"><rect
         style="fill:#818085;fill-opacity:0.91764706"
         id="rect1168"
         width="128.47771"
         height="124.64256"
         x="-0.23969379"
         y="1.56014" /></clipPath><clipPath
       clipPathUnits="userSpaceOnUse"
       id="clipPath1170"><rect
         style="fill:#818085;fill-opacity:0.91764706"
         id="rect1172"
         width="128.47771"
         height="124.64256"
         x="-0.23969379"
         y="1.56014" /></clipPath><clipPath
       clipPathUnits="userSpaceOnUse"
       id="clipPath1174"><rect
         style="fill:#818085;fill-opacity:0.91764706"
         id="rect1176"
         width="128.47771"
         height="124.64256"
         x="-0.23969379"
         y="1.56014" /></clipPath><clipPath
       clipPathUnits="userSpaceOnUse"
       id="clipPath1178"><rect
         style="fill:#818085;fill-opacity:0.91764706"
         id="rect1180"
         width="128.47771"
         height="124.64256"
         x="-0.23969379"
         y="1.56014" /></clipPath><clipPath
       clipPathUnits="userSpaceOnUse"
       id="clipPath1182"><rect
         style="fill:#818085;fill-opacity:0.91764706"
         id="rect1184"
         width="128.47771"
         height="124.64256"
         x="-0.23969379"
         y="1.56014" /></clipPath><clipPath
       clipPathUnits="userSpaceOnUse"
       id="clipPath1186"><rect
         style="fill:#818085;fill-opacity:0.91764706"
         id="rect1188"
         width="128.47771"
         height="124.64256"
         x="-0.23969379"
         y="1.56014" /></clipPath><clipPath
       clipPathUnits="userSpaceOnUse"
       id="clipPath1190"><rect
         style="fill:#818085;fill-opacity:0.91764706"
         id="rect1192"
         width="128.47771"
         height="124.64256"
         x="-0.23969379"
         y="1.56014" /></clipPath><clipPath
       clipPathUnits="userSpaceOnUse"
       id="clipPath1194"><rect
         style="fill:#818085;fill-opacity:0.91764706"
         id="rect1196"
         width="128.47771"
         height="124.64256"
         x="-0.23969379"
         y="1.56014" /></clipPath><clipPath
       clipPathUnits="userSpaceOnUse"
       id="clipPath1198"><rect
         style="fill:#818085;fill-opacity:0.91764706"
         id="rect1200"
         width="128.47771"
         height="124.64256"
         x="-0.23969379"
         y="1.56014" /></clipPath><clipPath
       clipPathUnits="userSpaceOnUse"
       id="clipPath1202"><rect
         style="fill:#818085;fill-opacity:0.91764706"
         id="rect1204"
         width="128.47771"
         height="124.64256"
         x="-0.23969379"
         y="1.56014" /></clipPath><clipPath
       clipPathUnits="userSpaceOnUse"
       id="clipPath1206"><rect
         style="fill:#818085;fill-opacity:0.91764706"
         id="rect1208"
         width="128.47771"
         height="124.64256"
         x="-0.23969379"
         y="1.56014" /></clipPath><clipPath
       clipPathUnits="userSpaceOnUse"
       id="clipPath1210"><rect
         style="fill:#818085;fill-opacity:0.91764706"
         id="rect1212"
         width="128.47771"
         height="124.64256"
         x="-0.23969379"
         y="1.56014" /></clipPath><clipPath
       clipPathUnits="userSpaceOnUse"
       id="clipPath1214"><rect
         style="fill:#818085;fill-opacity:0.91764706"
         id="rect1216"
         width="128.47771"
         height="124.64256"
         x="-0.23969379"
         y="1.56014" /></clipPath><clipPath
       clipPathUnits="userSpaceOnUse"
       id="clipPath1218"><rect
         style="fill:#818085;fill-opacity:0.91764706"
         id="rect1220"
         width="128.47771"
         height="124.64256"
         x="-0.23969379"
         y="1.56014" /></clipPath><clipPath
       clipPathUnits="userSpaceOnUse"
       id="clipPath1222"><rect
         style="fill:#818085;fill-opacity:0.91764706"
         id="rect1224"
         width="128.47771"
         height="124.64256"
         x="-0.23969379"
         y="1.56014" /></clipPath><clipPath
       clipPathUnits="userSpaceOnUse"
       id="clipPath1226"><rect
         style="fill:#818085;fill-opacity:0.91764706"
         id="rect1228"
         width="128.47771"
         height="124.64256"
         x="-0.23969379"
         y="1.56014" /></clipPath><clipPath
       clipPathUnits="userSpaceOnUse"
       id="clipPath1230"><rect
         style="fill:#818085;fill-opacity:0.91764706"
         id="rect1232"
         width="128.47771"
         height="124.64256"
         x="-0.23969379"
         y="1.56014" /></clipPath><clipPath
       clipPathUnits="userSpaceOnUse"
       id="clipPath1234"><rect
         style="fill:#818085;fill-opacity:0.91764706"
         id="rect1236"
         width="128.47771"
         height="124.64256"
         x="-0.23969379"
         y="1.56014" /></clipPath><clipPath
       clipPathUnits="userSpaceOnUse"
       id="clipPath1238"><rect
         style="fill:#818085;fill-opacity:0.91764706"
         id="rect1240"
         width="128.47771"
         height="124.64256"
         x="-0.23969379"
         y="1.56014" /></clipPath><clipPath
       clipPathUnits="userSpaceOnUse"
       id="clipPath1242"><rect
         style="fill:#818085;fill-opacity:0.91764706"
         id="rect1244"
         width="128.47771"
         height="124.64256"
         x="-0.23969379"
         y="1.56014" /></clipPath><clipPath
       clipPathUnits="userSpaceOnUse"
       id="clipPath1246"><rect
         style="fill:#818085;fill-opacity:0.91764706"
         id="rect1248"
         width="128.47771"
         height="124.64256"
         x="-0.23969379"
         y="1.56014" /></clipPath><clipPath
       clipPathUnits="userSpaceOnUse"
       id="clipPath1250"><rect
         style="fill:#818085;fill-opacity:0.91764706"
         id="rect1252"
         width="128.47771"
         height="124.64256"
         x="-0.23969379"
         y="1.56014" /></clipPath><clipPath
       clipPathUnits="userSpaceOnUse"
       id="clipPath1254"><rect
         style="fill:#818085;fill-opacity:0.91764706"
         id="rect1256"
         width="128.47771"
         height="124.64256"
         x="-0.23969379"
         y="1.56014" /></clipPath><clipPath
       clipPathUnits="userSpaceOnUse"
       id="clipPath1258"><rect
         style="fill:#818085;fill-opacity:0.91764706"
         id="rect1260"
         width="128.47771"
         height="124.64256"
         x="-0.23969379"
         y="1.56014" /></clipPath><clipPath
       clipPathUnits="userSpaceOnUse"
       id="clipPath1262"><rect
         style="fill:#818085;fill-opacity:0.91764706"
         id="rect1264"
         width="128.47771"
         height="124.64256"
         x="-0.23969379"
         y="1.56014" /></clipPath><clipPath
       clipPathUnits="userSpaceOnUse"
       id="clipPath1266"><rect
         style="fill:#818085;fill-opacity:0.91764706"
         id="rect1268"
         width="128.47771"
         height="124.64256"
         x="-0.23969379"
         y="1.56014" /></clipPath><clipPath
       clipPathUnits="userSpaceOnUse"
       id="clipPath1270"><rect
         style="fill:#818085;fill-opacity:0.91764706"
         id="rect1272"
         width="128.47771"
         height="124.64256"
         x="-0.23969379"
         y="1.56014" /></clipPath><clipPath
       clipPathUnits="userSpaceOnUse"
       id="clipPath1274"><rect
         style="fill:#818085;fill-opacity:0.91764706"
         id="rect1276"
         width="128.47771"
         height="124.64256"
         x="-0.23969379"
         y="1.56014" /></clipPath><clipPath
       clipPathUnits="userSpaceOnUse"
       id="clipPath1278"><rect
         style="fill:#818085;fill-opacity:0.91764706"
         id="rect1280"
         width="128.47771"
         height="124.64256"
         x="-0.23969379"
         y="1.56014" /></clipPath><clipPath
       clipPathUnits="userSpaceOnUse"
       id="clipPath1282"><rect
         style="fill:#818085;fill-opacity:0.91764706"
         id="rect1284"
         width="128.47771"
         height="124.64256"
         x="-0.23969379"
         y="1.56014" /></clipPath><clipPath
       clipPathUnits="userSpaceOnUse"
       id="clipPath1286"><rect
         style="fill:#818085;fill-opacity:0.91764706"
         id="rect1288"
         width="128.47771"
         height="124.64256"
         x="-0.23969379"
         y="1.56014" /></clipPath><clipPath
       clipPathUnits="userSpaceOnUse"
       id="clipPath1290"><rect
         style="fill:#818085;fill-opacity:0.91764706"
         id="rect1292"
         width="128.47771"
         height="124.64256"
         x="-0.23969379"
         y="1.56014" /></clipPath><clipPath
       clipPathUnits="userSpaceOnUse"
       id="clipPath1294"><rect
         style="fill:#818085;fill-opacity:0.91764706"
         id="rect1296"
         width="128.47771"
         height="124.64256"
         x="-0.23969379"
         y="1.56014" /></clipPath><clipPath
       clipPathUnits="userSpaceOnUse"
       id="clipPath1298"><rect
         style="fill:#818085;fill-opacity:0.91764706"
         id="rect1300"
         width="128.47771"
         height="124.64256"
         x="-0.23969379"
         y="1.56014" /></clipPath><clipPath
       clipPathUnits="userSpaceOnUse"
       id="clipPath1302"><rect
         style="fill:#818085;fill-opacity:0.91764706"
         id="rect1304"
         width="128.47771"
         height="124.64256"
         x="-0.23969379"
         y="1.56014" /></clipPath><clipPath
       clipPathUnits="userSpaceOnUse"
       id="clipPath1306"><rect
         style="fill:#818085;fill-opacity:0.91764706"
         id="rect1308"
         width="128.47771"
         height="124.64256"
         x="-0.23969379"
         y="1.56014" /></clipPath><clipPath
       clipPathUnits="userSpaceOnUse"
       id="clipPath1310"><rect
         style="fill:#818085;fill-opacity:0.91764706"
         id="rect1312"
         width="128.47771"
         height="124.64256"
         x="-0.23969379"
         y="1.56014" /></clipPath><clipPath
       clipPathUnits="userSpaceOnUse"
       id="clipPath1314"><rect
         style="fill:#818085;fill-opacity:0.91764706"
         id="rect1316"
         width="128.47771"
         height="124.64256"
         x="-0.23969379"
         y="1.56014" /></clipPath><clipPath
       clipPathUnits="userSpaceOnUse"
       id="clipPath1318"><rect
         style="fill:#818085;fill-opacity:0.91764706"
         id="rect1320"
         width="128.47771"
         height="124.64256"
         x="-0.23969379"
         y="1.56014" /></clipPath><clipPath
       clipPathUnits="userSpaceOnUse"
       id="clipPath1322"><rect
         style="fill:#818085;fill-opacity:0.91764706"
         id="rect1324"
         width="128.47771"
         height="124.64256"
         x="-0.23969379"
         y="1.56014" /></clipPath><clipPath
       clipPathUnits="userSpaceOnUse"
       id="clipPath1326"><rect
         style="fill:#818085;fill-opacity:0.91764706"
         id="rect1328"
         width="128.47771"
         height="124.64256"
         x="-0.23969379"
         y="1.56014" /></clipPath><clipPath
       clipPathUnits="userSpaceOnUse"
       id="clipPath1330"><rect
         style="fill:#818085;fill-opacity:0.91764706"
         id="rect1332"
         width="128.47771"
         height="124.64256"
         x="-0.23969379"
         y="1.56014" /></clipPath><clipPath
       clipPathUnits="userSpaceOnUse"
       id="clipPath1334"><rect
         style="fill:#818085;fill-opacity:0.91764706"
         id="rect1336"
         width="128.47771"
         height="124.64256"
         x="-0.23969379"
         y="1.56014" /></clipPath><clipPath
       clipPathUnits="userSpaceOnUse"
       id="clipPath1338"><rect
         style="fill:#818085;fill-opacity:0.91764706"
         id="rect1340"
         width="128.47771"
         height="124.64256"
         x="-0.23969379"
         y="1.56014" /></clipPath><clipPath
       clipPathUnits="userSpaceOnUse"
       id="clipPath1342"><rect
         style="fill:#818085;fill-opacity:0.91764706"
         id="rect1344"
         width="128.47771"
         height="124.64256"
         x="-0.23969379"
         y="1.56014" /></clipPath><clipPath
       clipPathUnits="userSpaceOnUse"
       id="clipPath1346"><rect
         style="fill:#818085;fill-opacity:0.91764706"
         id="rect1348"
         width="128.47771"
         height="124.64256"
         x="-0.23969379"
         y="1.56014" /></clipPath><clipPath
       clipPathUnits="userSpaceOnUse"
       id="clipPath1350"><rect
         style="fill:#818085;fill-opacity:0.91764706"
         id="rect1352"
         width="128.47771"
         height="124.64256"
         x="-0.23969379"
         y="1.56014" /></clipPath><clipPath
       clipPathUnits="userSpaceOnUse"
       id="clipPath1354"><rect
         style="fill:#818085;fill-opacity:0.91764706"
         id="rect1356"
         width="128.47771"
         height="124.64256"
         x="-0.23969379"
         y="1.56014" /></clipPath><clipPath
       clipPathUnits="userSpaceOnUse"
       id="clipPath1358"><rect
         style="fill:#818085;fill-opacity:0.91764706"
         id="rect1360"
         width="128.47771"
         height="124.64256"
         x="-0.23969379"
         y="1.56014" /></clipPath><clipPath
       clipPathUnits="userSpaceOnUse"
       id="clipPath1362"><rect
         style="fill:#818085;fill-opacity:0.91764706"
         id="rect1364"
         width="128.47771"
         height="124.64256"
         x="-0.23969379"
         y="1.56014" /></clipPath></defs><sodipodi:namedview
     pagecolor="#ffffff"
     bordercolor="#666666"
     borderopacity="1"
     objecttolerance="10"
     gridtolerance="10"
     guidetolerance="10"
     inkscape:pageopacity="0"
     inkscape:pageshadow="2"
     inkscape:window-width="1920"
     inkscape:window-height="1017"
     id="namedview700"
     showgrid="false"
     showguides="true"
     inkscape:guide-bbox="true"
     inkscape:zoom="4.17193"
     inkscape:cx="61.773706"
     inkscape:cy="44.868819"
     inkscape:window-x="-8"
     inkscape:window-y="-8"
     inkscape:window-maximized="1"
     inkscape:current-layer="svg698"
     inkscape:snap-page="true"
     units="in"
     width="840mm"
     fit-margin-top="0"
     fit-margin-left="0"
     fit-margin-right="0"
     fit-margin-bottom="0" /><polygon
     points="49.9,21.8 49.9,20.5 46.8,19.2 46.8,20.5 "
     id="polygon536"
     clip-path="url(#clipPath1362)"
     transform="translate(0,-2)"
     style="fill:#2f353a;fill-opacity:1" /><polygon
     points="49.9,19.7 49.9,18.4 46.8,17.1 46.8,18.4 "
     id="polygon538"
     clip-path="url(#clipPath1358)"
     transform="translate(0,-2)"
     style="fill:#2f353a;fill-opacity:1" /><polygon
     points="49.9,23.8 49.9,22.5 46.8,21.3 46.8,22.6 "
     id="polygon540"
     clip-path="url(#clipPath1354)"
     transform="translate(0,-2)"
     style="fill:#2f353a;fill-opacity:1" /><polygon
     points="49.9,25.9 49.9,24.6 46.8,23.3 46.8,24.6 "
     id="polygon542"
     clip-path="url(#clipPath1350)"
     transform="translate(0,-2)"
     style="fill:#2f353a;fill-opacity:1" /><polygon
     points="49.9,17.6 49.9,16.3 46.8,15.1 46.8,16.4 "
     id="polygon544"
     clip-path="url(#clipPath1346)"
     transform="translate(0,-2)"
     style="fill:#2f353a;fill-opacity:1" /><polygon
     points="49.9,30 49.9,28.7 46.8,27.5 46.8,28.8 "
     id="polygon546"
     clip-path="url(#clipPath1342)"
     transform="translate(0,-2)"
     style="fill:#2f353a;fill-opacity:1" /><path
     d="m 49.9,12.4 c 0,-0.4 -0.3,-0.8 -0.7,-1 l -2.4,-1.3 c 0,0 0,0 0,0 v 2.2 l 3.1,1.3 z"
     id="path548"
     clip-path="url(#clipPath1338)"
     inkscape:connector-curvature="0"
     transform="translate(0,-2)"
     style="fill:#2f353a;fill-opacity:1" /><polygon
     points="49.9,28 49.9,26.6 46.8,25.4 46.8,26.7 "
     id="polygon550"
     clip-path="url(#clipPath1334)"
     transform="translate(0,-2)"
     style="fill:#2f353a;fill-opacity:1" /><polygon
     points="49.9,15.6 49.9,14.3 46.8,13 46.8,14.3 "
     id="polygon552"
     clip-path="url(#clipPath1330)"
     transform="translate(0,-2)"
     style="fill:#2f353a;fill-opacity:1" /><polygon
     points="39.6,22.8 39.6,21.4 35.9,24 35.9,25.5 "
     id="polygon554"
     clip-path="url(#clipPath1326)"
     transform="translate(0,-2)"
     style="fill:#2f353a;fill-opacity:1" /><polygon
     points="39.6,25 39.6,23.7 35.9,26.4 35.9,27.7 "
     id="polygon556"
     clip-path="url(#clipPath1322)"
     transform="translate(0,-2)"
     style="fill:#2f353a;fill-opacity:1" /><path
     d="m 39.6,13.8 c -0.1,0 -0.2,0.1 -0.3,0.2 l -2.8,2.2 c -0.3,0.3 -0.6,0.8 -0.6,1.2 v 1.3 l 3.7,-2.6 z"
     id="path558"
     clip-path="url(#clipPath1318)"
     inkscape:connector-curvature="0"
     transform="translate(0,-2)"
     style="fill:#2f353a;fill-opacity:1" /><polygon
     points="39.6,27.3 39.6,25.9 35.9,28.6 35.9,30 "
     id="polygon560"
     clip-path="url(#clipPath1314)"
     transform="translate(0,-2)"
     style="fill:#2f353a;fill-opacity:1" /><polygon
     points="39.6,18.3 39.6,17 35.9,19.5 35.9,20.9 "
     id="polygon562"
     clip-path="url(#clipPath1310)"
     transform="translate(0,-2)"
     style="fill:#2f353a;fill-opacity:1" /><polygon
     points="39.6,20.6 39.6,19.2 35.9,21.8 35.9,23.1 "
     id="polygon564"
     clip-path="url(#clipPath1306)"
     transform="translate(0,-2)"
     style="fill:#2f353a;fill-opacity:1" /><path
     d="m 50.6,31.3 h -0.7 v -0.5 l -3.1,-1.3 v 1.8 H 46 V 10 c -0.2,0 -0.3,0.1 -0.4,0.2 l -1.3,1 C 44,11.5 43.7,12 43.7,12.3 V 31.2 H 42.9 V 15.6 c 0,-0.4 -0.3,-0.8 -0.7,-1 l -1.7,-0.8 c -0.1,0 -0.1,0 -0.2,-0.1 v 17.5 h -0.8 v -1 l -1.3,1 H 37 l 2.5,-1.9 V 28 l -3.7,2.7 v 0.4 h -0.6 c -0.2,0 -0.4,0.2 -0.4,0.3 0,0.2 0.2,0.3 0.4,0.3 h 0.6 0.2 1.2 5.5 0.8 6.2 0.7 c 0.2,0 0.4,-0.2 0.4,-0.3 0.2,0.1 0,-0.1 -0.2,-0.1 z"
     id="path566"
     clip-path="url(#clipPath1302)"
     inkscape:connector-curvature="0"
     transform="translate(0,-2)"
     style="fill:#2f353a;fill-opacity:1" /><polygon
     points="25.9,81.1 25.9,79.8 22.8,78.5 22.8,79.9 "
     id="polygon568"
     clip-path="url(#clipPath1298)"
     transform="translate(0,-2)"
     style="fill:#2f353a;fill-opacity:1" /><polygon
     points="25.9,79 25.9,77.7 22.8,76.5 22.8,77.8 "
     id="polygon570"
     clip-path="url(#clipPath1294)"
     transform="translate(0,-2)"
     style="fill:#2f353a;fill-opacity:1" /><polygon
     points="25.9,83.2 25.9,81.9 22.8,80.6 22.8,81.9 "
     id="polygon572"
     clip-path="url(#clipPath1290)"
     transform="translate(0,-2)"
     style="fill:#2f353a;fill-opacity:1" /><polygon
     points="25.9,85.2 25.9,83.9 22.8,82.7 22.8,84 "
     id="polygon574"
     clip-path="url(#clipPath1286)"
     transform="translate(0,-2)"
     style="fill:#2f353a;fill-opacity:1" /><polygon
     points="25.9,77 25.9,75.7 22.8,74.4 22.8,75.7 "
     id="polygon576"
     clip-path="url(#clipPath1282)"
     transform="translate(0,-2)"
     style="fill:#2f353a;fill-opacity:1" /><polygon
     points="25.9,89.4 25.9,88.1 22.8,86.8 22.8,88.1 "
     id="polygon578"
     clip-path="url(#clipPath1278)"
     transform="translate(0,-2)"
     style="fill:#2f353a;fill-opacity:1" /><path
     d="m 25.9,71.7 c 0,-0.4 -0.3,-0.8 -0.7,-1 l -2.4,-1.3 c 0,0 0,0 0,0 v 2.2 l 3.1,1.3 z"
     id="path580"
     clip-path="url(#clipPath1274)"
     inkscape:connector-curvature="0"
     transform="translate(0,-2)"
     style="fill:#2f353a;fill-opacity:1" /><polygon
     points="25.9,87.3 25.9,86 22.8,84.7 22.8,86 "
     id="polygon582"
     clip-path="url(#clipPath1270)"
     transform="translate(0,-2)"
     style="fill:#2f353a;fill-opacity:1" /><polygon
     points="25.9,74.9 25.9,73.6 22.8,72.3 22.8,73.7 "
     id="polygon584"
     clip-path="url(#clipPath1266)"
     transform="translate(0,-2)"
     style="fill:#2f353a;fill-opacity:1" /><polygon
     points="15.7,82.1 15.7,80.8 12,83.3 12,84.8 "
     id="polygon586"
     clip-path="url(#clipPath1262)"
     transform="translate(0,-2)"
     style="fill:#2f353a;fill-opacity:1" /><polygon
     points="15.7,84.4 15.7,83 12,85.7 12,87.1 "
     id="polygon588"
     clip-path="url(#clipPath1258)"
     transform="translate(0,-2)"
     style="fill:#2f353a;fill-opacity:1" /><path
     d="m 15.7,73.2 c -0.1,0 -0.2,0.1 -0.3,0.2 l -2.8,2.2 C 12.3,75.9 12,76.4 12,76.8 V 78 l 3.7,-2.6 z"
     id="path590"
     clip-path="url(#clipPath1254)"
     inkscape:connector-curvature="0"
     transform="translate(0,-2)"
     style="fill:#2f353a;fill-opacity:1" /><polygon
     points="15.7,86.6 15.7,85.3 12,88 12,89.3 "
     id="polygon592"
     clip-path="url(#clipPath1250)"
     transform="translate(0,-2)"
     style="fill:#2f353a;fill-opacity:1" /><polygon
     points="15.7,77.7 15.7,76.3 12,78.9 12,80.2 "
     id="polygon594"
     clip-path="url(#clipPath1246)"
     transform="translate(0,-2)"
     style="fill:#2f353a;fill-opacity:1" /><polygon
     points="15.7,79.9 15.7,78.5 12,81.1 12,82.5 "
     id="polygon596"
     clip-path="url(#clipPath1242)"
     transform="translate(0,-2)"
     style="fill:#2f353a;fill-opacity:1" /><path
     d="m 26.6,90.7 h -0.7 v -0.5 l -3.1,-1.3 v 1.8 H 22 V 69.3 c -0.2,0 -0.3,0.1 -0.4,0.2 l -1.3,1 c -0.3,0.3 -0.6,0.8 -0.6,1.1 V 90.5 H 19 V 75 c 0,-0.4 -0.3,-0.8 -0.7,-1 l -1.7,-0.8 c -0.1,0 -0.1,0 -0.2,-0.1 v 17.5 h -0.8 v -1 l -1.3,1 h -1.2 l 2.5,-1.9 V 87.4 L 12,90.2 v 0.4 h -0.6 c -0.2,0 -0.4,0.2 -0.4,0.3 0,0.2 0.2,0.3 0.4,0.3 h 0.6 0.2 1.2 5.6 0.8 6.2 0.7 c 0.2,0 0.4,-0.2 0.4,-0.3 -0.1,-0.1 -0.3,-0.2 -0.5,-0.2 z"
     id="path598"
     clip-path="url(#clipPath1238)"
     inkscape:connector-curvature="0"
     transform="translate(0,-2)"
     style="fill:#2f353a;fill-opacity:1" /><polygon
     points="83.9,63.9 83.9,62.6 80.8,61.4 80.8,62.7 "
     id="polygon600"
     clip-path="url(#clipPath1234)"
     transform="translate(0,-2)"
     style="fill:#2f353a;fill-opacity:1" /><polygon
     points="83.9,61.9 83.9,60.6 80.8,59.3 80.8,60.6 "
     id="polygon602"
     clip-path="url(#clipPath1230)"
     transform="translate(0,-2)"
     style="fill:#2f353a;fill-opacity:1" /><polygon
     points="83.9,66 83.9,64.7 80.8,63.4 80.8,64.7 "
     id="polygon604"
     clip-path="url(#clipPath1226)"
     transform="translate(0,-2)"
     style="fill:#2f353a;fill-opacity:1" /><polygon
     points="83.9,68.1 83.9,66.7 80.8,65.5 80.8,66.8 "
     id="polygon606"
     clip-path="url(#clipPath1222)"
     transform="translate(0,-2)"
     style="fill:#2f353a;fill-opacity:1" /><polygon
     points="83.9,59.8 83.9,58.5 80.8,57.2 80.8,58.5 "
     id="polygon608"
     clip-path="url(#clipPath1218)"
     transform="translate(0,-2)"
     style="fill:#2f353a;fill-opacity:1" /><polygon
     points="83.9,72.2 83.9,70.9 80.8,69.6 80.8,70.9 "
     id="polygon610"
     clip-path="url(#clipPath1214)"
     transform="translate(0,-2)"
     style="fill:#2f353a;fill-opacity:1" /><path
     d="m 83.9,54.5 c 0,-0.4 -0.3,-0.8 -0.7,-1 l -2.4,-1.3 c 0,0 0,0 0,0 v 2.2 l 3.1,1.3 z"
     id="path612"
     clip-path="url(#clipPath1210)"
     inkscape:connector-curvature="0"
     transform="translate(0,-2)"
     style="fill:#2f353a;fill-opacity:1" /><polygon
     points="83.9,70.1 83.9,68.8 80.8,67.6 80.8,68.9 "
     id="polygon614"
     clip-path="url(#clipPath1206)"
     transform="translate(0,-2)"
     style="fill:#2f353a;fill-opacity:1" /><polygon
     points="83.9,57.7 83.9,56.4 80.8,55.2 80.8,56.5 "
     id="polygon616"
     clip-path="url(#clipPath1202)"
     transform="translate(0,-2)"
     style="fill:#2f353a;fill-opacity:1" /><polygon
     points="73.6,65 73.6,63.6 70,66.2 70,67.7 "
     id="polygon618"
     clip-path="url(#clipPath1198)"
     transform="translate(0,-2)"
     style="fill:#2f353a;fill-opacity:1" /><polygon
     points="73.6,67.2 73.6,65.9 70,68.6 70,69.9 "
     id="polygon620"
     clip-path="url(#clipPath1194)"
     transform="translate(0,-2)"
     style="fill:#2f353a;fill-opacity:1" /><path
     d="m 73.6,56 c -0.1,0 -0.2,0.1 -0.3,0.2 l -2.8,2.2 c -0.3,0.3 -0.6,0.8 -0.6,1.2 v 1.3 l 3.7,-2.6 z"
     id="path622"
     clip-path="url(#clipPath1190)"
     inkscape:connector-curvature="0"
     transform="translate(0,-2)"
     style="fill:#2f353a;fill-opacity:1" /><polygon
     points="73.6,69.4 73.6,68.1 70,70.8 70,72.1 "
     id="polygon624"
     clip-path="url(#clipPath1186)"
     transform="translate(0,-2)"
     style="fill:#2f353a;fill-opacity:1" /><polygon
     points="73.6,60.5 73.6,59.1 70,61.7 70,63 "
     id="polygon626"
     clip-path="url(#clipPath1182)"
     transform="translate(0,-2)"
     style="fill:#2f353a;fill-opacity:1" /><polygon
     points="73.6,62.7 73.6,61.4 70,63.9 70,65.3 "
     id="polygon628"
     clip-path="url(#clipPath1178)"
     transform="translate(0,-2)"
     style="fill:#2f353a;fill-opacity:1" /><path
     d="M 84.6,73.5 H 83.9 V 73 l -3.1,-1.3 v 1.8 H 80 V 52.2 c -0.2,0 -0.3,0.1 -0.4,0.2 l -1.3,1 c -0.3,0.3 -0.6,0.8 -0.6,1.1 V 73.4 H 76.9 V 57.8 c 0,-0.4 -0.3,-0.8 -0.7,-1 L 74.6,56 c -0.1,0 -0.1,0 -0.2,-0.1 v 17.5 h -0.8 v -1 l -1.3,1 h -1.2 l 2.5,-1.9 V 70.2 L 70,73 v 0.4 h -0.6 c -0.2,0 -0.4,0.2 -0.4,0.3 0,0.2 0.2,0.3 0.4,0.3 h 0.6 0.2 1.2 5.5 0.8 6.2 0.7 c 0.2,0 0.4,-0.2 0.4,-0.3 0,-0.1 -0.2,-0.2 -0.4,-0.2 z"
     id="path630"
     clip-path="url(#clipPath1174)"
     inkscape:connector-curvature="0"
     transform="translate(0,-2)"
     style="fill:#2f353a;fill-opacity:1" /><polygon
     points="115.9,25.8 115.9,24.5 112.8,23.2 112.8,24.5 "
     id="polygon632"
     clip-path="url(#clipPath1170)"
     transform="translate(0,-2)"
     style="fill:#2f353a;fill-opacity:1" /><polygon
     points="115.9,23.7 115.9,22.4 112.8,21.1 112.8,22.4 "
     id="polygon634"
     clip-path="url(#clipPath1166)"
     transform="translate(0,-2)"
     style="fill:#2f353a;fill-opacity:1" /><polygon
     points="115.9,27.8 115.9,26.5 112.8,25.3 112.8,26.6 "
     id="polygon636"
     clip-path="url(#clipPath1162)"
     transform="translate(0,-2)"
     style="fill:#2f353a;fill-opacity:1" /><polygon
     points="115.9,29.9 115.9,28.6 112.8,27.3 112.8,28.6 "
     id="polygon638"
     clip-path="url(#clipPath1158)"
     transform="translate(0,-2)"
     style="fill:#2f353a;fill-opacity:1" /><polygon
     points="115.9,21.6 115.9,20.3 112.8,19.1 112.8,20.4 "
     id="polygon640"
     clip-path="url(#clipPath1154)"
     transform="translate(0,-2)"
     style="fill:#2f353a;fill-opacity:1" /><polygon
     points="115.9,34 115.9,32.7 112.8,31.5 112.8,32.8 "
     id="polygon642"
     clip-path="url(#clipPath1150)"
     transform="translate(0,-2)"
     style="fill:#2f353a;fill-opacity:1" /><path
     d="m 115.9,16.4 c 0,-0.4 -0.3,-0.8 -0.7,-1 l -2.4,-1.3 c 0,0 0,0 0,0 v 2.2 l 3.1,1.3 z"
     id="path644"
     clip-path="url(#clipPath1146)"
     inkscape:connector-curvature="0"
     transform="translate(0,-2)"
     style="fill:#2f353a;fill-opacity:1" /><polygon
     points="115.9,32 115.9,30.6 112.8,29.4 112.8,30.7 "
     id="polygon646"
     clip-path="url(#clipPath1142)"
     transform="translate(0,-2)"
     style="fill:#2f353a;fill-opacity:1" /><polygon
     points="115.9,19.6 115.9,18.3 112.8,17 112.8,18.3 "
     id="polygon648"
     clip-path="url(#clipPath1138)"
     transform="translate(0,-2)"
     style="fill:#2f353a;fill-opacity:1" /><polygon
     points="105.7,26.8 105.7,25.4 102,28 102,29.5 "
     id="polygon650"
     clip-path="url(#clipPath1134)"
     transform="translate(0,-2)"
     style="fill:#2f353a;fill-opacity:1" /><polygon
     points="105.7,29 105.7,27.7 102,30.4 102,31.7 "
     id="polygon652"
     clip-path="url(#clipPath1130)"
     transform="translate(0,-2)"
     style="fill:#2f353a;fill-opacity:1" /><path
     d="m 105.7,17.8 c -0.1,0 -0.2,0.1 -0.3,0.2 l -2.8,2.2 c -0.3,0.3 -0.6,0.8 -0.6,1.2 v 1.3 l 3.7,-2.6 z"
     id="path654"
     clip-path="url(#clipPath1126)"
     inkscape:connector-curvature="0"
     transform="translate(0,-2)"
     style="fill:#2f353a;fill-opacity:1" /><polygon
     points="105.7,31.3 105.7,29.9 102,32.6 102,34 "
     id="polygon656"
     clip-path="url(#clipPath1122)"
     transform="translate(0,-2)"
     style="fill:#2f353a;fill-opacity:1" /><polygon
     points="105.7,22.3 105.7,21 102,23.5 102,24.9 "
     id="polygon658"
     clip-path="url(#clipPath1118)"
     transform="translate(0,-2)"
     style="fill:#2f353a;fill-opacity:1" /><polygon
     points="105.7,24.6 105.7,23.2 102,25.8 102,27.1 "
     id="polygon660"
     clip-path="url(#clipPath1114)"
     transform="translate(0,-2)"
     style="fill:#2f353a;fill-opacity:1" /><path
     d="m 116.6,35.3 h -0.7 v -0.5 l -3.1,-1.3 v 1.8 H 112 V 14 c -0.2,0 -0.3,0.1 -0.4,0.2 l -1.3,1 c -0.3,0.3 -0.6,0.8 -0.6,1.1 v 18.9 h -0.8 V 19.6 c 0,-0.4 -0.3,-0.8 -0.7,-1 l -1.7,-0.8 c -0.1,0 -0.1,0 -0.2,-0.1 v 17.5 h -0.8 v -1 l -1.3,1 H 103 l 2.5,-1.9 V 32 l -3.7,2.7 v 0.4 h -0.6 c -0.2,0 -0.4,0.2 -0.4,0.3 0,0.2 0.2,0.3 0.4,0.3 h 0.6 0.2 1.2 5.5 0.8 6.2 0.7 c 0.2,0 0.4,-0.2 0.4,-0.3 0.2,0.1 0,-0.1 -0.2,-0.1 z"
     id="path662"
     clip-path="url(#clipPath1110)"
     inkscape:connector-curvature="0"
     transform="translate(0,-2)"
     style="fill:#2f353a;fill-opacity:1" /><polygon
     points="105.9,107.8 105.9,106.5 102.8,105.2 102.8,106.5 "
     id="polygon664"
     clip-path="url(#clipPath1106)"
     transform="translate(0,-2)"
     style="fill:#2f353a;fill-opacity:1" /><polygon
     points="105.9,105.7 105.9,104.4 102.8,103.1 102.8,104.4 "
     id="polygon666"
     clip-path="url(#clipPath1102)"
     transform="translate(0,-2)"
     style="fill:#2f353a;fill-opacity:1" /><polygon
     points="105.9,109.8 105.9,108.5 102.8,107.3 102.8,108.6 "
     id="polygon668"
     clip-path="url(#clipPath1098)"
     transform="translate(0,-2)"
     style="fill:#2f353a;fill-opacity:1" /><polygon
     points="105.9,111.9 105.9,110.6 102.8,109.3 102.8,110.6 "
     id="polygon670"
     clip-path="url(#clipPath1094)"
     transform="translate(0,-2)"
     style="fill:#2f353a;fill-opacity:1" /><polygon
     points="105.9,103.6 105.9,102.3 102.8,101.1 102.8,102.4 "
     id="polygon672"
     clip-path="url(#clipPath1090)"
     transform="translate(0,-2)"
     style="fill:#2f353a;fill-opacity:1" /><polygon
     points="105.9,116 105.9,114.7 102.8,113.5 102.8,114.8 "
     id="polygon674"
     clip-path="url(#clipPath1086)"
     transform="translate(0,-2)"
     style="fill:#2f353a;fill-opacity:1" /><path
     d="m 105.9,98.4 c 0,-0.4 -0.3,-0.8 -0.7,-1 l -2.4,-1.3 c 0,0 0,0 0,0 v 2.2 l 3.1,1.3 z"
     id="path676"
     clip-path="url(#clipPath1082)"
     inkscape:connector-curvature="0"
     transform="translate(0,-2)"
     style="fill:#2f353a;fill-opacity:1" /><polygon
     points="105.9,114 105.9,112.6 102.8,111.4 102.8,112.7 "
     id="polygon678"
     clip-path="url(#clipPath1078)"
     transform="translate(0,-2)"
     style="fill:#2f353a;fill-opacity:1" /><polygon
     points="105.9,101.6 105.9,100.3 102.8,99 102.8,100.3 "
     id="polygon680"
     clip-path="url(#clipPath1074)"
     transform="translate(0,-2)"
     style="fill:#2f353a;fill-opacity:1" /><polygon
     points="95.6,108.8 95.6,107.4 92,110 92,111.5 "
     id="polygon682"
     clip-path="url(#clipPath1070)"
     transform="translate(0,-2)"
     style="fill:#2f353a;fill-opacity:1" /><polygon
     points="95.6,111 95.6,109.7 92,112.4 92,113.7 "
     id="polygon684"
     clip-path="url(#clipPath1066)"
     transform="translate(0,-2)"
     style="fill:#2f353a;fill-opacity:1" /><path
     d="m 95.6,99.8 c -0.1,0 -0.2,0.1 -0.3,0.2 l -2.8,2.2 c -0.3,0.3 -0.6,0.8 -0.6,1.2 v 1.3 l 3.7,-2.6 z"
     id="path686"
     clip-path="url(#clipPath1062)"
     inkscape:connector-curvature="0"
     transform="translate(0,-2)"
     style="fill:#2f353a;fill-opacity:1" /><polygon
     points="95.6,113.3 95.6,111.9 92,114.6 92,116 "
     id="polygon688"
     clip-path="url(#clipPath1058)"
     transform="translate(0,-2)"
     style="fill:#2f353a;fill-opacity:1" /><polygon
     points="95.6,104.3 95.6,103 92,105.5 92,106.9 "
     id="polygon690"
     clip-path="url(#clipPath1054)"
     transform="translate(0,-2)"
     style="fill:#2f353a;fill-opacity:1" /><polygon
     points="95.6,106.6 95.6,105.2 92,107.8 92,109.1 "
     id="polygon692"
     clip-path="url(#clipPath1050)"
     transform="translate(0,-2)"
     style="fill:#2f353a;fill-opacity:1" /><path
     d="m 91.4,118 h 0.6 0.2 1.2 5.5 0.8 6.2 0.7 c 0.2,0 0.4,-0.2 0.4,-0.3 0,-0.2 -0.2,-0.3 -0.4,-0.3 h -0.7 v -0.5 l -3.1,-1.3 v 1.8 H 102 V 96 c -0.2,0 -0.3,0.1 -0.4,0.2 l -1.3,1 c -0.3,0.3 -0.6,0.8 -0.6,1.1 v 18.9 h -0.8 v -15.7 c 0,-0.4 -0.3,-0.8 -0.7,-1 l -1.7,-0.8 c -0.1,0 -0.1,0 -0.2,-0.1 v 17.5 h -0.8 v -1 l -1.3,1 H 93 l 2.5,-1.9 v -1.3 l -3.7,2.7 v 0.4 h -0.6 c -0.2,0 -0.4,0.2 -0.4,0.3 0.2,0.5 0.4,0.7 0.6,0.7 z"
     id="path694"
     clip-path="url(#clipPath1046)"
     inkscape:connector-curvature="0"
     transform="translate(0,-2)"
     style="fill:#2f353a;fill-opacity:1" /><path
     d="m 109,6 c -10.5,0 -19,8.5 -19,19 0,4.8 1.8,9.1 4.7,12.5 l -8.9,8.9 C 83.2,45 80.2,44.2 77,44.2 68.7,44.2 61.6,49.6 59,57.1 L 44.5,52.7 V 39.9 C 54.3,39.2 62,31 62,21 62,10.5 53.5,2 43,2 32.5,2 24,10.5 24,21 c 0,9.6 7.2,17.6 16.5,18.8 v 14 l -10.7,11 C 26.7,62.7 23,61.4 19,61.4 c -10.5,0 -19,8.5 -19,19 0,10.5 8.5,19 19,19 10.5,0 19,-8.5 19,-19 0,-5 -2,-9.6 -5.1,-13 L 43.5,56.6 58.2,61 C 58,61.7 58,62.4 58,63.2 c 0,10.5 8.5,19 19,19 1.1,0 2.2,-0.1 3.3,-0.3 l 6.2,10.8 c -4,3.5 -6.5,8.6 -6.5,14.3 0,10.5 8.5,19 19,19 10.5,0 19,-8.5 19,-19 0,-10.5 -8.5,-19 -19,-19 -3.3,0 -6.5,0.9 -9.2,2.4 L 84.3,80.7 C 91.2,77.9 96,71.1 96,63.2 96,57.4 93.4,52.1 89.2,48.7 l 8.4,-8.4 c 3.2,2.4 7.1,3.8 11.4,3.8 10.5,0 19,-8.5 19,-19 C 128,14.6 119.5,6 109,6 Z M 34,80.3 c 0,8.3 -6.7,15 -15,15 -8.3,0 -15,-6.7 -15,-15 0,-8.3 6.7,-15 15,-15 8.3,0 15,6.8 15,15 z M 43,36 C 34.7,36 28,29.3 28,21 28,12.7 34.7,6 43,6 c 8.3,0 15,6.7 15,15 0,8.3 -6.7,15 -15,15 z m 56,56 c 8.3,0 15,6.7 15,15 0,8.3 -6.7,15 -15,15 -8.3,0 -15,-6.7 -15,-15 0,-8.3 6.7,-15 15,-15 z M 92,63.2 c 0,8.3 -6.7,15 -15,15 -8.3,0 -15,-6.7 -15,-15 0,-8.3 6.7,-15 15,-15 8.3,0 15,6.7 15,15 z M 109,40 c -8.3,0 -15,-6.7 -15,-15 0,-8.3 6.7,-15 15,-15 8.3,0 15,6.7 15,15 0,8.3 -6.7,15 -15,15 z"
     id="path696"
     clip-path="url(#clipPath1042)"
     inkscape:connector-curvature="0"
     transform="translate(0,-2)"
     style="fill:#2f353a;fill-opacity:1" /></svg>