<svg xmlns="http://www.w3.org/2000/svg" xmlns:xlink="http://www.w3.org/1999/xlink" version="1.1" x="0px" y="0px" viewBox="NaN NaN NaN 625"><g><path d="M172.656,121.75 L172.656,288.363 L188.495,288.514 L188.495,220.532 C188.516,216.589 188.849,212.786 192.676,211.404 C196.507,210.019 198.749,211.138 201.453,214.099 L254.555,280.662 L254.555,220.378 C254.576,216.435 254.91,212.636 258.737,211.25 C262.564,209.864 264.809,210.987 267.514,213.944 L320.616,280.662 L320.616,220.378 C320.637,216.435 320.97,212.636 324.798,211.25 C328.625,209.864 330.87,210.987 333.575,213.944 L394.187,288.514 L436.195,288.363 C441.517,288.363 442.604,289.412 442.604,294.544 L442.604,492.527 C442.604,497.659 441.517,498.708 436.195,498.708 C70.404,498.539 106.186,498.76 63.805,498.711 C58.483,498.708 57.396,497.662 57.396,492.527 L57.396,294.698 C57.396,289.562 58.483,288.517 63.805,288.517 L79.147,288.363 L79.147,121.75 L172.656,121.75 z M313.554,391.832 L267.881,391.832 L267.881,452.762 L313.554,452.762 L313.554,391.832 z M232.25,391.832 L186.577,391.832 L186.577,452.762 L232.25,452.762 L232.25,391.832 z M394.861,391.832 L349.188,391.832 L349.188,452.762 L394.861,452.762 L394.861,391.832 z M150.944,391.832 L105.27,391.832 L105.27,452.762 L150.944,452.762 L150.944,391.832 z M313.554,313.374 L267.881,313.374 L267.881,374.304 L313.554,374.304 L313.554,313.374 z M150.944,313.374 L105.27,313.374 L105.27,374.304 L150.944,374.304 L150.944,313.374 z M232.25,313.374 L186.577,313.374 L186.577,374.304 L232.25,374.304 L232.25,313.374 z M394.861,313.374 L349.188,313.374 L349.188,374.304 L394.861,374.304 L394.861,313.374 z" fill="#000000"/><path d="M226.7,1.282 C245.178,1.213 263.348,7.527 275.32,19.442 C307.795,-14.016 330.737,9.886 330.06,40.509 C380.328,32.08 404.109,94.24 332.852,99.967 C337.642,141.059 289.844,155.68 270.853,118.226 C260.056,163.173 181.303,135.549 198.243,107.928 C136.061,127.123 131.035,27.399 199.736,45.658 C195.714,31.228 194.547,11.233 213.529,3.816 C218.691,1.799 221.111,1.902 226.7,1.282 z" fill="#000000"/></g></svg>