<svg xmlns="http://www.w3.org/2000/svg" data-name="Layer 1" viewBox="0 0 64 80" x="0px" y="0px"><title>machinery-machine-industrial-engine-production</title><path d="M32,43a5,5,0,1,0-5-5A5.00588,5.00588,0,0,0,32,43Zm0-8a3,3,0,1,1-3,3A3.00328,3.00328,0,0,1,32,35Z"/><path d="M21,35a.99974.99974,0,0,0-1,1v4a.99974.99974,0,0,0,1,1h2.52246a9.026,9.026,0,0,0,.36231.873l-1.78418,1.78369a.99963.99963,0,0,0,0,1.41406l2.82812,2.82861a.99962.99962,0,0,0,1.41406,0l1.78418-1.7832a9.09456,9.09456,0,0,0,.873.36133V49a.99974.99974,0,0,0,1,1h4a.99974.99974,0,0,0,1-1V46.47754a9.09456,9.09456,0,0,0,.873-.36133l1.78418,1.7832a.99962.99962,0,0,0,1.41406,0l2.82812-2.82861a.99963.99963,0,0,0,0-1.41406l-1.78418-1.78369A9.026,9.026,0,0,0,40.47754,41H43a.99974.99974,0,0,0,1-1V36a.99974.99974,0,0,0-1-1H40.47754a9.026,9.026,0,0,0-.36231-.873l1.78418-1.78369a.99963.99963,0,0,0,0-1.41406l-2.82812-2.82861a.99962.99962,0,0,0-1.41406,0l-1.78418,1.7832A9.09456,9.09456,0,0,0,35,29.52246V27a.99974.99974,0,0,0-1-1H30a.99974.99974,0,0,0-1,1v2.52246a9.09456,9.09456,0,0,0-.873.36133l-1.78418-1.7832a.99962.99962,0,0,0-1.41406,0L22.10059,30.9292a.99963.99963,0,0,0,0,1.41406L23.88477,34.127a9.026,9.026,0,0,0-.36231.873Zm4.82129-1.76465-1.59961-1.59912,1.41406-1.41455,1.59961,1.59912a.99629.99629,0,0,0,1.21582.15381A6.95462,6.95462,0,0,1,30.25,31.23047a.99989.99989,0,0,0,.75-.96826V28h2v2.26221a.99989.99989,0,0,0,.75.96826,6.95462,6.95462,0,0,1,1.79883.74414.9997.9997,0,0,0,1.21582-.15381l1.59961-1.59912,1.41406,1.41455-1.59961,1.59912a1.00089,1.00089,0,0,0-.1543,1.21533,6.96025,6.96025,0,0,1,.7461,1.79981A.99932.99932,0,0,0,39.73828,37H42v2H39.73828a.99932.99932,0,0,0-.96777.74951,6.96025,6.96025,0,0,1-.7461,1.79981,1.00089,1.00089,0,0,0,.1543,1.21533l1.59961,1.59912-1.41406,1.41455L36.76465,44.1792a.99953.99953,0,0,0-1.21582-.15381,6.95462,6.95462,0,0,1-1.79883.74414.99989.99989,0,0,0-.75.96826V48H31V45.73779a.99989.99989,0,0,0-.75-.96826,6.95462,6.95462,0,0,1-1.79883-.74414.99988.99988,0,0,0-1.21582.15381l-1.59961,1.59912-1.41406-1.41455,1.59961-1.59912a1.00089,1.00089,0,0,0,.1543-1.21533,6.96025,6.96025,0,0,1-.7461-1.79981A.99932.99932,0,0,0,24.26172,39H22V37h2.26172a.99932.99932,0,0,0,.96777-.74951,6.96025,6.96025,0,0,1,.7461-1.79981A1.00089,1.00089,0,0,0,25.82129,33.23535Z"/><path d="M2,4H31V5.18427a2.982,2.982,0,0,0,0,5.6314V12H30a.99974.99974,0,0,0-1,1v3H26a.99974.99974,0,0,0-1,1v1.19775l-8.2168,1.82618a.99875.99875,0,0,0-.69336.5625l-5,11a.99906.99906,0,0,0,.0625.94336l5,8A.99969.99969,0,0,0,18,40V32.16211l1.80664-5.41992L26.20508,24h11.5293l6.46679,3.69531L46,32.19238V40a.9997.9997,0,0,0,1.84766.52979l5-8a.99906.99906,0,0,0,.0625-.94336l-5-11a.99875.99875,0,0,0-.69336-.5625L39,18.19775V17a.99974.99974,0,0,0-1-1H35V13a.99974.99974,0,0,0-1-1H33V10.81573a2.98208,2.98208,0,0,0,0-5.63146V4H62V2H2ZM25,22.34094l-6.39355,2.74011a.99682.99682,0,0,0-.55469.60254l-2,6A.99684.99684,0,0,0,16,32v4.51318l-2.86719-4.58789L17.7041,21.86816,25,20.24652Zm14-2.09442,7.2959,1.62164,4.57129,10.05713L48,36.51318V32a1.00748,1.00748,0,0,0-.07129-.37158l-2-5a.99936.99936,0,0,0-.43262-.49658L39,22.4198ZM31,14h2v2H31Zm3,4h3v4H27V18h7ZM32,7a1,1,0,1,1-1,1A1.001,1.001,0,0,1,32,7Z"/><path d="M59,52.42383V47a.99974.99974,0,0,0-1-1H52a.99974.99974,0,0,0-1,1v5H13V47a.99974.99974,0,0,0-1-1H6a.99974.99974,0,0,0-1,1v5.42383A4.99613,4.99613,0,0,0,7,62H57a4.99613,4.99613,0,0,0,2-9.57617ZM53,48h4v4H53ZM7,48h4v4H7ZM57,60H7a3,3,0,0,1,0-6H57a3,3,0,0,1,0,6Z"/><rect x="7" y="56" width="2" height="2"/><rect x="13" y="56" width="2" height="2"/><rect x="19" y="56" width="2" height="2"/><rect x="25" y="56" width="2" height="2"/><rect x="31" y="56" width="2" height="2"/><rect x="37" y="56" width="2" height="2"/><rect x="43" y="56" width="2" height="2"/><rect x="49" y="56" width="2" height="2"/><rect x="55" y="56" width="2" height="2"/><rect x="6" y="6" width="21" height="2"/><rect x="2" y="6" width="2" height="2"/><rect x="60" y="6" width="2" height="2"/><rect x="37" y="6" width="21" height="2"/></svg>