<svg xmlns="http://www.w3.org/2000/svg" viewBox="0 0 64 80" x="0px" y="0px"><g><rect x="11" y="24.001" width="2" height="2"/><rect x="11" y="28.001" width="2" height="2"/><rect x="31" y="24.001" width="2" height="2"/><rect x="31" y="28.001" width="2" height="2"/><rect x="51" y="24.001" width="2" height="2"/><rect x="51" y="28.001" width="2" height="2"/><path d="M34.056,6.312a6.931,6.931,0,0,1,1.826.864h0l-.555.832h0L33.664,6.9Zm-8.828,4.934.007-.027a6.944,6.944,0,0,1,.217-.678c.008-.023.016-.047.025-.07.078-.2.17-.4.267-.6.018-.035.032-.071.05-.106a6.92,6.92,0,0,1,.382-.648l.832.555-.555.832a1,1,0,0,0,.277,1.387l.832.554-.554.832-1.93-1.286A6.935,6.935,0,0,1,25.228,11.246Zm2.889,7.579a6.95,6.95,0,0,1-2.963-4.379l.744.5a2,2,0,0,0,2.774-.554l.555-.832a2,2,0,0,0-.555-2.774,2,2,0,0,0-.555-2.773l-.59-.394a6.965,6.965,0,0,1,3.1-1.478,7.08,7.08,0,0,1,1.258-.132,1.977,1.977,0,0,0,.67,2.558l1.664,1.11h0a2,2,0,0,0,2.772-.555l.394-.591a7.005,7.005,0,0,1,.438,8.357,7.12,7.12,0,0,1-.62.788l-1.6-1.066.555-.831A2,2,0,0,0,35.6,13l-.832-.555A2,2,0,0,0,32,13Zm1.829.862,3.718-5.577.832.555-.555.832a2,2,0,0,0,.555,2.774l.832.554-.33.5-.079.037q-.222.1-.45.187l-.169.061q-.23.079-.462.143c-.054.015-.109.028-.163.041-.168.041-.336.078-.506.106l-.085.013A7.051,7.051,0,0,1,29.946,19.687Z"/><path d="M15,8V7h.587l.175.106c.088.057.176.115.261.175s.185.136.276.206.17.135.253.206.155.139.231.21.177.168.261.256c.059.061.115.125.171.188.095.106.188.213.276.325.037.047.071.1.107.143.1.133.2.268.286.407.017.027.032.054.049.081A7.008,7.008,0,0,1,18.7,11H12V10h1A2,2,0,0,0,15,8ZM6,15H5.3l-.007-.025a7.089,7.089,0,0,1-.189-.85c-.011-.07-.023-.141-.032-.212A6.946,6.946,0,0,1,5,13H6Zm4,4v.7a7.02,7.02,0,0,1-3.755-2.73A2,2,0,0,0,8,15V13a2,2,0,0,0-2-2H5.3A6.928,6.928,0,0,1,13,6.081V8H12a2,2,0,0,0-2,2v1a2,2,0,0,0,2,2h7a6.971,6.971,0,0,1-2,4.889V17a2,2,0,0,0-2-2H14a2,2,0,0,0-2,2A2,2,0,0,0,10,19Zm2.757.957A6.833,6.833,0,0,1,12,20V19h1a1,1,0,0,0,1-1V17h1v2.315l-.048.023q-.3.139-.608.25l-.1.035c-.208.072-.42.131-.633.182-.034.008-.067.019-.1.026-.212.048-.427.082-.643.109C12.831,19.946,12.8,19.954,12.757,19.958Z"/><path d="M58.338,10.049q.138.3.247.6c.013.036.027.071.04.108.069.2.128.412.178.622.009.037.02.074.029.111.046.209.08.421.107.634.005.04.014.079.018.12A6.8,6.8,0,0,1,59,13H58V12a1,1,0,0,0-1-1H56V10h2.315ZM46,9.414c.035-.059.07-.118.107-.176.056-.087.114-.174.173-.259s.137-.187.208-.277.134-.17.2-.252.14-.157.212-.234.165-.174.252-.257c.063-.061.13-.119.2-.178.1-.092.208-.182.316-.268.051-.04.1-.077.156-.116.129-.1.259-.191.394-.277.031-.02.063-.038.095-.058.159-.1.32-.193.486-.279l.013-.006A6.99,6.99,0,0,1,50,6.3V13H49V12a2,2,0,0,0-2-2H46ZM50,19v.7A6.928,6.928,0,0,1,45.08,12H47v1a2,2,0,0,0,2,2h1a2,2,0,0,0,2-2V6a6.971,6.971,0,0,1,4.889,2H56a2,2,0,0,0-2,2v1a2,2,0,0,0,2,2,2,2,0,0,0,2,2h.7a7.02,7.02,0,0,1-2.73,3.755A2,2,0,0,0,54,17H52A2,2,0,0,0,50,19Zm2.913.933A6.946,6.946,0,0,1,52,20h0V19h2v.7l-.026.007a6.86,6.86,0,0,1-.85.189C53.054,19.914,52.984,19.925,52.913,19.934Z"/><path d="M22,56H19a1,1,0,0,0-.707,1.707l2,2a1,1,0,0,0,1.414-1.414L21.414,58H22a1,1,0,0,0,0-2Z"/><rect x="37" y="56" width="2" height="2"/><rect x="33" y="56" width="2" height="2"/><rect x="29" y="56" width="2" height="2"/><rect x="25" y="56" width="2" height="2"/><rect x="6" y="34" width="8" height="2"/><rect x="26" y="34" width="8" height="2"/><rect x="16" y="38" width="2" height="6"/><rect x="16" y="34" width="2" height="2"/><polygon points="58 44 58 38 56 38 56 44 57 44 58 44"/><rect x="36" y="38" width="2" height="6"/><rect x="46" y="34" width="8" height="2"/><rect x="56" y="34" width="2" height="2"/><rect x="36" y="34" width="2" height="2"/><path d="M54,38H46v6h8Zm-3,4H49V40h2Z"/><path d="M34,38H26v6h8Zm-3,4H29V40h2Z"/><path d="M44,46H35.974a4.9,4.9,0,0,1,0,6H53.026a4.9,4.9,0,0,1,0-6Z"/><path d="M7,46a3,3,0,1,0,3,3A3,3,0,0,0,7,46Zm.71,3.71a1,1,0,0,1-1.42-1.42,1.025,1.025,0,0,1,.9-.27.609.609,0,0,1,.191.06.568.568,0,0,1,.17.09c.059.04.11.08.16.12a1.014,1.014,0,0,1,0,1.42Z"/><path d="M24,46H10.974a4.9,4.9,0,0,1,0,6H28.026a4.9,4.9,0,0,1,0-6Z"/><path d="M57,46a3,3,0,1,0,3,3A3,3,0,0,0,57,46Zm.71,3.71-.15.12a.776.776,0,0,1-.18.09.646.646,0,0,1-.18.06A1.369,1.369,0,0,1,57,50a.99.99,0,0,1-1-1,1,1,0,0,1,.08-.38.933.933,0,0,1,.21-.33,1.046,1.046,0,0,1,.91-.27.646.646,0,0,1,.18.06.776.776,0,0,1,.18.09,1.712,1.712,0,0,1,.15.12,1.014,1.014,0,0,1,0,1.42Z"/><path d="M32,46a3,3,0,1,0,3,3A3,3,0,0,0,32,46Zm.92,3.38a1.155,1.155,0,0,1-.21.33A1.052,1.052,0,0,1,32,50a1.355,1.355,0,0,1-.2-.02.636.636,0,0,1-.18-.06.782.782,0,0,1-.181-.09l-.149-.12a1.155,1.155,0,0,1-.21-.33.943.943,0,0,1,0-.76,1.155,1.155,0,0,1,.21-.33,1.047,1.047,0,0,1,1.42,0,1.155,1.155,0,0,1,.21.33.942.942,0,0,1,0,.76Z"/><path d="M14,44V38H6v6h8ZM9,40h2v2H9Z"/></g></svg>