<?xml version="1.0" encoding="UTF-8" standalone="no"?>
<svg
   xmlns:i="http://ns.adobe.com/AdobeIllustrator/10.0/"
   xmlns:dc="http://purl.org/dc/elements/1.1/"
   xmlns:cc="http://creativecommons.org/ns#"
   xmlns:rdf="http://www.w3.org/1999/02/22-rdf-syntax-ns#"
   xmlns:svg="http://www.w3.org/2000/svg"
   xmlns="http://www.w3.org/2000/svg"
   xmlns:sodipodi="http://sodipodi.sourceforge.net/DTD/sodipodi-0.dtd"
   xmlns:inkscape="http://www.inkscape.org/namespaces/inkscape"
   version="1.1"
   x="0px"
   y="0px"
   viewBox="0 0 100.23835 85.672661"
   xml:space="preserve"
   id="svg2159"
   sodipodi:docname="noun_site.svg"
   width="100.23835"
   height="85.672661"
   inkscape:version="0.92.4 (5da689c313, 2019-01-14)"><metadata
     id="metadata2165"><rdf:RDF><cc:Work
         rdf:about=""><dc:format>image/svg+xml</dc:format><dc:type
           rdf:resource="http://purl.org/dc/dcmitype/StillImage" /><dc:title /></cc:Work></rdf:RDF></metadata><defs
     id="defs2163" /><sodipodi:namedview
     pagecolor="#ffffff"
     bordercolor="#666666"
     borderopacity="1"
     objecttolerance="10"
     gridtolerance="10"
     guidetolerance="10"
     inkscape:pageopacity="0"
     inkscape:pageshadow="2"
     inkscape:window-width="1920"
     inkscape:window-height="1017"
     id="namedview2161"
     showgrid="false"
     fit-margin-top="0"
     fit-margin-left="0"
     fit-margin-right="0"
     fit-margin-bottom="0"
     inkscape:zoom="5.3400704"
     inkscape:cx="77.277966"
     inkscape:cy="35.01209"
     inkscape:window-x="-8"
     inkscape:window-y="-8"
     inkscape:window-maximized="1"
     inkscape:current-layer="svg2159" /><g
     i:extraneous="self"
     id="g2157"
     transform="translate(0.2648305,-6.8855934)"
     style="fill:#2f353a;fill-opacity:1"><g
       id="g2149"
       style="fill:#2f353a;fill-opacity:1"><path
         d="m 5273.1,2400.1 v -2 c 0,-2.8 -5,-4 -9.7,-4 -4.7,0 -9.7,1.3 -9.7,4 v 2 c 0,1.8 0.7,3.6 2,4.9 l 5,4.9 c 0.3,0.3 0.4,0.6 0.4,1 v 6.4 c 0,0.4 0.2,0.7 0.6,0.8 l 2.9,0.9 c 0.5,0.1 1,-0.2 1,-0.8 v -7.2 c 0,-0.4 0.2,-0.7 0.4,-1 l 5.1,-5 c 1.3,-1.3 2,-3.1 2,-4.9 z m -9.7,-0.1 c -4.8,0 -7.4,-1.3 -7.5,-1.8 v 0 c 0.1,-0.5 2.7,-1.8 7.5,-1.8 4.8,0 7.3,1.3 7.5,1.8 -0.2,0.5 -2.7,1.8 -7.5,1.8 z"
         id="path2141"
         inkscape:connector-curvature="0"
         style="fill:#2f353a;fill-opacity:1" /><path
         d="m 5268.4,2410.3 c -0.6,0 -1,0.4 -1,1 0,0.6 0.4,1 1,1 h 4.3 c 0.6,0 1,-0.4 1,-1 0,-0.6 -0.4,-1 -1,-1 z"
         id="path2143"
         inkscape:connector-curvature="0"
         style="fill:#2f353a;fill-opacity:1" /><path
         d="m 5272.7,2413.7 h -4.3 c -0.6,0 -1,0.4 -1,1 0,0.6 0.4,1 1,1 h 4.3 c 0.6,0 1,-0.4 1,-1 0,-0.6 -0.4,-1 -1,-1 z"
         id="path2145"
         inkscape:connector-curvature="0"
         style="fill:#2f353a;fill-opacity:1" /><path
         d="m 5272.7,2417 h -4.3 c -0.6,0 -1,0.4 -1,1 0,0.6 0.4,1 1,1 h 4.3 c 0.6,0 1,-0.4 1,-1 0,-0.5 -0.4,-1 -1,-1 z"
         id="path2147"
         inkscape:connector-curvature="0"
         style="fill:#2f353a;fill-opacity:1" /></g><g
       id="g2155"
       style="fill:#2f353a;fill-opacity:1"><path
         d="m 81,37.2 c 1,0 1.9,0.1 2.9,0.2 V 20.2 c 0,-1.6 -1.7,-2.5 -3.1,-1.7 l -18,11.3 v -9.5 c 0,-1.6 -1.7,-2.5 -3.1,-1.7 l -17.6,11 v -9.4 c 0,-1.6 -1.7,-2.5 -3.1,-1.7 L 21.3,29.6 V 10.5 c 0,-1.1 -0.9,-2 -2,-2 H 7.1 C 6,8.5 5.2,9.3 5.1,10.4 4.7,20.5 2.9,67.8 2.5,78.2 c -0.1,1.1 0.8,2 2,2 H 66.2 C 58.9,65.8 58.9,61.1 58.9,59.3 58.9,47.1 68.8,37.2 81,37.2 Z M 29.5,66.9 c 0,0.8 -0.7,1.5 -1.5,1.5 h -7.3 c -0.8,0 -1.5,-0.7 -1.5,-1.5 v -7.3 c 0,-0.8 0.6,-1.5 1.5,-1.5 H 28 c 0.8,0 1.5,0.7 1.5,1.5 z m 0,-17.7 c 0,0.8 -0.7,1.5 -1.5,1.5 h -7.3 c -0.8,0 -1.5,-0.6 -1.5,-1.5 v -7.3 c 0,-0.8 0.6,-1.5 1.5,-1.5 H 28 c 0.8,0 1.5,0.7 1.5,1.5 z m 20.6,17.7 c 0,0.8 -0.7,1.5 -1.5,1.5 h -7.3 c -0.8,0 -1.5,-0.7 -1.5,-1.5 v -7.3 c 0,-0.8 0.7,-1.5 1.5,-1.5 h 7.3 c 0.8,0 1.5,0.7 1.5,1.5 z m 0,-17.7 c 0,0.8 -0.7,1.5 -1.5,1.5 h -7.3 c -0.8,0 -1.5,-0.6 -1.5,-1.5 v -7.3 c 0,-0.8 0.7,-1.5 1.5,-1.5 h 7.3 c 0.8,0 1.5,0.7 1.5,1.5 z"
         id="path2151"
         inkscape:connector-curvature="0"
         style="fill:#2f353a;fill-opacity:1" /><path
         d="m 81,42.8 c -9.1,0 -16.5,7.4 -16.5,16.5 0,6.5 8.4,21.9 13.2,30.3 1.5,2.6 5.2,2.6 6.7,0 C 89.2,81.2 97.6,65.8 97.6,59.3 97.5,50.2 90.1,42.8 81,42.8 Z M 81,67 c -4.2,0 -7.7,-3.4 -7.7,-7.7 0,-4.2 3.4,-7.7 7.7,-7.7 4.2,0 7.7,3.4 7.7,7.7 0,4.3 -3.5,7.7 -7.7,7.7 z"
         id="path2153"
         inkscape:connector-curvature="0"
         style="fill:#2f353a;fill-opacity:1" /></g></g></svg>