<svg xmlns="http://www.w3.org/2000/svg" xmlns:xlink="http://www.w3.org/1999/xlink" version="1.1" x="0px" y="0px" viewBox="NaN NaN NaN 625"><g><path d="M490.075,71.242 C492.284,71.242 494.075,73.033 494.075,75.242 L494.075,424.758 C494.075,426.967 492.284,428.758 490.075,428.758 L9.925,428.758 C7.716,428.758 5.925,426.967 5.925,424.758 L5.925,226.284 C6.01,225.44 5.902,225.726 6.05,225.373 C6.05,224.908 6.015,225.22 6.415,224.505 C6.635,223.984 6.491,224.164 6.753,223.902 C7.232,223.048 6.891,223.494 7.927,222.693 L127.974,153.484 C130.642,151.946 133.974,153.873 133.972,156.952 L133.932,220.877 L250.83,153.485 C253.498,151.947 256.83,153.873 256.828,156.952 L256.788,220.876 L373.682,153.484 C376.35,151.947 379.682,153.873 379.68,156.952 L379.641,222.283 L390.686,222.283 L390.686,75.242 C390.686,73.033 392.477,71.242 394.686,71.242 L490.075,71.242 z M486.075,79.242 L398.686,79.242 L398.686,226.283 C398.686,228.493 396.895,230.283 394.686,230.283 L375.638,230.283 C373.428,230.283 371.637,228.491 371.638,226.281 L371.676,163.875 L258.879,228.905 C258.204,229.905 256.958,230.191 255.85,230.284 L252.785,230.284 C250.575,230.284 248.784,228.491 248.785,226.281 L248.824,163.876 L136.024,228.905 C135.35,229.905 134.103,230.191 132.995,230.284 L129.929,230.284 C127.719,230.284 125.927,228.491 125.929,226.281 L125.968,163.875 L13.925,228.47 L13.925,420.758 L486.075,420.758 L486.075,79.242 z" fill="#000000"/></g></svg>