<svg xmlns="http://www.w3.org/2000/svg" xmlns:xlink="http://www.w3.org/1999/xlink" version="1.1" x="0px" y="0px" viewBox="0 0 100 125" style="enable-background:new 0 0 100 100;" xml:space="preserve"><path d="M89,10H11c-0.5527344,0-1,0.4477539-1,1s0.4472656,1,1,1h6.625v8.9086914h-4.765625c-0.5527344,0-1,0.4477539-1,1  v58.3574219c0,0.5522461,0.4472656,1,1,1h1.1650391c7.7949219,0,15.5527344,1.9116211,23.0576172,5.6821289  C41.1132812,88.9731445,45.4599609,90,50,90s8.8867188-1.0268555,12.9179688-3.0517578  c7.5048828-3.7705078,15.2626953-5.6821289,23.0576172-5.6821289h1.1650391c0.265625,0,0.5195312-0.1054688,0.7070312-0.2929688  c0.1875-0.1879883,0.2929688-0.4423828,0.2929688-0.7075195l-0.0361328-58.3574219c0-0.5522461-0.4482422-0.9995117-1-0.9995117  H82.375V12H89c0.5527344,0,1-0.4477539,1-1S89.5527344,10,89,10z M86.1396484,79.2661133h-0.1640625  c-8.1103516,0-16.1699219,1.9833984-23.9560547,5.8950195C58.2695312,87.0449219,54.2255859,88,50,88  s-8.2695312-0.9550781-12.0195312-2.8388672c-7.7861328-3.9116211-15.8457031-5.8950195-23.9560547-5.8950195H13.859375V22.9086914  h72.2460938L86.1396484,79.2661133z M80.375,20.9086914h-60.75V12h60.75V20.9086914z"/><path d="M73.0302734,53.9482422c0-9.3942261-5.656311-17.4874878-13.7397461-21.0665283  c-0.0302124-0.0137939-0.0576782-0.0296021-0.0891113-0.0403442C56.3812256,31.6071167,53.2703247,30.9174805,50,30.9174805  c-12.6992188,0-23.0302734,10.331543-23.0302734,23.0307617c0,3.2450562,0.6781616,6.3336792,1.8944702,9.1366577  c0.0115356,0.0335693,0.0279541,0.0626831,0.0428467,0.0946045C32.4724121,71.2948608,40.5827026,76.9790039,50,76.9790039  c8.5405884,0,16.0043945-4.6765747,19.9807129-11.5999146c0.0085449-0.0194092,0.0241699-0.0349731,0.0314941-0.0549316  C71.9289551,61.9655762,73.0302734,58.0842896,73.0302734,53.9482422z M69.6276855,46.4591064  c-1.5786133,0.6595459-4.9291382,1.5195312-7.9558105-1.2418213c-1.3222656-1.206543-2.7382812-1.3652344-3.8769531-1.4926758  c-1.4833984-0.1665039-2.4628906-0.2758789-3.3173828-2.4536133c-1.223999-3.1257324,3.0216064-5.6463623,4.3920288-6.364502  C63.7921753,37.2094116,67.6726685,41.354248,69.6276855,46.4591064z M43.2249756,34.0583496  c0.9067993,0.7548828,3.0354004,2.7237549,3.3502197,4.8088379c0.1259766,0.8378906-0.0683594,1.5898438-0.59375,2.2978516  c-3.1757812,4.2773438-3.8154297,5.4873047-4.015625,9.753418c-0.2387085,5.1112061-1.7966919,10.8981323-11.4753418,10.8410034  c-0.9717407-2.4179688-1.520752-5.0498657-1.520752-7.8112183C28.9697266,44.7246094,34.9473267,36.8869019,43.2249756,34.0583496z   M31.4122925,63.7581787C43.3765869,63.378418,43.8175049,54.138855,43.9638672,51.012207  c0.1757812-3.7553711,0.6630859-4.6689453,3.6230469-8.6547852c0.8486328-1.1435547,1.1738281-2.4204102,0.9648438-3.7949219  c-0.3192749-2.0977173-1.8550415-3.9660645-3.0582886-5.1464233C46.9470825,33.0971069,48.4520264,32.9174805,50,32.9174805  c2.2770996,0,4.4655151,0.375061,6.520874,1.0476074c-2.2265015,1.4586182-5.371582,4.2924194-3.9046631,8.0354004  c1.2939453,3.3012695,3.3242188,3.5288086,4.9560547,3.7119141c1.0244141,0.1147461,1.9091797,0.2138672,2.7519531,0.9824219  c1.9277344,1.7592773,4.1074219,2.4165039,6.1494141,2.4165039c1.3605957,0,2.6574707-0.2947998,3.7805176-0.7467041  c0.4919434,1.781311,0.776123,3.6480713,0.776123,5.5836182c0,3.1486816-0.71521,6.1269531-1.9606934,8.8113403  c-3.9940186-7.1188354-9.868042-8.3203735-10.6721191-8.4519653c-0.6904297-0.190918-5.0371094-1.1835938-8.4550781,3.1796875  c-3.5263672,4.4995117-0.9902344,11.5585938-0.8486328,11.9345703c0.4244995,0.9080811,1.3709717,3.4632568,1.300354,5.5371704  C50.2616577,74.9615479,50.1329956,74.9790039,50,74.9790039C41.9466553,74.9790039,34.9442139,70.4232788,31.4122925,63.7581787z   M52.3999023,74.831543c0.0313721-2.9460449-1.4189453-6.0932007-1.4614258-6.1777344  c-0.0224609-0.0625-2.2675781-6.3007812,0.578125-9.9331055c2.7646484-3.527832,6.2207031-2.5239258,6.3603516-2.4819336  c0.0527344,0.0170898,0.1113281,0.0297852,0.1660156,0.0375977c0.2570801,0.0372925,6.2044678,0.9936523,9.8781738,8.6205444  C64.6170654,70.28479,58.9720459,74.0804443,52.3999023,74.831543z"/></svg>