<svg xmlns="http://www.w3.org/2000/svg" xmlns:xlink="http://www.w3.org/1999/xlink" version="1.1" x="0px" y="0px" viewBox="0 0 625 625"><g><path d="M83.712,375.7 C98.406,400.652 122.93,413.58 151.404,415.019 C179.731,414.948 202.563,400.184 218.004,377.317 L232.918,433.585 L274.907,433.585 L274.907,496.402 L27.9,496.402 L27.9,433.585 L69.889,433.585 L83.712,375.7 z" fill="#000000"/><path d="M151.404,405.26 C113.59,405.26 82.935,374.605 82.935,336.791 C82.935,298.977 113.59,268.322 151.404,268.322 C189.218,268.322 219.873,298.977 219.873,336.791 C219.873,374.605 189.218,405.26 151.404,405.26 z" fill="#000000"/><path d="M89.881,171.127 C56.047,171.127 28.62,143.699 28.62,109.865 C28.62,76.031 56.047,48.603 89.881,48.603 C123.715,48.603 151.143,76.031 151.143,109.865 C151.143,143.699 123.715,171.127 89.881,171.127 z" fill="#000000"/><path d="M364.21,90.085 C340.328,90.085 320.967,70.724 320.967,46.842 C320.967,22.959 340.328,3.598 364.21,3.598 C388.093,3.598 407.454,22.959 407.454,46.842 C407.454,70.724 388.093,90.085 364.21,90.085 z" fill="#000000"/><path d="M349.736,231.223 C331.824,231.223 317.303,216.702 317.303,198.79 C317.303,180.878 331.824,166.357 349.736,166.357 C367.648,166.357 382.168,180.878 382.168,198.79 C382.168,216.702 367.648,231.223 349.736,231.223 z" fill="#000000"/><path d="M392.099,188.436 C415.004,185.257 434.177,191.277 451.129,206.703 C466.282,220.149 472.1,248.2 472.1,248.2 C472.1,248.2 461.387,259.598 460.47,259.751 C437.134,220.919 412.939,227.231 394.518,244.217 C376.097,261.203 373.437,283.977 411.084,309.173 C409.576,310.774 398.795,321.38 398.795,321.38 C398.795,321.38 371.071,315.041 357.764,299.435 C343.369,284.476 338.172,266.954 338.973,246.54 C339.107,243.147 340.289,239.878 340.946,236.547 C357.737,237.433 350.576,238.452 362.62,235.438 C380.494,228.085 391.14,210.012 386.324,190.767 L392.099,188.436 z" fill="#000000"/><path d="M146.332,152.189 L188.607,267.967 C177.025,261.439 164.45,259.22 151.403,258.562 C122.479,258.571 99.868,273.954 84.198,297.16 L61.647,174.77 L62.128,174.641 C70.67,179.236 80.377,180.174 89.881,180.654 C111.598,180.109 133.856,170.66 146.332,152.189 z" fill="#000000"/><path d="M318.407,25.737 L318.545,26.344 C312.91,39.737 314.616,32.886 313.209,46.841 C313.914,66.625 319.116,72.553 332.073,85.51 L332.098,85.618 L155.525,133.859 C159.219,126.447 159.596,117.966 160.005,109.865 C160,90.502 152.025,73.292 138.509,59.776 L318.407,25.737 z" fill="#000000"/><path d="M333.766,87.203 C341.396,95.922 353.662,96.779 364.21,97.842 C378.228,96.429 371.315,98.142 384.882,92.432 L373.531,169.239 L372.616,169.159 C366.951,162.534 357.703,161.769 349.735,160.966 C338.747,162.074 344.467,160.744 332.757,165.671 L332.097,165.613 L333.766,87.203 z" fill="#000000"/><path d="M89.881,171.127 C56.047,171.127 28.62,143.699 28.62,109.865 C28.62,76.031 56.047,48.603 89.881,48.603 C123.715,48.603 151.143,76.031 151.143,109.865 C151.143,143.699 123.715,171.127 89.881,171.127 z" fill="#000000"/></g></svg>