<?xml version="1.0" encoding="UTF-8" standalone="no"?>
<!-- Created with Inkscape (http://www.inkscape.org/) -->

<svg
   xmlns:dc="http://purl.org/dc/elements/1.1/"
   xmlns:cc="http://creativecommons.org/ns#"
   xmlns:rdf="http://www.w3.org/1999/02/22-rdf-syntax-ns#"
   xmlns:svg="http://www.w3.org/2000/svg"
   xmlns="http://www.w3.org/2000/svg"
   xmlns:sodipodi="http://sodipodi.sourceforge.net/DTD/sodipodi-0.dtd"
   xmlns:inkscape="http://www.inkscape.org/namespaces/inkscape"
   width="200mm"
   height="200mm"
   viewBox="0 0 200 200"
   version="1.1"
   id="svg8"
   inkscape:version="0.92.4 (5da689c313, 2019-01-14)"
   sodipodi:docname="noun_assemble_parts1.svg">
  <defs
     id="defs2">
    <clipPath
       id="clipPath1042"
       clipPathUnits="userSpaceOnUse">
      <rect
         y="1.56014"
         x="-0.23969379"
         height="124.64256"
         width="128.47771"
         id="rect1044"
         style="fill:#818085;fill-opacity:0.91764706" />
    </clipPath>
    <clipPath
       id="clipPath1046"
       clipPathUnits="userSpaceOnUse">
      <rect
         y="1.56014"
         x="-0.23969379"
         height="124.64256"
         width="128.47771"
         id="rect1048"
         style="fill:#818085;fill-opacity:0.91764706" />
    </clipPath>
    <clipPath
       id="clipPath1050"
       clipPathUnits="userSpaceOnUse">
      <rect
         y="1.56014"
         x="-0.23969379"
         height="124.64256"
         width="128.47771"
         id="rect1052"
         style="fill:#818085;fill-opacity:0.91764706" />
    </clipPath>
    <clipPath
       id="clipPath1054"
       clipPathUnits="userSpaceOnUse">
      <rect
         y="1.56014"
         x="-0.23969379"
         height="124.64256"
         width="128.47771"
         id="rect1056"
         style="fill:#818085;fill-opacity:0.91764706" />
    </clipPath>
    <clipPath
       id="clipPath1058"
       clipPathUnits="userSpaceOnUse">
      <rect
         y="1.56014"
         x="-0.23969379"
         height="124.64256"
         width="128.47771"
         id="rect1060"
         style="fill:#818085;fill-opacity:0.91764706" />
    </clipPath>
    <clipPath
       id="clipPath1062"
       clipPathUnits="userSpaceOnUse">
      <rect
         y="1.56014"
         x="-0.23969379"
         height="124.64256"
         width="128.47771"
         id="rect1064"
         style="fill:#818085;fill-opacity:0.91764706" />
    </clipPath>
    <clipPath
       id="clipPath1066"
       clipPathUnits="userSpaceOnUse">
      <rect
         y="1.56014"
         x="-0.23969379"
         height="124.64256"
         width="128.47771"
         id="rect1068"
         style="fill:#818085;fill-opacity:0.91764706" />
    </clipPath>
    <clipPath
       id="clipPath1070"
       clipPathUnits="userSpaceOnUse">
      <rect
         y="1.56014"
         x="-0.23969379"
         height="124.64256"
         width="128.47771"
         id="rect1072"
         style="fill:#818085;fill-opacity:0.91764706" />
    </clipPath>
    <clipPath
       id="clipPath1074"
       clipPathUnits="userSpaceOnUse">
      <rect
         y="1.56014"
         x="-0.23969379"
         height="124.64256"
         width="128.47771"
         id="rect1076"
         style="fill:#818085;fill-opacity:0.91764706" />
    </clipPath>
    <clipPath
       id="clipPath1078"
       clipPathUnits="userSpaceOnUse">
      <rect
         y="1.56014"
         x="-0.23969379"
         height="124.64256"
         width="128.47771"
         id="rect1080"
         style="fill:#818085;fill-opacity:0.91764706" />
    </clipPath>
    <clipPath
       id="clipPath1082"
       clipPathUnits="userSpaceOnUse">
      <rect
         y="1.56014"
         x="-0.23969379"
         height="124.64256"
         width="128.47771"
         id="rect1084"
         style="fill:#818085;fill-opacity:0.91764706" />
    </clipPath>
    <clipPath
       id="clipPath1086"
       clipPathUnits="userSpaceOnUse">
      <rect
         y="1.56014"
         x="-0.23969379"
         height="124.64256"
         width="128.47771"
         id="rect1088"
         style="fill:#818085;fill-opacity:0.91764706" />
    </clipPath>
    <clipPath
       id="clipPath1090"
       clipPathUnits="userSpaceOnUse">
      <rect
         y="1.56014"
         x="-0.23969379"
         height="124.64256"
         width="128.47771"
         id="rect1092"
         style="fill:#818085;fill-opacity:0.91764706" />
    </clipPath>
    <clipPath
       id="clipPath1094"
       clipPathUnits="userSpaceOnUse">
      <rect
         y="1.56014"
         x="-0.23969379"
         height="124.64256"
         width="128.47771"
         id="rect1096"
         style="fill:#818085;fill-opacity:0.91764706" />
    </clipPath>
    <clipPath
       id="clipPath1098"
       clipPathUnits="userSpaceOnUse">
      <rect
         y="1.56014"
         x="-0.23969379"
         height="124.64256"
         width="128.47771"
         id="rect1100"
         style="fill:#818085;fill-opacity:0.91764706" />
    </clipPath>
    <clipPath
       id="clipPath1102"
       clipPathUnits="userSpaceOnUse">
      <rect
         y="1.56014"
         x="-0.23969379"
         height="124.64256"
         width="128.47771"
         id="rect1104"
         style="fill:#818085;fill-opacity:0.91764706" />
    </clipPath>
    <clipPath
       id="clipPath1106"
       clipPathUnits="userSpaceOnUse">
      <rect
         y="1.56014"
         x="-0.23969379"
         height="124.64256"
         width="128.47771"
         id="rect1108"
         style="fill:#818085;fill-opacity:0.91764706" />
    </clipPath>
    <clipPath
       id="clipPath1110"
       clipPathUnits="userSpaceOnUse">
      <rect
         y="1.56014"
         x="-0.23969379"
         height="124.64256"
         width="128.47771"
         id="rect1112"
         style="fill:#818085;fill-opacity:0.91764706" />
    </clipPath>
    <clipPath
       id="clipPath1114"
       clipPathUnits="userSpaceOnUse">
      <rect
         y="1.56014"
         x="-0.23969379"
         height="124.64256"
         width="128.47771"
         id="rect1116"
         style="fill:#818085;fill-opacity:0.91764706" />
    </clipPath>
    <clipPath
       id="clipPath1118"
       clipPathUnits="userSpaceOnUse">
      <rect
         y="1.56014"
         x="-0.23969379"
         height="124.64256"
         width="128.47771"
         id="rect1120"
         style="fill:#818085;fill-opacity:0.91764706" />
    </clipPath>
    <clipPath
       id="clipPath1122"
       clipPathUnits="userSpaceOnUse">
      <rect
         y="1.56014"
         x="-0.23969379"
         height="124.64256"
         width="128.47771"
         id="rect1124"
         style="fill:#818085;fill-opacity:0.91764706" />
    </clipPath>
    <clipPath
       id="clipPath1126"
       clipPathUnits="userSpaceOnUse">
      <rect
         y="1.56014"
         x="-0.23969379"
         height="124.64256"
         width="128.47771"
         id="rect1128"
         style="fill:#818085;fill-opacity:0.91764706" />
    </clipPath>
    <clipPath
       id="clipPath1130"
       clipPathUnits="userSpaceOnUse">
      <rect
         y="1.56014"
         x="-0.23969379"
         height="124.64256"
         width="128.47771"
         id="rect1132"
         style="fill:#818085;fill-opacity:0.91764706" />
    </clipPath>
    <clipPath
       id="clipPath1134"
       clipPathUnits="userSpaceOnUse">
      <rect
         y="1.56014"
         x="-0.23969379"
         height="124.64256"
         width="128.47771"
         id="rect1136"
         style="fill:#818085;fill-opacity:0.91764706" />
    </clipPath>
    <clipPath
       id="clipPath1138"
       clipPathUnits="userSpaceOnUse">
      <rect
         y="1.56014"
         x="-0.23969379"
         height="124.64256"
         width="128.47771"
         id="rect1140"
         style="fill:#818085;fill-opacity:0.91764706" />
    </clipPath>
    <clipPath
       id="clipPath1142"
       clipPathUnits="userSpaceOnUse">
      <rect
         y="1.56014"
         x="-0.23969379"
         height="124.64256"
         width="128.47771"
         id="rect1144"
         style="fill:#818085;fill-opacity:0.91764706" />
    </clipPath>
    <clipPath
       id="clipPath1146"
       clipPathUnits="userSpaceOnUse">
      <rect
         y="1.56014"
         x="-0.23969379"
         height="124.64256"
         width="128.47771"
         id="rect1148"
         style="fill:#818085;fill-opacity:0.91764706" />
    </clipPath>
    <clipPath
       id="clipPath1150"
       clipPathUnits="userSpaceOnUse">
      <rect
         y="1.56014"
         x="-0.23969379"
         height="124.64256"
         width="128.47771"
         id="rect1152"
         style="fill:#818085;fill-opacity:0.91764706" />
    </clipPath>
    <clipPath
       id="clipPath1154"
       clipPathUnits="userSpaceOnUse">
      <rect
         y="1.56014"
         x="-0.23969379"
         height="124.64256"
         width="128.47771"
         id="rect1156"
         style="fill:#818085;fill-opacity:0.91764706" />
    </clipPath>
    <clipPath
       id="clipPath1158"
       clipPathUnits="userSpaceOnUse">
      <rect
         y="1.56014"
         x="-0.23969379"
         height="124.64256"
         width="128.47771"
         id="rect1160"
         style="fill:#818085;fill-opacity:0.91764706" />
    </clipPath>
    <clipPath
       id="clipPath1162"
       clipPathUnits="userSpaceOnUse">
      <rect
         y="1.56014"
         x="-0.23969379"
         height="124.64256"
         width="128.47771"
         id="rect1164"
         style="fill:#818085;fill-opacity:0.91764706" />
    </clipPath>
    <clipPath
       id="clipPath1166"
       clipPathUnits="userSpaceOnUse">
      <rect
         y="1.56014"
         x="-0.23969379"
         height="124.64256"
         width="128.47771"
         id="rect1168"
         style="fill:#818085;fill-opacity:0.91764706" />
    </clipPath>
    <clipPath
       id="clipPath1170"
       clipPathUnits="userSpaceOnUse">
      <rect
         y="1.56014"
         x="-0.23969379"
         height="124.64256"
         width="128.47771"
         id="rect1172"
         style="fill:#818085;fill-opacity:0.91764706" />
    </clipPath>
    <clipPath
       id="clipPath1174"
       clipPathUnits="userSpaceOnUse">
      <rect
         y="1.56014"
         x="-0.23969379"
         height="124.64256"
         width="128.47771"
         id="rect1176"
         style="fill:#818085;fill-opacity:0.91764706" />
    </clipPath>
    <clipPath
       id="clipPath1178"
       clipPathUnits="userSpaceOnUse">
      <rect
         y="1.56014"
         x="-0.23969379"
         height="124.64256"
         width="128.47771"
         id="rect1180"
         style="fill:#818085;fill-opacity:0.91764706" />
    </clipPath>
    <clipPath
       id="clipPath1182"
       clipPathUnits="userSpaceOnUse">
      <rect
         y="1.56014"
         x="-0.23969379"
         height="124.64256"
         width="128.47771"
         id="rect1184"
         style="fill:#818085;fill-opacity:0.91764706" />
    </clipPath>
    <clipPath
       id="clipPath1186"
       clipPathUnits="userSpaceOnUse">
      <rect
         y="1.56014"
         x="-0.23969379"
         height="124.64256"
         width="128.47771"
         id="rect1188"
         style="fill:#818085;fill-opacity:0.91764706" />
    </clipPath>
    <clipPath
       id="clipPath1190"
       clipPathUnits="userSpaceOnUse">
      <rect
         y="1.56014"
         x="-0.23969379"
         height="124.64256"
         width="128.47771"
         id="rect1192"
         style="fill:#818085;fill-opacity:0.91764706" />
    </clipPath>
    <clipPath
       id="clipPath1194"
       clipPathUnits="userSpaceOnUse">
      <rect
         y="1.56014"
         x="-0.23969379"
         height="124.64256"
         width="128.47771"
         id="rect1196"
         style="fill:#818085;fill-opacity:0.91764706" />
    </clipPath>
    <clipPath
       id="clipPath1198"
       clipPathUnits="userSpaceOnUse">
      <rect
         y="1.56014"
         x="-0.23969379"
         height="124.64256"
         width="128.47771"
         id="rect1200"
         style="fill:#818085;fill-opacity:0.91764706" />
    </clipPath>
    <clipPath
       id="clipPath1202"
       clipPathUnits="userSpaceOnUse">
      <rect
         y="1.56014"
         x="-0.23969379"
         height="124.64256"
         width="128.47771"
         id="rect1204"
         style="fill:#818085;fill-opacity:0.91764706" />
    </clipPath>
    <clipPath
       id="clipPath1206"
       clipPathUnits="userSpaceOnUse">
      <rect
         y="1.56014"
         x="-0.23969379"
         height="124.64256"
         width="128.47771"
         id="rect1208"
         style="fill:#818085;fill-opacity:0.91764706" />
    </clipPath>
    <clipPath
       id="clipPath1210"
       clipPathUnits="userSpaceOnUse">
      <rect
         y="1.56014"
         x="-0.23969379"
         height="124.64256"
         width="128.47771"
         id="rect1212"
         style="fill:#818085;fill-opacity:0.91764706" />
    </clipPath>
    <clipPath
       id="clipPath1214"
       clipPathUnits="userSpaceOnUse">
      <rect
         y="1.56014"
         x="-0.23969379"
         height="124.64256"
         width="128.47771"
         id="rect1216"
         style="fill:#818085;fill-opacity:0.91764706" />
    </clipPath>
    <clipPath
       id="clipPath1218"
       clipPathUnits="userSpaceOnUse">
      <rect
         y="1.56014"
         x="-0.23969379"
         height="124.64256"
         width="128.47771"
         id="rect1220"
         style="fill:#818085;fill-opacity:0.91764706" />
    </clipPath>
    <clipPath
       id="clipPath1222"
       clipPathUnits="userSpaceOnUse">
      <rect
         y="1.56014"
         x="-0.23969379"
         height="124.64256"
         width="128.47771"
         id="rect1224"
         style="fill:#818085;fill-opacity:0.91764706" />
    </clipPath>
    <clipPath
       id="clipPath1226"
       clipPathUnits="userSpaceOnUse">
      <rect
         y="1.56014"
         x="-0.23969379"
         height="124.64256"
         width="128.47771"
         id="rect1228"
         style="fill:#818085;fill-opacity:0.91764706" />
    </clipPath>
    <clipPath
       id="clipPath1230"
       clipPathUnits="userSpaceOnUse">
      <rect
         y="1.56014"
         x="-0.23969379"
         height="124.64256"
         width="128.47771"
         id="rect1232"
         style="fill:#818085;fill-opacity:0.91764706" />
    </clipPath>
    <clipPath
       id="clipPath1234"
       clipPathUnits="userSpaceOnUse">
      <rect
         y="1.56014"
         x="-0.23969379"
         height="124.64256"
         width="128.47771"
         id="rect1236"
         style="fill:#818085;fill-opacity:0.91764706" />
    </clipPath>
    <clipPath
       id="clipPath1238"
       clipPathUnits="userSpaceOnUse">
      <rect
         y="1.56014"
         x="-0.23969379"
         height="124.64256"
         width="128.47771"
         id="rect1240"
         style="fill:#818085;fill-opacity:0.91764706" />
    </clipPath>
    <clipPath
       id="clipPath1242"
       clipPathUnits="userSpaceOnUse">
      <rect
         y="1.56014"
         x="-0.23969379"
         height="124.64256"
         width="128.47771"
         id="rect1244"
         style="fill:#818085;fill-opacity:0.91764706" />
    </clipPath>
    <clipPath
       id="clipPath1246"
       clipPathUnits="userSpaceOnUse">
      <rect
         y="1.56014"
         x="-0.23969379"
         height="124.64256"
         width="128.47771"
         id="rect1248"
         style="fill:#818085;fill-opacity:0.91764706" />
    </clipPath>
    <clipPath
       id="clipPath1250"
       clipPathUnits="userSpaceOnUse">
      <rect
         y="1.56014"
         x="-0.23969379"
         height="124.64256"
         width="128.47771"
         id="rect1252"
         style="fill:#818085;fill-opacity:0.91764706" />
    </clipPath>
    <clipPath
       id="clipPath1254"
       clipPathUnits="userSpaceOnUse">
      <rect
         y="1.56014"
         x="-0.23969379"
         height="124.64256"
         width="128.47771"
         id="rect1256"
         style="fill:#818085;fill-opacity:0.91764706" />
    </clipPath>
    <clipPath
       id="clipPath1258"
       clipPathUnits="userSpaceOnUse">
      <rect
         y="1.56014"
         x="-0.23969379"
         height="124.64256"
         width="128.47771"
         id="rect1260"
         style="fill:#818085;fill-opacity:0.91764706" />
    </clipPath>
    <clipPath
       id="clipPath1262"
       clipPathUnits="userSpaceOnUse">
      <rect
         y="1.56014"
         x="-0.23969379"
         height="124.64256"
         width="128.47771"
         id="rect1264"
         style="fill:#818085;fill-opacity:0.91764706" />
    </clipPath>
    <clipPath
       id="clipPath1266"
       clipPathUnits="userSpaceOnUse">
      <rect
         y="1.56014"
         x="-0.23969379"
         height="124.64256"
         width="128.47771"
         id="rect1268"
         style="fill:#818085;fill-opacity:0.91764706" />
    </clipPath>
    <clipPath
       id="clipPath1270"
       clipPathUnits="userSpaceOnUse">
      <rect
         y="1.56014"
         x="-0.23969379"
         height="124.64256"
         width="128.47771"
         id="rect1272"
         style="fill:#818085;fill-opacity:0.91764706" />
    </clipPath>
    <clipPath
       id="clipPath1274"
       clipPathUnits="userSpaceOnUse">
      <rect
         y="1.56014"
         x="-0.23969379"
         height="124.64256"
         width="128.47771"
         id="rect1276"
         style="fill:#818085;fill-opacity:0.91764706" />
    </clipPath>
    <clipPath
       id="clipPath1278"
       clipPathUnits="userSpaceOnUse">
      <rect
         y="1.56014"
         x="-0.23969379"
         height="124.64256"
         width="128.47771"
         id="rect1280"
         style="fill:#818085;fill-opacity:0.91764706" />
    </clipPath>
    <clipPath
       id="clipPath1282"
       clipPathUnits="userSpaceOnUse">
      <rect
         y="1.56014"
         x="-0.23969379"
         height="124.64256"
         width="128.47771"
         id="rect1284"
         style="fill:#818085;fill-opacity:0.91764706" />
    </clipPath>
    <clipPath
       id="clipPath1286"
       clipPathUnits="userSpaceOnUse">
      <rect
         y="1.56014"
         x="-0.23969379"
         height="124.64256"
         width="128.47771"
         id="rect1288"
         style="fill:#818085;fill-opacity:0.91764706" />
    </clipPath>
    <clipPath
       id="clipPath1290"
       clipPathUnits="userSpaceOnUse">
      <rect
         y="1.56014"
         x="-0.23969379"
         height="124.64256"
         width="128.47771"
         id="rect1292"
         style="fill:#818085;fill-opacity:0.91764706" />
    </clipPath>
    <clipPath
       id="clipPath1294"
       clipPathUnits="userSpaceOnUse">
      <rect
         y="1.56014"
         x="-0.23969379"
         height="124.64256"
         width="128.47771"
         id="rect1296"
         style="fill:#818085;fill-opacity:0.91764706" />
    </clipPath>
    <clipPath
       id="clipPath1298"
       clipPathUnits="userSpaceOnUse">
      <rect
         y="1.56014"
         x="-0.23969379"
         height="124.64256"
         width="128.47771"
         id="rect1300"
         style="fill:#818085;fill-opacity:0.91764706" />
    </clipPath>
    <clipPath
       id="clipPath1302"
       clipPathUnits="userSpaceOnUse">
      <rect
         y="1.56014"
         x="-0.23969379"
         height="124.64256"
         width="128.47771"
         id="rect1304"
         style="fill:#818085;fill-opacity:0.91764706" />
    </clipPath>
    <clipPath
       id="clipPath1306"
       clipPathUnits="userSpaceOnUse">
      <rect
         y="1.56014"
         x="-0.23969379"
         height="124.64256"
         width="128.47771"
         id="rect1308"
         style="fill:#818085;fill-opacity:0.91764706" />
    </clipPath>
    <clipPath
       id="clipPath1310"
       clipPathUnits="userSpaceOnUse">
      <rect
         y="1.56014"
         x="-0.23969379"
         height="124.64256"
         width="128.47771"
         id="rect1312"
         style="fill:#818085;fill-opacity:0.91764706" />
    </clipPath>
    <clipPath
       id="clipPath1314"
       clipPathUnits="userSpaceOnUse">
      <rect
         y="1.56014"
         x="-0.23969379"
         height="124.64256"
         width="128.47771"
         id="rect1316"
         style="fill:#818085;fill-opacity:0.91764706" />
    </clipPath>
    <clipPath
       id="clipPath1318"
       clipPathUnits="userSpaceOnUse">
      <rect
         y="1.56014"
         x="-0.23969379"
         height="124.64256"
         width="128.47771"
         id="rect1320"
         style="fill:#818085;fill-opacity:0.91764706" />
    </clipPath>
    <clipPath
       id="clipPath1322"
       clipPathUnits="userSpaceOnUse">
      <rect
         y="1.56014"
         x="-0.23969379"
         height="124.64256"
         width="128.47771"
         id="rect1324"
         style="fill:#818085;fill-opacity:0.91764706" />
    </clipPath>
    <clipPath
       id="clipPath1326"
       clipPathUnits="userSpaceOnUse">
      <rect
         y="1.56014"
         x="-0.23969379"
         height="124.64256"
         width="128.47771"
         id="rect1328"
         style="fill:#818085;fill-opacity:0.91764706" />
    </clipPath>
    <clipPath
       id="clipPath1330"
       clipPathUnits="userSpaceOnUse">
      <rect
         y="1.56014"
         x="-0.23969379"
         height="124.64256"
         width="128.47771"
         id="rect1332"
         style="fill:#818085;fill-opacity:0.91764706" />
    </clipPath>
    <clipPath
       id="clipPath1334"
       clipPathUnits="userSpaceOnUse">
      <rect
         y="1.56014"
         x="-0.23969379"
         height="124.64256"
         width="128.47771"
         id="rect1336"
         style="fill:#818085;fill-opacity:0.91764706" />
    </clipPath>
    <clipPath
       id="clipPath1338"
       clipPathUnits="userSpaceOnUse">
      <rect
         y="1.56014"
         x="-0.23969379"
         height="124.64256"
         width="128.47771"
         id="rect1340"
         style="fill:#818085;fill-opacity:0.91764706" />
    </clipPath>
    <clipPath
       id="clipPath1342"
       clipPathUnits="userSpaceOnUse">
      <rect
         y="1.56014"
         x="-0.23969379"
         height="124.64256"
         width="128.47771"
         id="rect1344"
         style="fill:#818085;fill-opacity:0.91764706" />
    </clipPath>
    <clipPath
       id="clipPath1346"
       clipPathUnits="userSpaceOnUse">
      <rect
         y="1.56014"
         x="-0.23969379"
         height="124.64256"
         width="128.47771"
         id="rect1348"
         style="fill:#818085;fill-opacity:0.91764706" />
    </clipPath>
    <clipPath
       id="clipPath1350"
       clipPathUnits="userSpaceOnUse">
      <rect
         y="1.56014"
         x="-0.23969379"
         height="124.64256"
         width="128.47771"
         id="rect1352"
         style="fill:#818085;fill-opacity:0.91764706" />
    </clipPath>
    <clipPath
       id="clipPath1354"
       clipPathUnits="userSpaceOnUse">
      <rect
         y="1.56014"
         x="-0.23969379"
         height="124.64256"
         width="128.47771"
         id="rect1356"
         style="fill:#818085;fill-opacity:0.91764706" />
    </clipPath>
    <clipPath
       id="clipPath1358"
       clipPathUnits="userSpaceOnUse">
      <rect
         y="1.56014"
         x="-0.23969379"
         height="124.64256"
         width="128.47771"
         id="rect1360"
         style="fill:#818085;fill-opacity:0.91764706" />
    </clipPath>
    <clipPath
       id="clipPath1362"
       clipPathUnits="userSpaceOnUse">
      <rect
         y="1.56014"
         x="-0.23969379"
         height="124.64256"
         width="128.47771"
         id="rect1364"
         style="fill:#818085;fill-opacity:0.91764706" />
    </clipPath>
  </defs>
  <sodipodi:namedview
     id="base"
     pagecolor="#ffffff"
     bordercolor="#666666"
     borderopacity="1.0"
     inkscape:pageopacity="0.0"
     inkscape:pageshadow="2"
     inkscape:zoom="0.98994949"
     inkscape:cx="608.95284"
     inkscape:cy="425.38641"
     inkscape:document-units="mm"
     inkscape:current-layer="layer1"
     showgrid="false"
     inkscape:snap-page="false"
     inkscape:window-width="1920"
     inkscape:window-height="1013"
     inkscape:window-x="-9"
     inkscape:window-y="-9"
     inkscape:window-maximized="1"
     width="200mm" />
  <metadata
     id="metadata5">
    <rdf:RDF>
      <cc:Work
         rdf:about="">
        <dc:format>image/svg+xml</dc:format>
        <dc:type
           rdf:resource="http://purl.org/dc/dcmitype/StillImage" />
        <dc:title></dc:title>
      </cc:Work>
    </rdf:RDF>
  </metadata>
  <g
     inkscape:label="Livello 1"
     inkscape:groupmode="layer"
     id="layer1"
     transform="translate(0,-97)">
    <g
       id="g4604"
       transform="matrix(0.9713656,0,0,1.1028453,-2.0574233,95.120016)">
      <g
         transform="matrix(3.2681608,0,0,2.9661456,-4.4174642,-6.98664)"
         id="g3753">
        <path
   inkscape:connector-curvature="0"
   d="M 20.65356,3.93018 V 9.7085 h -5.49365 v 4.87305 H 7.81519 V 28.8999 h 2 V 16.58154 c 0.1024,10e-6 30.28582,0.0023 30.00635,0.002 v 2.82715 H 23.40161 v 2 h 16.41992 v 4.03711 h 8.70703 v -2 h -6.70703 v -2.03711 h 7.70703 v -4.8291 c 1.44765,-10e-6 9.6188,-4e-5 9.47266,0 v 3.49512 h -6.96387 v 27.50098 h 6.96387 v 3.49512 c -1.30993,-6e-5 -31.42522,-0.0015 -40.90234,-0.002 V 46.31397 H 46.53247 V 42.2378 h -2 v 2.07617 H 16.09888 v 6.75684 H 9.81519 V 38.75439 h -2 v 14.31836 h 1.10205 v 5.23242 h 2.00244 v 5.76465 h 2 v -5.76465 h 1.45264 v 5.76465 h 2 v -5.76465 h 1.45313 v 5.76465 h 2 v -5.76465 h 1.45264 v 5.76465 h 2 v -5.76465 h 2.00244 V 53.07275 H 43.0442 v 3.2959 H 32.22485 v 2 h 23.63867 v -2 H 45.04419 v -3.2959 h 15.95703 v -2.92969 h 3.99902 v -2 h -3.99902 v -0.56543 h 0.0078 v -1.26367 h 3.99121 v -2 h -3.99121 v -1.8291 h 3.99121 v -2 h -3.99121 v -1.8291 h 3.99121 v -2 h -3.99121 v -1.8291 h 3.99121 v -2 h -3.99121 v -1.82813 h 3.99121 v -2 h -3.99121 v -1.8291 h 3.99121 v -2 h -3.99121 v -1.8291 h 3.99121 v -2 h -3.99121 v -1.26367 h -0.0078 v -0.56543 h 3.99902 v -2 H 61.00122 V 14.58154 H 56.6145 V 10.66748 H 54.82641 V 8.48779 c 0,-3.06445 -2.49316,-5.55762 -5.55859,-5.55762 H 33.5564 v 2 h 6.26514 V 9.7085 h -5.93311 v 4.87305 h -4.8623 V 9.7085 H 22.65357 V 3.93018 Z m 2.62696,52.375 H 10.91724 V 53.07276 H 23.28052 Z M 54.03735,45.57764 V 22.07666 h 4.96387 V 45.57764 Z M 41.82153,19.41064 V 16.5835 h 5.70703 v 2.82715 h -5.70703 z m 11.2168,-4.8291 v -1.91406 h 1.57617 v 1.91406 z M 41.82153,4.93018 h 7.44629 c 1.96191,0 3.55859,1.5957 3.55859,3.55762 v 2.17969 h -1.78809 v 3.91406 H 47.75414 V 9.7085 H 41.82152 V 4.93018 Z m -5.9331,6.77832 h 9.86572 v 2.87305 h -9.86572 z m -8.86231,2.87304 H 17.15991 V 11.7085 h 9.86621 z"
   id="path3713" />

        <rect
   x="43.748291"
   y="59.687012"
   width="2.18555"
   height="2"
   id="rect3715" />

        <rect
   x="39.064209"
   y="59.687012"
   width="2.18506"
   height="2"
   id="rect3717" />

        <rect
   x="48.432861"
   y="59.687012"
   width="2.1845701"
   height="2"
   id="rect3719" />

        <rect
   x="53.117432"
   y="59.687012"
   width="2.1845701"
   height="2"
   id="rect3721" />

        <rect
   x="34.379639"
   y="59.687012"
   width="2.18506"
   height="2"
   id="rect3723" />

        <polygon
   points="48.71606,30.81689 48.71606,28.81689 46.53247,28.81689 46.53247,26.6333 44.53247,26.6333 44.53247,28.81689 42.3479,28.81689 42.3479,30.81689 44.53247,30.81689 44.53247,33.00049 46.53247,33.00049 46.53247,30.81689 "
   id="polygon3725" />

        <rect
   x="42.3479"
   y="38.80518"
   width="6.3681598"
   height="2"
   id="rect3727" />

        <rect
   x="11.78979"
   y="19.410641"
   width="1.99805"
   height="2"
   id="rect3729" />

        <rect
   x="15.53589"
   y="19.410641"
   width="1.99756"
   height="2"
   id="rect3731" />

        <rect
   x="19.28149"
   y="19.410641"
   width="1.99756"
   height="2"
   id="rect3733" />

        <rect
   x="55.522709"
   y="24.653811"
   width="2"
   height="1.43555"
   id="rect3735" />

        <rect
   x="55.522709"
   y="28.88232"
   width="2"
   height="1.43457"
   id="rect3737" />

        <rect
   x="55.522709"
   y="33.109859"
   width="2"
   height="1.43457"
   id="rect3739" />

        <rect
   x="55.522709"
   y="37.337399"
   width="2"
   height="1.43457"
   id="rect3741" />

        <rect
   x="55.522709"
   y="41.564941"
   width="2"
   height="1.43555"
   id="rect3743" />

        <path
   inkscape:connector-curvature="0"
   d="M 31.42798,38.13232 41.4895,35.88427 V 31.77001 L 31.42554,29.521 30.36548,30.81397 1.99976,30.81494 v 6.03418 h 28.36768 z m -27.42822,-5.31738 27.31201,-9.8e-4 0.87939,-1.07227 7.29834,1.62988 v 0.91113 l -7.30078,1.63086 -0.87891,-1.06445 H 3.99976 Z"
   id="path3745" />

        <rect
   x="20.280029"
   y="39.769039"
   width="2.7841799"
   height="2"
   id="rect3747" />

        <rect
   x="25.24243"
   y="39.769039"
   width="2.78369"
   height="2"
   id="rect3749" />

        <rect
   x="30.20435"
   y="39.769039"
   width="2.78369"
   height="2"
   id="rect3751" />

    </g>
      <path
         transform="scale(0.26458333)"
         inkscape:connector-curvature="0"
         id="path4523"
         d="m 118.79051,659.00002 -0.26673,-32.07235 -12.37436,-0.28363 -12.374373,-0.28363 V 597.09708 567.83375 H 87.209055 80.643064 V 488.0317 408.22965 h 11.616754 11.616752 v 69.19545 69.19545 h 39.39595 39.39595 V 508.73983 470.85911 H 358.43501 534.20156 V 459.24235 447.6256 h 11.61675 11.61675 v 22.2205 22.22052 l -175.514,0.25538 -175.514,0.25539 v 26.76904 26.76904 l 253.31711,0.25453 253.31711,0.25452 -0.2739,-19.9525 -0.2739,-19.9525 -43.18402,-0.26339 -43.18402,-0.26337 V 352.66041 199.12807 h 43.45791 43.45792 l -0.2739,-19.95051 -0.27389,-19.95051 -58.84139,-0.26068 -58.84138,-0.26068 v 27.28226 27.28226 h -47.47717 -47.47717 v 11.61675 11.61676 h 41.41625 41.41626 v 11.11167 11.11168 H 529.15079 475.61271 V 235.99864 213.27021 H 374.09238 272.57205 V 202.6636 192.057 H 374.09238 475.61271 V 175.38949 158.72197 H 289.74464 103.87657 v 69.19545 69.19545 H 92.259818 80.643064 v -79.80205 -79.80205 h 44.951786 44.95179 V 110.23465 82.960528 h 34.34519 34.34518 V 50.635647 18.310765 h 11.61676 11.61675 v 32.324882 32.324881 h 39.39595 39.39595 v 27.274122 27.27412 H 371.567 401.87157 V 110.23465 82.960528 h 36.87057 36.87057 V 55.686409 28.412291 H 436.72184 397.83096 V 17.782857 7.1534224 l 104.29825,0.2753706 104.29825,0.2753706 7.85702,2.6796304 c 21.68865,7.396901 37.42334,22.996001 43.65851,43.28231 1.19038,3.872947 1.87359,10.834 2.25551,22.980971 l 0.54788,17.425131 h 10.46872 10.46873 v 21.718284 21.71828 h 27.2491 27.24909 l 0.27756,16.41497 0.27756,16.41498 24.4962,0.2705 24.4962,0.2705 V 181.46836 192.057 H 760.9808 736.23207 v 10.6066 10.60661 h 24.74873 24.74874 v 10.6066 10.6066 h -24.78291 -24.78291 l 0.28671,10.85914 0.28671,10.85914 24.4962,0.2705 24.4962,0.2705 v 10.58864 10.58864 H 760.9808 736.23207 v 10.6066 10.6066 h 24.74873 24.74874 v 10.6066 10.60661 h -24.78291 -24.78291 l 0.28671,10.85914 0.28671,10.85914 24.4962,0.27049 24.4962,0.2705 v 10.58864 10.58865 H 760.9808 736.23207 v 10.6066 10.6066 h 24.74873 24.74874 v 10.6066 10.6066 H 760.9808 736.23207 v 10.6066 10.60661 h 24.74873 24.74874 v 11.11167 11.11168 H 760.9808 736.23207 v 10.6066 10.60661 h 24.74873 24.74874 v 10.6066 10.6066 H 760.9808 736.23207 v 10.6066 10.6066 h 24.74873 24.74874 v 11.11168 11.11168 H 760.9808 736.23207 v 16.16244 16.16244 h -98.48988 -98.48987 v 19.1929 19.1929 h 66.67007 66.67007 v 10.6066 10.6066 H 527.13049 381.66852 v -10.6066 -10.6066 h 66.67007 66.67007 v -19.1929 -19.1929 H 404.90203 294.7954 v 29.29442 29.29443 h -12.12183 -12.12183 v 32.32488 32.32488 H 258.42991 246.30808 V 658.74748 626.4226 h -9.09137 -9.09137 v 32.32488 32.32488 H 216.0035 203.88167 v -32.36279 -32.36278 l -9.34391,0.29043 -9.34391,0.29045 -0.26673,32.07235 -0.26672,32.07234 H 173.05783 161.45527 V 658.74748 626.4226 h -9.59645 -9.59645 v 32.32488 32.32488 H 130.6598 119.05724 Z M 271.56189,586.52157 V 567.83375 H 194.7903 118.01871 v 18.68782 18.68782 h 76.77159 76.77159 z m 441.18789,-233.59777 -0.2563,-132.07745 -31.06219,-0.26713 -31.06219,-0.26714 v 132.34458 132.34458 h 31.31849 31.31847 z M 570.56705,175.38949 v -16.66752 h -35.35534 -35.35534 v 16.66752 16.66751 h 35.35534 35.35534 z M 318.02891,120.84125 v -16.66752 h -61.6193 -61.61931 v 16.66752 16.66752 h 61.61931 61.6193 z m 231.32493,0 v -16.66752 h -61.6193 -61.61931 v 16.66752 16.66752 h 61.61931 61.6193 z m 64.64977,-5.05076 V 94.072206 h 11.21163 11.21163 L 636.05352,76.647075 C 635.68487,59.441536 635.63938,59.138063 632.44398,52.565927 628.71782,44.902113 621.84409,37.9412 614.15472,34.044701 603.3673,28.578304 601.43617,28.412291 548.63654,28.412291 h -48.78017 v 27.274118 27.274119 h 36.36549 36.36549 v 27.274122 27.27412 h 20.70813 20.70813 z m 44.44671,10.6066 v -11.11168 h -10.10153 -10.10152 v 11.11168 11.11168 h 10.10152 10.10153 z"
         style="fill:#2f353a;fill-opacity:1;stroke-width:1.01015258" />
      <path
         transform="scale(0.26458333)"
         inkscape:connector-curvature="0"
         id="path4525"
         d="m 364.62748,392.99866 -6.43444,-6.99237 H 183.55764 8.9222329 V 352.67126 319.33622 H 183.84743 358.77262 l 6.64973,-7.12632 6.64972,-7.12632 61.61931,12.50829 61.6193,12.50828 0.26931,22.64977 0.2693,22.64977 -61.38353,12.41043 c -33.76094,6.82573 -61.8381,12.35879 -62.39369,12.29567 -0.55558,-0.0631 -3.90565,-3.26133 -7.44459,-7.10713 z m 62.79559,-25.72041 44.23933,-8.89884 -0.2977,-5.58004 -0.29768,-5.58003 -45.20346,-9.14333 -45.20344,-9.14334 -5.30418,5.84184 -5.30417,5.84183 -168.69548,0.21908 -168.695472,0.21908 -0.284596,11.8693 -0.284596,11.86929 H 200.97494 369.85825 l 5.53557,6.11699 c 3.04456,3.36435 6.04279,5.92575 6.66274,5.692 0.61995,-0.23374 21.03488,-4.42947 45.36651,-9.32383 z"
         style="fill:#2f353a;fill-opacity:1;stroke-width:1.01015258" />
      <path
         transform="scale(0.26458333)"
         inkscape:connector-curvature="0"
         id="path4527"
         d="M 534.20156,330.95298 V 318.32607 H 520.5645 506.92744 v -10.6066 -10.6066 h 13.63706 13.63706 v -12.12183 -12.12183 h 11.61675 11.61675 v 12.12183 12.12183 h 13.63706 13.63706 v 10.6066 10.6066 h -13.63706 -13.63706 v 12.62691 12.6269 h -11.61675 -11.61675 z"
         style="fill:#2f353a;fill-opacity:1;stroke-width:1.01015258" />
      <path
         transform="scale(0.26458333)"
         inkscape:connector-curvature="0"
         id="path4529"
         d="m 234.18625,430.95808 v -10.6066 h 16.66752 16.66751 v 10.6066 10.6066 h -16.66751 -16.66752 z"
         style="fill:#2f353a;fill-opacity:1;stroke-width:1.01015258" />
      <path
         transform="scale(0.26458333)"
         inkscape:connector-curvature="0"
         id="path4531"
         d="m 295.80556,430.95808 v -10.6066 h 16.66751 16.66752 v 10.6066 10.6066 h -16.66752 -16.66751 z"
         style="fill:#2f353a;fill-opacity:1;stroke-width:1.01015258" />
      <path
         transform="scale(0.26458333)"
         inkscape:connector-curvature="0"
         id="path4533"
         d="m 356.41471,430.95808 v -10.6066 h 17.17259 17.17259 v 10.6066 10.6066 H 373.5873 356.41471 Z"
         style="fill:#2f353a;fill-opacity:1;stroke-width:1.01015258" />
      <path
         transform="scale(0.26458333)"
         inkscape:connector-curvature="0"
         id="path4535"
         d="m 506.92744,419.8464 v -10.6066 h 38.89087 38.89087 v 10.6066 10.6066 h -38.89087 -38.89087 z"
         style="fill:#2f353a;fill-opacity:1;stroke-width:1.01015258" />
      <path
         transform="scale(0.26458333)"
         inkscape:connector-curvature="0"
         id="path4537"
         d="m 407.93249,654.20179 v -10.6066 h 13.13198 13.13198 v 10.6066 10.6066 h -13.13198 -13.13198 z"
         style="fill:#2f353a;fill-opacity:1;stroke-width:1.01015258" />
      <path
         transform="scale(0.26458333)"
         inkscape:connector-curvature="0"
         id="path4539"
         d="m 466.52134,654.20179 v -10.6066 h 13.13198 13.13198 v 10.6066 10.6066 h -13.13198 -13.13198 z"
         style="fill:#2f353a;fill-opacity:1;stroke-width:1.01015258" />
      <path
         transform="scale(0.26458333)"
         inkscape:connector-curvature="0"
         id="path4541"
         d="m 524.10003,654.20179 v -10.6066 h 13.13198 13.13199 v 10.6066 10.6066 h -13.13199 -13.13198 z"
         style="fill:#2f353a;fill-opacity:1;stroke-width:1.01015258" />
      <path
         transform="scale(0.26458333)"
         inkscape:connector-curvature="0"
         id="path4543"
         d="m 581.67873,654.20179 v -10.6066 h 13.13198 13.13198 v 10.6066 10.6066 h -13.13198 -13.13198 z"
         style="fill:#2f353a;fill-opacity:1;stroke-width:1.01015258" />
      <path
         transform="scale(0.26458333)"
         inkscape:connector-curvature="0"
         id="path4545"
         d="m 640.26757,654.20179 v -10.6066 h 12.62691 12.62691 v 10.6066 10.6066 h -12.62691 -12.62691 z"
         style="fill:#2f353a;fill-opacity:1;stroke-width:1.01015258" />
      <path
         transform="scale(0.26458333)"
         inkscape:connector-curvature="0"
         id="path4547"
         d="M 129.13039,202.6636 V 192.057 h 12.12183 12.12183 v 10.6066 10.60661 h -12.12183 -12.12183 z"
         style="fill:#2f353a;fill-opacity:1;stroke-width:1.01015258" />
      <path
         transform="scale(0.26458333)"
         inkscape:connector-curvature="0"
         id="path4549"
         d="M 175.5974,202.6636 V 192.057 h 12.12183 12.12183 v 10.6066 10.60661 H 187.71923 175.5974 Z"
         style="fill:#2f353a;fill-opacity:1;stroke-width:1.01015258" />
      <path
         transform="scale(0.26458333)"
         inkscape:connector-curvature="0"
         id="path4551"
         d="M 222.06442,202.6636 V 192.057 h 11.61675 11.61676 v 10.6066 10.60661 h -11.61676 -11.61675 z"
         style="fill:#2f353a;fill-opacity:1;stroke-width:1.01015258" />
      <path
         transform="scale(0.26458333)"
         inkscape:connector-curvature="0"
         id="path4553"
         d="m 669.562,258.22199 v -7.57614 h 12.12183 12.12183 v 7.57614 7.57615 H 681.68383 669.562 Z"
         style="fill:#2f353a;fill-opacity:1;stroke-width:1.01015258" />
      <path
         transform="scale(0.26458333)"
         inkscape:connector-curvature="0"
         id="path4555"
         d="m 669.562,305.69916 v -7.57614 h 12.12183 12.12183 v 7.57614 7.57615 H 681.68383 669.562 Z"
         style="fill:#2f353a;fill-opacity:1;stroke-width:1.01015258" />
      <path
         transform="scale(0.26458333)"
         inkscape:connector-curvature="0"
         id="path4557"
         d="m 669.562,353.17633 v -7.57614 h 12.12183 12.12183 v 7.57614 7.57615 H 681.68383 669.562 Z"
         style="fill:#2f353a;fill-opacity:1;stroke-width:1.01015258" />
      <path
         transform="scale(0.26458333)"
         inkscape:connector-curvature="0"
         id="path4559"
         d="m 669.562,400.6535 v -7.57614 h 12.12183 12.12183 v 7.57614 7.57615 H 681.68383 669.562 Z"
         style="fill:#2f353a;fill-opacity:1;stroke-width:1.01015258" />
      <path
         transform="scale(0.26458333)"
         inkscape:connector-curvature="0"
         id="path4561"
         d="m 669.562,447.12052 v -7.57614 h 12.12183 12.12183 v 7.57614 7.57614 H 681.68383 669.562 Z"
         style="fill:#2f353a;fill-opacity:1;stroke-width:1.01015258" />
    </g>
  </g>
</svg>
